<?xml version="1.0" standalone="no"?>
<!DOCTYPE svg PUBLIC "-//W3C//DTD SVG 1.1//EN" "http://www.w3.org/Graphics/SVG/1.1/DTD/svg11.dtd" >
<svg xmlns="http://www.w3.org/2000/svg" xmlns:xlink="http://www.w3.org/1999/xlink" version="1.1">
<metadata>
Created by FontForge 20170731 at Mon Oct  1 21:22:43 2018
 By Aleksey,,,
Copyright (c) 2018 by TipoType Team. All rights reserved.
</metadata>
<defs>
<font id="Fieldwork-GeoThin" horiz-adv-x="1350" >
  <font-face 
    font-family="Fieldwork 02 Geo Thin"
    font-weight="265"
    font-stretch="normal"
    units-per-em="2048"
    panose-1="0 0 0 0 0 0 0 0 0 0"
    ascent="1638"
    descent="-410"
    x-height="959"
    cap-height="1358"
    bbox="-188 -703 3065 2293"
    underline-thickness="150"
    underline-position="-650"
    unicode-range="U+000D-FB04"
  />
<missing-glyph horiz-adv-x="1418" 
d="M200 0v1358h1018v-1358h-1018zM467 1018l-97 -97l242 -240l-244 -245l97 -97l245 242l243 -242l97 97l-244 245l242 240l-97 97l-241 -242z" />
    <glyph glyph-name="ff" unicode="ff" horiz-adv-x="1453" 
d="M1401 854h-312v-854h-120v854h-610v-854h-120v854h-181v106h181v134q0 158 94 246t251 88q85 0 157 -27l-16 -93q-50 22 -135 22q-46 0 -85.5 -12.5t-73 -39.5t-53 -77t-19.5 -118v-123h610v134q0 158 94 246t251 88q85 0 157 -27l-16 -93q-50 22 -135 22
q-46 0 -85.5 -12.5t-73 -39.5t-53 -77t-19.5 -118v-123h312v-106z" />
    <glyph glyph-name="fi" unicode="fi" horiz-adv-x="1201" 
d="M671 854h-312v-854h-120v854h-181v106h181v134q0 158 94 246t251 88q85 0 157 -27l-16 -93q-50 22 -135 22q-46 0 -85.5 -12.5t-73 -39.5t-53 -77t-19.5 -118v-123h312v-106zM910 0v960h120v-960h-120zM969 1207q-33 0 -54 21t-21 54t21 54t54 21t54.5 -21t21.5 -54
t-21.5 -54t-54.5 -21z" />
    <glyph glyph-name="fl" unicode="fl" horiz-adv-x="1200" 
d="M671 854h-312v-854h-120v854h-181v106h181v134q0 158 94 246t251 88q85 0 157 -27l-16 -93q-50 22 -135 22q-46 0 -85.5 -12.5t-73 -39.5t-53 -77t-19.5 -118v-123h312v-106zM894 0v1408h120v-1408h-120z" />
    <glyph glyph-name="ffi" unicode="ffi" horiz-adv-x="1931" 
d="M1401 854h-312v-854h-120v854h-610v-854h-120v854h-181v106h181v134q0 158 94 246t251 88q85 0 157 -27l-16 -93q-50 22 -135 22q-46 0 -85.5 -12.5t-73 -39.5t-53 -77t-19.5 -118v-123h610v134q0 158 94 246t251 88q85 0 157 -27l-16 -93q-50 22 -135 22
q-46 0 -85.5 -12.5t-73 -39.5t-53 -77t-19.5 -118v-123h312v-106zM1640 0v960h120v-960h-120zM1699 1207q-33 0 -54 21t-21 54t21 54t54 21t54.5 -21t21.5 -54t-21.5 -54t-54.5 -21z" />
    <glyph glyph-name="ffl" unicode="ffl" horiz-adv-x="1930" 
d="M1401 854h-312v-854h-120v854h-610v-854h-120v854h-181v106h181v134q0 158 94 246t251 88q85 0 157 -27l-16 -93q-50 22 -135 22q-46 0 -85.5 -12.5t-73 -39.5t-53 -77t-19.5 -118v-123h610v134q0 158 94 246t251 88q85 0 157 -27l-16 -93q-50 22 -135 22
q-46 0 -85.5 -12.5t-73 -39.5t-53 -77t-19.5 -118v-123h312v-106zM1624 0v1408h120v-1408h-120z" />
    <glyph glyph-name="Th" unicode="Th" horiz-adv-x="2352" 
d="M1773 980q186 0 296.5 -102t110.5 -292v-586h-118v550q0 159 -78.5 238.5t-229.5 79.5q-139 0 -234 -91.5t-95 -232.5v-544h-120v1408h120v-615q55 93 148 140t200 47zM1080 1248h-461v-1248h-120v1248h-461v110h1042v-110z" />
    <glyph glyph-name="fj" unicode="fj" horiz-adv-x="1214" 
d="M671 854h-312v-854h-120v854h-181v106h181v134q0 158 94 246t251 88q85 0 157 -27l-16 -93q-50 22 -135 22q-46 0 -85.5 -12.5t-73 -39.5t-53 -77t-19.5 -118v-123h312v-106zM982 1207q-33 0 -54 21t-21 54t21 54t54 21t54.5 -21t21.5 -54t-21.5 -54t-54.5 -21zM923 -112
v1072h120v-1083q0 -140 -71.5 -218.5t-199.5 -78.5q-90 0 -143 25l15 103q52 -20 121 -20q78 0 118 51t40 149z" />
    <glyph glyph-name="ft" unicode="ft" horiz-adv-x="1456" 
d="M1386 854h-328v-557q0 -107 47.5 -158t126.5 -51q106 0 173 30l16 -103q-28 -14 -83 -24.5t-112 -10.5q-132 0 -210.5 73t-78.5 215v586h-578v-854h-120v854h-181v106h181v134q0 158 94 246t251 88q85 0 157 -27l-16 -93q-50 22 -135 22q-46 0 -85.5 -12.5t-73 -39.5
t-53 -77t-19.5 -118v-123h577v308h122v-308h328v-106z" />
    <glyph glyph-name=".notdef" horiz-adv-x="1418" 
d="M200 0v1358h1018v-1358h-1018zM467 1018l-97 -97l242 -240l-244 -245l97 -97l245 242l243 -242l97 97l-244 245l242 240l-97 97l-241 -242z" />
    <glyph glyph-name=".null" horiz-adv-x="0" 
 />
    <glyph glyph-name="nonmarkingreturn" horiz-adv-x="682" 
 />
    <glyph glyph-name="CR" unicode="&#xd;" horiz-adv-x="484" 
 />
    <glyph glyph-name="CR" horiz-adv-x="484" 
 />
    <glyph glyph-name="space" unicode=" " horiz-adv-x="484" 
 />
    <glyph glyph-name="exclam" unicode="!" horiz-adv-x="522" 
d="M210 368l-9 990h121l-10 -990h-102zM260 -7q-33 0 -54 21t-21 54t21 54t54 21t54.5 -21t21.5 -54t-21.5 -54t-54.5 -21z" />
    <glyph glyph-name="quotedbl" unicode="&#x22;" horiz-adv-x="615" 
d="M244 995h-83l-23 433h129zM454 995h-83l-23 433h129z" />
    <glyph glyph-name="numbersign" unicode="#" horiz-adv-x="1362" 
d="M101 472h256l79 444h-257l18 95h256l63 347h114l-62 -347h338l62 347h115l-62 -347h260l-18 -95h-259l-79 -444h259l-19 -96h-257l-67 -377h-116l67 377h-337l-67 -377h-116l67 377h-256zM551 916l-79 -444h337l80 444h-338z" />
    <glyph glyph-name="dollar" unicode="$" horiz-adv-x="1008" 
d="M458 -159l8 247q-174 6 -343 79l12 120q177 -86 358 -86q143 0 223.5 52t80.5 146q0 67 -46 113t-146 80l-204 64q-144 47 -219.5 118t-75.5 184q0 133 93.5 213.5t260.5 92.5l-8 251h120l-9 -249q149 -9 283 -62l-14 -110q-161 61 -309 61q-137 0 -214.5 -51.5
t-77.5 -142.5q0 -42 17.5 -74.5t52.5 -55t64.5 -35.5t76.5 -29l191 -60q157 -53 223 -126.5t66 -186.5q0 -130 -92.5 -209t-260.5 -94l9 -250h-120z" />
    <glyph glyph-name="percent" unicode="%" horiz-adv-x="1889" 
d="M49 1036q0 145 100 243.5t249 98.5t248.5 -98.5t99.5 -243.5t-99.5 -243t-248.5 -98t-249 98.5t-100 242.5zM157 1036q0 -102 68.5 -171.5t172.5 -69.5t172.5 69.5t68.5 171.5q0 103 -68.5 172.5t-172.5 69.5t-172.5 -69.5t-68.5 -172.5zM993 321q0 145 100 243.5
t249 98.5t248.5 -98.5t99.5 -243.5t-99.5 -243t-248.5 -98t-249 98.5t-100 242.5zM1101 321q0 -102 68.5 -171.5t172.5 -69.5t172.5 69.5t68.5 171.5q0 103 -68.5 172.5t-172.5 69.5t-172.5 -69.5t-68.5 -172.5zM452 0v26l734 1332h103v-24l-732 -1334h-105z" />
    <glyph glyph-name="ampersand" unicode="&#x26;" horiz-adv-x="1303" 
d="M978 1315l-19 -109q-51 24 -129 43t-158 19q-134 0 -217 -59.5t-83 -155.5q0 -81 30 -139.5t102 -132.5l499 -479q58 76 82.5 198t14.5 238h111q17 -305 -126 -513l228 -225h-160l-146 142q-25 -26 -57.5 -50.5t-82.5 -51.5t-120 -43.5t-149 -16.5q-214 0 -355 112
t-141 289q0 57 17 110t43.5 93t64 76t72.5 60t74 45q-57 63 -89 129.5t-32 152.5q0 146 117 238.5t303 92.5q170 0 306 -63zM937 221l-502 467q-213 -104 -213 -308q0 -127 107 -208.5t267 -81.5q207 0 341 131z" />
    <glyph glyph-name="quotesingle" unicode="'" horiz-adv-x="405" 
d="M244 995h-83l-23 433h129z" />
    <glyph glyph-name="parenleft" unicode="(" horiz-adv-x="559" 
d="M401 1560h127q-12 -18 -31 -51.5t-68 -139t-86.5 -214.5t-68 -267t-30.5 -308t29.5 -306t72 -271.5t85 -210t71.5 -143.5l30 -49h-130q-122 167 -205.5 436t-83.5 544q0 277 76 512.5t212 467.5z" />
    <glyph glyph-name="parenright" unicode=")" horiz-adv-x="561" 
d="M33 1560h127q136 -232 212 -467.5t76 -512.5q0 -275 -83.5 -544t-205.5 -436h-130q12 18 31.5 51t69 139t87.5 215t69 267t31 308q0 109 -15.5 222t-40.5 206.5t-55.5 181t-61 153.5t-55.5 115.5t-41 75.5z" />
    <glyph glyph-name="asterisk" unicode="*" horiz-adv-x="890" 
d="M500 1405l-14 -299l274 104l34 -104l-276 -76l-1 -4l187 -233l-89 -65l-170 259l-170 -259l-89 65l187 233l-1 4l-276 76l34 104l274 -104l-14 299h110z" />
    <glyph glyph-name="plus" unicode="+" horiz-adv-x="1235" 
d="M558 151v471h-473v119h473v464h117v-464h475v-119h-475v-471h-117z" />
    <glyph glyph-name="comma" unicode="," horiz-adv-x="422" 
d="M150 179h125l-125 -434h-106z" />
    <glyph glyph-name="hyphen" unicode="-" horiz-adv-x="980" 
d="M818 637v-119h-656v119h656z" />
    <glyph glyph-name="period" unicode="." horiz-adv-x="408" 
d="M204 -7q-33 0 -54 21t-21 54t21 54t54 21t54.5 -21t21.5 -54t-21.5 -54t-54.5 -21z" />
    <glyph glyph-name="slash" unicode="/" horiz-adv-x="1014" 
d="M964 1529l-786 -1929h-124l785 1929h125z" />
    <glyph glyph-name="zero" unicode="0" horiz-adv-x="1359" 
d="M679 -20q-256 0 -401 185.5t-145 513.5t145 513.5t401 185.5t401.5 -185.5t145.5 -513.5t-145.5 -513.5t-401.5 -185.5zM252 679q0 -276 113.5 -432t313.5 -156q201 0 314.5 156t113.5 432t-113.5 432.5t-314.5 156.5q-200 0 -313.5 -156.5t-113.5 -432.5z" />
    <glyph glyph-name="one" unicode="1" horiz-adv-x="693" 
d="M345 0v1247h-299v111h419v-1358h-120z" />
    <glyph glyph-name="two" unicode="2" horiz-adv-x="1094" 
d="M259 111h728v-110h-878v118l432 420q138 135 195.5 231t57.5 204q0 98 -46.5 165t-117.5 95.5t-160 28.5q-87 0 -175.5 -28t-157.5 -76l-18 115q169 102 371 102q89 0 165.5 -23.5t138.5 -70t97.5 -125t35.5 -180.5q0 -70 -21 -135t-64 -129t-91 -118.5t-121 -124.5z" />
    <glyph glyph-name="three" unicode="3" horiz-adv-x="1163" 
d="M315 760l469 487h-617v111h784v-89l-471 -482q36 4 78 4q216 0 350.5 -106.5t134.5 -288.5q0 -195 -141 -305.5t-391 -110.5q-248 0 -419 89l22 121q181 -90 389 -90q192 0 300 75t108 207q0 142 -102 222.5t-283 80.5q-108 0 -211 -30v105z" />
    <glyph glyph-name="four" unicode="4" horiz-adv-x="1145" 
d="M661 1358l-455 -904h552v382h119v-382h204v-109h-204v-346h-119v346h-687v99l454 914h136z" />
    <glyph glyph-name="five" unicode="5" horiz-adv-x="1135" 
d="M201 684l-27 36l68 638h710v-112h-618l-46 -434q83 29 207 29q236 0 381.5 -113t145.5 -307q0 -207 -136 -324t-375 -117q-238 0 -406 72l13 117q77 -36 179 -56.5t200 -20.5q186 0 291 83.5t105 230.5q0 153 -110 240t-304 87q-158 0 -278 -49z" />
    <glyph glyph-name="six" unicode="6" horiz-adv-x="1240" 
d="M647 91q163 0 263.5 90t100.5 238q0 149 -101 241.5t-263 92.5t-263 -92.5t-101 -241.5q0 -148 100.5 -238t263.5 -90zM721 1378q187 0 324 -65l-13 -107q-145 62 -308 62q-463 0 -477 -640q52 105 159 170.5t246 65.5q215 0 348.5 -121.5t133.5 -316.5
q0 -199 -133.5 -322.5t-348.5 -123.5q-251 0 -384.5 157t-133.5 451q0 210 42.5 364.5t122 246.5t184.5 135.5t238 43.5z" />
    <glyph glyph-name="seven" unicode="7" horiz-adv-x="939" 
d="M318 0h-130l561 1237h-682v121h818v-99z" />
    <glyph glyph-name="eight" unicode="8" horiz-adv-x="1269" 
d="M634 1380q129 0 234 -42t169.5 -126.5t64.5 -197.5q0 -108 -63 -184.5t-166 -118.5q119 -43 190 -129.5t71 -224.5q0 -117 -68 -203.5t-180.5 -129t-251.5 -42.5q-140 0 -252 42.5t-180 129t-68 203.5q0 260 260 354q-103 42 -165.5 118.5t-62.5 184.5q0 113 64 197.5
t169 126.5t235 42zM634 658q-107 0 -191 -31t-136 -99t-52 -164q0 -87 52 -150.5t136.5 -94.5t190.5 -31q162 0 270 73.5t108 202.5q0 143 -106.5 218.5t-271.5 75.5zM634 1274q-150 0 -247.5 -70t-97.5 -195q0 -112 99 -179.5t246 -67.5t246.5 68t99.5 179q0 125 -98.5 195
t-247.5 70z" />
    <glyph glyph-name="nine" unicode="9" horiz-adv-x="1240" 
d="M593 1267q-163 0 -263.5 -90t-100.5 -238q0 -149 101 -241.5t263 -92.5t263 92.5t101 241.5q0 148 -100.5 238t-263.5 90zM519 -20q-182 0 -314 65l13 107q141 -62 298 -62q236 0 351 151.5t126 488.5q-52 -105 -159 -170.5t-246 -65.5q-215 0 -348.5 121.5t-133.5 316.5
q0 199 133.5 322.5t348.5 123.5q242 0 380 -148t138 -430q0 -219 -40 -378t-117.5 -255.5t-183.5 -141.5t-246 -45z" />
    <glyph glyph-name="colon" unicode=":" horiz-adv-x="475" 
d="M237 -7q-33 0 -54 21t-21 54t21 54t54 21t54.5 -21t21.5 -54t-21.5 -54t-54.5 -21zM237 813q-33 0 -54 21t-21 54t21 54t54 21t54.5 -21t21.5 -54t-21.5 -54t-54.5 -21z" />
    <glyph glyph-name="semicolon" unicode=";" horiz-adv-x="484" 
d="M175 179h125l-125 -434h-106zM248 813q-33 0 -54 21t-21 54t21 54t54 21t54.5 -21t21.5 -54t-21.5 -54t-54.5 -21z" />
    <glyph glyph-name="less" unicode="&#x3c;" horiz-adv-x="1181" 
d="M1028 327v-129l-919 398v160l919 412v-128l-821 -362z" />
    <glyph glyph-name="equal" unicode="=" 
d="M1180 997v-123h-1010v123h1010zM1180 484v-123h-1010v123h1010z" />
    <glyph glyph-name="greater" unicode="&#x3e;" horiz-adv-x="1181" 
d="M153 198v129l821 351l-821 362v128l919 -412v-160z" />
    <glyph glyph-name="question" unicode="?" horiz-adv-x="886" 
d="M413 582l-9 -245h-110l-10 314q76 27 138.5 59t122 76t93 101.5t33.5 122.5q0 116 -74.5 184t-206.5 68q-154 0 -287 -81l-31 106q141 91 324 91q188 0 292.5 -102t104.5 -262q0 -141 -104 -254t-276 -178zM347 -7q-33 0 -54 21t-21 54t21 54t54 21t54.5 -21t21.5 -54
t-21.5 -54t-54.5 -21z" />
    <glyph glyph-name="at" unicode="@" horiz-adv-x="1969" 
d="M1366 928v-539q0 -106 45 -153t119 -47q97 0 150 111t53 283q0 148 -56 279.5t-152.5 226.5t-234.5 150.5t-295 55.5q-230 0 -406.5 -95.5t-273.5 -269.5t-97 -400q0 -160 59.5 -300.5t161.5 -240t244 -157t301 -57.5q211 0 419 104l24 -48t23 -47q-236 -126 -466 -126
q-178 0 -339.5 64.5t-281.5 178t-191 278t-71 353.5q0 194 72 359.5t194.5 278t287.5 176t349 63.5q170 0 326 -63.5t271.5 -172.5t184 -263t68.5 -327q0 -239 -93.5 -368.5t-263.5 -129.5q-84 0 -147.5 54t-103.5 147q-40 -77 -127.5 -126.5t-194.5 -49.5
q-173 0 -286.5 114.5t-113.5 301.5t114.5 303t285.5 116q187 0 317 -166l11 149h114zM1238 532q0 126 -84.5 212t-212.5 86q-130 0 -211 -85.5t-81 -212.5q0 -128 81.5 -217.5t210.5 -89.5q128 0 212.5 90t84.5 217z" />
    <glyph glyph-name="A" unicode="A" horiz-adv-x="1319" 
d="M741 1358l561 -1358h-122l-144 347h-748l-143 -347h-126l565 1358h157zM662 1250l-329 -796h659z" />
    <glyph glyph-name="B" unicode="B" horiz-adv-x="1425" 
d="M1190 375q0 122 -77 197.5t-230 75.5h-540v-540h540q137 0 222 68t85 199zM343 1252v-500h462q127 0 208.5 66t81.5 178q0 113 -71.5 184.5t-212.5 71.5h-468zM223 0v1358h584q183 0 297 -91t114 -269q0 -87 -43 -160t-128 -111q121 -33 192 -122t71 -229
q0 -168 -115 -272t-340 -104h-632z" />
    <glyph glyph-name="C" unicode="C" horiz-adv-x="1374" 
d="M1293 67q-7 -4 -19.5 -9.5t-54.5 -20.5t-87 -26.5t-114 -21t-139 -9.5q-224 0 -398 88t-270 247.5t-96 365.5q0 205 93.5 363.5t263 246t388.5 87.5q231 0 401 -84l-13 -112q-175 81 -390 81q-276 0 -447.5 -161t-171.5 -421q0 -261 177.5 -423.5t461.5 -162.5
q72 0 138.5 9t110.5 21.5t77.5 25.5t49.5 22l15 9z" />
    <glyph glyph-name="D" unicode="D" horiz-adv-x="1576" 
d="M223 1358h537q171 0 304 -50t218 -141t129 -214.5t44 -274.5q0 -323 -177.5 -500.5t-521.5 -177.5h-533v1358zM770 1245h-428v-1132h428q267 0 416 146t149 419q0 264 -150.5 415.5t-414.5 151.5z" />
    <glyph glyph-name="E" unicode="E" horiz-adv-x="1320" 
d="M1206 0h-983v1358h961v-108h-841v-497h736v-109h-736v-536h863v-108z" />
    <glyph glyph-name="F" unicode="F" horiz-adv-x="1215" 
d="M999 645h-656v-645h-120v1358h926v-108h-806v-498h656v-107z" />
    <glyph glyph-name="G" unicode="G" horiz-adv-x="1540" 
d="M1338 1277l-11 -117q-193 103 -445 103q-286 0 -464.5 -161t-178.5 -420q0 -263 183 -427t477 -164q247 0 379 77v457h-472v109h587v-636q-193 -118 -485 -118q-233 0 -413.5 88t-280 247.5t-99.5 365.5q0 205 96.5 363.5t272.5 246t402 87.5q249 0 452 -101z" />
    <glyph glyph-name="H" unicode="H" horiz-adv-x="1582" 
d="M1239 0v645h-896v-645h-120v1358h120v-603h896v603h120v-1358h-120z" />
    <glyph glyph-name="I" unicode="I" horiz-adv-x="566" 
d="M223 0v1358h120v-1358h-120z" />
    <glyph glyph-name="J" unicode="J" horiz-adv-x="1071" 
d="M45 57l26 107q147 -71 310 -71q177 0 269 76t92 247v832h-555v110h675v-952q0 -202 -123 -314t-351 -112q-77 0 -177.5 23.5t-165.5 53.5z" />
    <glyph glyph-name="K" unicode="K" horiz-adv-x="1307" 
d="M1228 1358l-419 -701l504 -657h-152l-457 600h-361v-600h-120v1358h120v-648h361l383 648h141z" />
    <glyph glyph-name="L" unicode="L" horiz-adv-x="1206" 
d="M1165 0h-942v1358h120v-1248h822v-110z" />
    <glyph glyph-name="M" unicode="M" horiz-adv-x="1874" 
d="M957 486h-34l-582 705v-1191h-118v1358h134l582 -708l579 708h133v-1358h-118v1192z" />
    <glyph glyph-name="N" unicode="N" horiz-adv-x="1683" 
d="M1460 1358v-1358h-135l-981 1193v-1193h-121v1358h136l980 -1190v1190h121z" />
    <glyph glyph-name="O" unicode="O" horiz-adv-x="1661" 
d="M115 672q0 202 93 363.5t255.5 252t363.5 90.5q204 0 368.5 -90.5t257.5 -252t93 -363.5q0 -150 -54.5 -279.5t-150 -220t-228.5 -142t-286 -51.5q-201 0 -363.5 87.5t-255.5 246.5t-93 359zM235 672q0 -168 77 -301.5t212.5 -207.5t302.5 -74q259 0 429 164t170 419
q0 259 -170 427.5t-429 168.5q-125 0 -235 -45t-188.5 -123t-123.5 -189t-45 -239z" />
    <glyph glyph-name="P" unicode="P" horiz-adv-x="1362" 
d="M808 436h-465v-436h-120v1358h585q98 0 182 -28.5t150 -84t104 -145.5t38 -206q0 -105 -38 -192.5t-103.5 -145t-151 -89t-181.5 -31.5zM343 1248v-702h465q148 0 251 95t103 253q0 88 -28.5 157t-77.5 111.5t-112 64t-136 21.5h-465z" />
    <glyph glyph-name="Q" unicode="Q" horiz-adv-x="1661" 
d="M115 672q0 150 54 281t148 224.5t226.5 147t283.5 53.5q205 0 369.5 -91t257 -252.5t92.5 -362.5q0 -268 -162.5 -455t-424.5 -228q96 -110 258 -177t325 -67q79 0 146 16l7 -109q-77 -17 -166 -17q-209 0 -404.5 94t-305.5 250q-202 2 -362.5 91.5t-251 247t-90.5 354.5
zM235 672q0 -253 167.5 -418t424.5 -165q172 0 309 75t213.5 208t76.5 300q0 258 -170 427t-429 169q-168 0 -303.5 -77t-212 -213.5t-76.5 -305.5z" />
    <glyph glyph-name="R" unicode="R" horiz-adv-x="1402" 
d="M808 436h-465v-436h-120v1358h585q98 0 182 -28.5t150 -84t104 -145.5t38 -206q0 -164 -88 -278.5t-231 -157.5l377 -458h-157l-350 437q-9 -1 -25 -1zM343 1248v-702h465q148 0 251 95t103 253q0 88 -28.5 157t-77.5 111.5t-112 64t-136 21.5h-465z" />
    <glyph glyph-name="S" unicode="S" horiz-adv-x="1154" 
d="M697 596l-241 82q-165 57 -249 133.5t-84 201.5q0 171 126 268t348 97q204 0 386 -74l-16 -107q-189 73 -367 73q-165 0 -258.5 -67.5t-93.5 -186.5q0 -40 14.5 -73t35 -54t57 -41t65 -31t75.5 -28l9 -3l227 -78q179 -63 251.5 -146t72.5 -213q0 -173 -129.5 -271
t-359.5 -98q-218 0 -441 93l14 119q99 -48 212.5 -75t212.5 -27q175 0 274 70.5t99 194.5q0 84 -54.5 139.5t-185.5 101.5z" />
    <glyph glyph-name="T" unicode="T" horiz-adv-x="1118" 
d="M1080 1248h-461v-1248h-120v1248h-461v110h1042v-110z" />
    <glyph glyph-name="U" unicode="U" horiz-adv-x="1590" 
d="M207 495v863h120v-863q0 -182 125.5 -292.5t341.5 -110.5q214 0 341.5 112t127.5 291v863h120v-863q0 -230 -160 -372.5t-429 -142.5q-272 0 -429.5 140.5t-157.5 374.5z" />
    <glyph glyph-name="V" unicode="V" horiz-adv-x="1333" 
d="M590 0l-565 1358h131l510 -1234l514 1234h128l-562 -1358h-156z" />
    <glyph glyph-name="W" unicode="W" horiz-adv-x="2032" 
d="M469 0l-425 1358h127l375 -1208l406 1208h128l406 -1207l375 1207h127l-425 -1358h-145l-403 1206l-401 -1206h-145z" />
    <glyph glyph-name="X" unicode="X" horiz-adv-x="1219" 
d="M1185 1358l-499 -662l523 -697h-148l-451 604l-454 -604h-144l522 697l-497 662h147l428 -568l429 568h144z" />
    <glyph glyph-name="Y" unicode="Y" horiz-adv-x="1226" 
d="M19 1358h142l452 -694l452 694h142l-534 -818v-540h-120v539z" />
    <glyph glyph-name="Z" unicode="Z" horiz-adv-x="1261" 
d="M107 100l888 1148h-868v110h1005v-133l-869 -1115h893v-110h-1049v100z" />
    <glyph glyph-name="bracketleft" unicode="[" horiz-adv-x="636" 
d="M583 -287v-113h-368v1953h368v-113h-253v-1727h253z" />
    <glyph glyph-name="backslash" unicode="\" horiz-adv-x="1014" 
d="M50 1529h125l785 -1929h-124z" />
    <glyph glyph-name="bracketright" unicode="]" horiz-adv-x="636" 
d="M53 -287h253v1727h-253v113h368v-1953h-368v113z" />
    <glyph glyph-name="asciicircum" unicode="^" horiz-adv-x="1150" 
d="M575 1238l-363 -728h-129l418 848h149l417 -848h-129z" />
    <glyph glyph-name="underscore" unicode="_" horiz-adv-x="1223" 
d="M1093 -194h-963v105h963v-105z" />
    <glyph glyph-name="grave" unicode="`" horiz-adv-x="660" 
d="M190 1807h138l142 -334h-107z" />
    <glyph glyph-name="a" unicode="a" horiz-adv-x="1295" 
d="M1109 960v-960h-120v185q-57 -91 -162 -148t-236 -57q-207 0 -346.5 144.5t-139.5 356.5q0 211 139.5 355t346.5 144q131 0 236 -56t162 -146v182h120zM599 870q-161 0 -268.5 -112t-107.5 -277q0 -166 107.5 -278.5t268.5 -112.5q169 0 282.5 112.5t113.5 278.5
q0 165 -113.5 277t-282.5 112z" />
    <glyph glyph-name="b" unicode="b" horiz-adv-x="1295" 
d="M306 0h-120v1408h120v-633q57 91 162 148t236 57q207 0 346.5 -144.5t139.5 -356.5q0 -211 -139.5 -355t-346.5 -144q-131 0 -236 56t-162 146v-182zM696 90q161 0 268.5 112t107.5 277q0 166 -107.5 278.5t-268.5 112.5q-169 0 -282.5 -112.5t-113.5 -278.5
q0 -165 113.5 -277t282.5 -112z" />
    <glyph glyph-name="c" unicode="c" horiz-adv-x="1033" 
d="M104 481q0 222 149 360.5t387 138.5q91 0 168 -19.5t120 -43.5l-13 -110q-111 59 -275 59q-184 0 -297.5 -106t-113.5 -279q0 -172 115 -279.5t299 -107.5q77 0 156 18t129 46l22 -111q-59 -30 -144 -48.5t-163 -18.5q-240 0 -389.5 139t-149.5 362z" />
    <glyph glyph-name="d" unicode="d" horiz-adv-x="1295" 
d="M989 0v182q-57 -90 -162 -146t-236 -56q-207 0 -346.5 144t-139.5 355q0 212 139.5 356.5t346.5 144.5q131 0 236 -57t162 -148v633h120v-1408h-120zM599 90q169 0 282.5 112t113.5 277q0 166 -113.5 278.5t-282.5 112.5q-161 0 -268.5 -112.5t-107.5 -278.5
q0 -165 107.5 -277t268.5 -112z" />
    <glyph glyph-name="e" unicode="e" horiz-adv-x="1169" 
d="M982 182l26 -107q-158 -95 -357 -95q-243 0 -395 139t-152 361q0 216 139 358t355 142q163 0 277.5 -78.5t159.5 -201.5t22 -264h-824q14 -157 134 -249.5t270 -92.5q99 0 178 17t167 71zM236 538h709q-7 145 -98.5 236.5t-244.5 91.5q-152 0 -253.5 -92t-112.5 -236z
" />
    <glyph glyph-name="f" unicode="f" horiz-adv-x="723" 
d="M671 854h-312v-854h-120v854h-181v106h181v134q0 158 94 246t251 88q85 0 157 -27l-16 -93q-50 22 -135 22q-46 0 -85.5 -12.5t-73 -39.5t-53 -77t-19.5 -118v-123h312v-106z" />
    <glyph glyph-name="g" unicode="g" horiz-adv-x="1295" 
d="M989 185q-57 -91 -162 -148t-236 -57q-207 0 -346.5 144.5t-139.5 356.5q0 211 139.5 355t346.5 144q131 0 236 -56t162 -146v182h120v-887q0 -81 -21 -154t-64.5 -135t-107.5 -107.5t-154.5 -71t-199.5 -25.5q-82 0 -187 20t-181 59l20 111q165 -81 351 -81
q121 0 214.5 38t151.5 122t58 205v131zM599 870q-161 0 -268.5 -112t-107.5 -277q0 -166 107.5 -278.5t268.5 -112.5q169 0 282.5 112.5t113.5 278.5q0 165 -113.5 277t-282.5 112z" />
    <glyph glyph-name="h" unicode="h" horiz-adv-x="1233" 
d="M654 980q186 0 296.5 -102t110.5 -292v-586h-118v550q0 159 -78.5 238.5t-229.5 79.5q-139 0 -234 -91.5t-95 -232.5v-544h-120v1408h120v-615q55 93 148 140t200 47z" />
    <glyph glyph-name="i" unicode="i" horiz-adv-x="492" 
d="M186 0v960h120v-960h-120zM246 1207q-33 0 -54 21t-21 54t21 54t54 21t54.5 -21t21.5 -54t-21.5 -54t-54.5 -21z" />
    <glyph glyph-name="j" unicode="j" horiz-adv-x="502" 
d="M256 1207q-33 0 -54 21t-21 54t21 54t54 21t54.5 -21t21.5 -54t-21.5 -54t-54.5 -21zM196 -112v1072h120v-1083q0 -140 -71.5 -218.5t-199.5 -78.5q-90 0 -143 25l15 103q52 -20 121 -20q78 0 118 51t40 149z" />
    <glyph glyph-name="k" unicode="k" horiz-adv-x="1035" 
d="M186 0v1408h120v-860h232l273 412h136l-317 -470l365 -490h-146l-324 443h-219v-443h-120z" />
    <glyph glyph-name="l" unicode="l" horiz-adv-x="492" 
d="M186 0v1408h120v-1408h-120z" />
    <glyph glyph-name="m" unicode="m" horiz-adv-x="1939" 
d="M1363 980q183 0 293.5 -105.5t110.5 -283.5v-591h-119v555q0 147 -80.5 230.5t-224.5 83.5q-131 0 -220 -90t-89 -230v-549h-119v555q0 146 -78 230t-214 84t-227 -90t-91 -230v-549h-119v960h119v-165q53 92 143.5 138.5t194.5 46.5q131 0 225 -59t136 -166
q51 113 147 169t212 56z" />
    <glyph glyph-name="n" unicode="n" horiz-adv-x="1233" 
d="M654 980q186 0 296.5 -102t110.5 -292v-586h-118v550q0 159 -78.5 238.5t-229.5 79.5q-139 0 -234 -91.5t-95 -232.5v-544h-120v960h120v-167q55 93 148 140t200 47z" />
    <glyph glyph-name="o" unicode="o" horiz-adv-x="1224" 
d="M102 480q0 212 146 356t364 144t364 -144t146 -356t-146 -356t-364 -144t-364 144t-146 356zM222 480q0 -165 111.5 -277.5t278.5 -112.5t278.5 112.5t111.5 277.5t-111.5 277.5t-278.5 112.5t-278.5 -112.5t-111.5 -277.5z" />
    <glyph glyph-name="p" unicode="p" horiz-adv-x="1295" 
d="M186 960h120v-182q57 90 162 146t236 56q207 0 346.5 -144t139.5 -355q0 -212 -139.5 -356.5t-346.5 -144.5q-131 0 -236 57t-162 148v-585h-120v1360zM696 870q-169 0 -282.5 -112t-113.5 -277q0 -166 113.5 -278.5t282.5 -112.5q161 0 268.5 112.5t107.5 278.5
q0 165 -107.5 277t-268.5 112z" />
    <glyph glyph-name="q" unicode="q" horiz-adv-x="1295" 
d="M1109 960v-1360h-120v585q-57 -91 -162 -148t-236 -57q-207 0 -346.5 144.5t-139.5 356.5q0 211 139.5 355t346.5 144q131 0 236 -56t162 -146v182h120zM599 870q-161 0 -268.5 -112t-107.5 -277q0 -166 107.5 -278.5t268.5 -112.5q169 0 282.5 112.5t113.5 278.5
q0 165 -113.5 277t-282.5 112z" />
    <glyph glyph-name="r" unicode="r" horiz-adv-x="750" 
d="M306 960v-153q39 86 109.5 129.5t158.5 43.5q83 0 141 -25l-12 -112q-68 26 -135 26q-116 0 -188.5 -85t-72.5 -241v-543h-121v960h120z" />
    <glyph glyph-name="s" unicode="s" horiz-adv-x="930" 
d="M464 543l89 -17q140 -27 212 -93t72 -166q0 -134 -98.5 -210.5t-273.5 -76.5q-201 0 -355 72l19 114q125 -76 327 -76q123 0 193 43.5t70 120.5q0 75 -60 112t-183 60l-107 20q-264 50 -264 247q0 134 101.5 210.5t279.5 76.5q173 0 293 -48l-20 -106q-125 47 -263 47
q-125 0 -196 -45t-71 -124q0 -31 11 -54.5t28.5 -39.5t49.5 -29t64 -21t82 -17z" />
    <glyph glyph-name="t" unicode="t" horiz-adv-x="752" 
d="M682 854h-328v-557q0 -107 47.5 -158t126.5 -51q106 0 173 30l16 -103q-28 -14 -83 -24.5t-112 -10.5q-132 0 -210.5 73t-78.5 215v586h-183v106h182v308h122v-308h328v-106z" />
    <glyph glyph-name="u" unicode="u" horiz-adv-x="1207" 
d="M919 409v551h118v-570q0 -182 -116.5 -296t-316.5 -114t-316.5 113t-116.5 291v576h118v-551q0 -155 84.5 -236t230.5 -81t230.5 81t84.5 236z" />
    <glyph glyph-name="v" unicode="v" horiz-adv-x="1050" 
d="M1009 960l-406 -960h-156l-406 960h128l356 -850l356 850h128z" />
    <glyph glyph-name="w" unicode="w" horiz-adv-x="1614" 
d="M743 950h128l296 -841l266 851h128l-316 -960h-156l-282 774l-282 -774h-156l-316 960h128l266 -850z" />
    <glyph glyph-name="x" unicode="x" horiz-adv-x="974" 
d="M928 959l-362 -463l374 -496h-147l-310 404l-307 -404h-142l374 495l-362 464h149l294 -377l296 377h143z" />
    <glyph glyph-name="y" unicode="y" horiz-adv-x="1025" 
d="M518 108l345 852h132l-446 -1082q-66 -155 -145.5 -226.5t-192.5 -71.5q-111 0 -169 32l16 105q64 -27 144 -27q135 0 236 236l13 34l-416 1000h128z" />
    <glyph glyph-name="z" unicode="z" horiz-adv-x="917" 
d="M106 0v103l549 751h-544v106h690v-103l-550 -751h576v-106h-721z" />
    <glyph glyph-name="braceleft" unicode="{" horiz-adv-x="607" 
d="M222 577q108 -46 108 -241v-399q0 -141 35.5 -194.5t128.5 -53.5q30 0 46 2v-102q-21 -3 -70 -3q-74 0 -124 23.5t-76.5 69t-37.5 100t-11 128.5v415q0 93 -29.5 140t-115.5 56q-20 2 -32 1v116q12 -1 32 1q86 9 115.5 56t29.5 140v415q0 74 11 128.5t37.5 100t76.5 69
t124 23.5q49 0 70 -3v-102q-16 2 -46 2q-93 0 -128.5 -53.5t-35.5 -194.5v-399q0 -195 -108 -241z" />
    <glyph glyph-name="bar" unicode="|" horiz-adv-x="543" 
d="M328 1758v-2158h-113v2158h113z" />
    <glyph glyph-name="braceright" unicode="}" horiz-adv-x="607" 
d="M372 577q-108 46 -108 241v399q0 141 -35.5 194.5t-128.5 53.5q-30 0 -46 -2v102q21 3 70 3q74 0 124 -23.5t76.5 -69t37.5 -100t11 -128.5v-415q0 -93 29.5 -140t115.5 -56q20 -2 32 -1v-116q-12 1 -32 -1q-86 -9 -115.5 -56t-29.5 -140v-415q0 -74 -11 -128.5
t-37.5 -100t-76.5 -69t-124 -23.5q-49 0 -70 3v102q16 -2 46 -2q93 0 128.5 53.5t35.5 194.5v399q0 195 108 241z" />
    <glyph glyph-name="asciitilde" unicode="~" horiz-adv-x="1218" 
d="M407 580q-91 0 -190 -99l-78 86q51 59 126.5 99.5t152.5 40.5q59 0 115 -17.5t93 -38t87 -38t98 -17.5q91 0 190 99l78 -86q-51 -59 -126.5 -99.5t-152.5 -40.5q-59 0 -115 17.5t-93 38t-87 38t-98 17.5z" />
    <glyph glyph-name="uni00A0" unicode="&#xa0;" horiz-adv-x="484" 
 />
    <glyph glyph-name="exclamdown" unicode="&#xa1;" horiz-adv-x="487" 
d="M190 592h102l10 -990h-121zM241 813q-33 0 -54 21t-21 54t21 54t54 21t54.5 -21t21.5 -54t-21.5 -54t-54.5 -21z" />
    <glyph glyph-name="cent" unicode="&#xa2;" horiz-adv-x="1045" 
d="M101 680q0 207 127.5 343.5t337.5 156.5l-9 221h121l-9 -219q78 -4 143 -22.5t102 -40.5l-13 -111q-107 60 -271 60q-181 0 -293.5 -106.5t-112.5 -281.5q0 -173 113.5 -281.5t295.5 -108.5q76 0 154 18t127 46l22 -112q-114 -58 -265 -66l9 -224h-121l9 226
q-211 20 -339 156.5t-128 345.5z" />
    <glyph glyph-name="sterling" unicode="&#xa3;" horiz-adv-x="1196" 
d="M344 648h-234v86h206q-49 114 -49 252q0 121 64.5 211t171 135t239.5 45q172 0 339 -78l-14 -108q-152 78 -315 78q-165 0 -264.5 -76t-99.5 -221q0 -127 50 -238h502v-87h-470q41 -87 41 -196q0 -100 -56 -193t-154 -155h795v-104h-954v105q117 63 186 149.5t69 183.5
q0 119 -53 211z" />
    <glyph glyph-name="currency" unicode="&#xa4;" horiz-adv-x="1238" 
d="M1000 656q0 -63 -19 -115t-60 -114l188 -183l-78 -74l-183 182q-111 -73 -232 -73q-118 0 -228 75l-185 -183l-74 73l186 182q-78 113 -78 230q0 65 18 116.5t57 109.5l-182 178l76 76l177 -176q118 77 233 77q120 0 239 -78l176 176l73 -75l-181 -177
q40 -52 58.5 -104.5t18.5 -122.5zM615 393q117 0 200 77t83 185q0 112 -82.5 191t-200.5 79q-115 0 -195.5 -79t-80.5 -191q0 -109 81 -185.5t195 -76.5z" />
    <glyph glyph-name="yen" unicode="&#xa5;" horiz-adv-x="1304" 
d="M58 1358h142l452 -694l452 694h142l-493 -756h319v-100h-360v-151h360v-100h-360v-251h-120v251h-343v100h343v151h-343v100h302z" />
    <glyph glyph-name="brokenbar" unicode="&#xa6;" horiz-adv-x="543" 
d="M328 1758v-848h-113v848h113zM328 449v-848h-113v848h113z" />
    <glyph glyph-name="section" unicode="&#xa7;" horiz-adv-x="1136" 
d="M1051 452q0 -89 -45.5 -165t-115.5 -132q70 -72 70 -179q0 -97 -57.5 -169t-151 -108t-207.5 -36q-103 0 -200.5 21t-162.5 50l16 104q164 -67 344 -67q150 0 222 57.5t72 144.5q0 23 -6 42.5t-13.5 34t-25 29.5t-29.5 24t-39.5 22t-43 19.5t-50.5 20.5l-282 115
q-136 56 -200 131t-64 178q0 89 45.5 164t114.5 132q-69 74 -69 180q0 97 56 169t147 108t203 36q101 0 195 -21t158 -50l-16 -104q-158 67 -334 67q-145 0 -214.5 -57.5t-69.5 -144.5q0 -23 6 -42.5t13.5 -34t25 -29.5t29.5 -24t39.5 -22t43 -19.5t50.5 -20.5l282 -115
q136 -56 200 -131t64 -178zM380 799q-27 10 -46 21q-127 -89 -127 -218q0 -80 43 -128.5t145 -94.5l358 -137l46 -21q127 88 127 218q0 80 -43 128.5t-145 94.5z" />
    <glyph glyph-name="dieresis" unicode="&#xa8;" horiz-adv-x="875" 
d="M262 1541q-33 0 -54 21t-21 54t21 54t54 21t54.5 -21t21.5 -54t-21.5 -54t-54.5 -21zM612 1541q-33 0 -54 21t-21 54t21 54t54 21t54.5 -21t21.5 -54t-21.5 -54t-54.5 -21z" />
    <glyph glyph-name="copyright" unicode="&#xa9;" horiz-adv-x="1680" 
d="M838 1378q143 0 276.5 -54t233 -145.5t159.5 -222.5t60 -276q0 -196 -101.5 -358t-268.5 -252t-359 -90q-144 0 -277 54t-232 146.5t-158.5 223.5t-59.5 276q0 146 60.5 276.5t160 222.5t232.5 145.5t274 53.5zM231 680q0 -163 83.5 -299.5t223 -213.5t300.5 -77t301 78
t224 214.5t84 297.5q0 121 -50 230.5t-132.5 188t-194.5 125t-232 46.5q-160 0 -299.5 -78t-223.5 -214.5t-84 -297.5zM425 681q0 177 118.5 287.5t308.5 110.5q72 0 133 -15.5t96 -34.5l-10 -110q-85 46 -219 46q-135 0 -218.5 -78t-83.5 -206q0 -127 84.5 -206t219.5 -79
q62 0 124.5 14t102.5 37l18 -112q-47 -24 -114.5 -38.5t-130.5 -14.5q-191 0 -310 110.5t-119 288.5z" />
    <glyph glyph-name="ordfeminine" unicode="&#xaa;" horiz-adv-x="879" 
d="M592 773v93q-29 -48 -85 -76.5t-125 -28.5q-90 0 -151 48t-61 127q0 85 72 132.5t193 47.5q82 0 150 -18v42q0 137 -175 137q-51 0 -105.5 -13t-89.5 -33l-15 98q38 22 98 35.5t119 13.5q144 0 212 -59.5t68 -178.5v-367h-105zM698 547h-502v101h502v-101zM398 852
q73 0 126 38t61 94v27q-76 18 -153 18q-71 0 -114.5 -23.5t-43.5 -66.5q0 -42 34.5 -64.5t89.5 -22.5z" />
    <glyph glyph-name="guillemotleft" unicode="&#xab;" horiz-adv-x="905" 
d="M498 86h-130l-272 394l272 395h130l-264 -395zM798 86h-130l-272 394l272 395h130l-264 -395z" />
    <glyph glyph-name="logicalnot" unicode="&#xac;" horiz-adv-x="1339" 
d="M1065 448v410h-950v120h1067v-530h-117z" />
    <glyph glyph-name="uni00AD" unicode="&#xad;" horiz-adv-x="891" 
d="M729 637v-119h-567v119h567z" />
    <glyph glyph-name="registered" unicode="&#xae;" horiz-adv-x="1270" 
d="M96 1047q0 143 70.5 261.5t193.5 186.5t272 68q229 0 386 -149.5t157 -366.5q0 -143 -71.5 -262t-196.5 -187.5t-275 -68.5q-226 0 -381 150t-155 368zM206 1047q0 -175 123.5 -294.5t302.5 -119.5q182 0 307.5 119.5t125.5 294.5t-125.5 295.5t-307.5 120.5
q-179 0 -302.5 -120.5t-123.5 -295.5zM517 945v-159h-107v528h240q87 0 144.5 -51.5t57.5 -132.5q0 -49 -26 -91.5t-69 -66.5l115 -186h-128l-93 159h-134zM661 1224h-144v-189h144q36 0 57.5 27.5t21.5 67.5q0 43 -22 68.5t-57 25.5z" />
    <glyph glyph-name="macron" unicode="&#xaf;" horiz-adv-x="972" 
d="M782 1562h-592v106h592v-106z" />
    <glyph glyph-name="degree" unicode="&#xb0;" horiz-adv-x="918" 
d="M105 1026q0 149 102 250.5t251 101.5q150 0 252.5 -101.5t102.5 -250.5q0 -147 -102.5 -247.5t-252.5 -100.5q-149 0 -251 100.5t-102 247.5zM219 1026q0 -102 69 -172t170 -70q100 0 168.5 70t68.5 172q0 104 -68.5 175t-168.5 71q-101 0 -170 -71.5t-69 -174.5z" />
    <glyph glyph-name="plusminus" unicode="&#xb1;" horiz-adv-x="1328" 
d="M605 457v394h-441v119h441v386h117v-386h443v-119h-443v-394h-117zM1180 185v-121h-1033v121h1033z" />
    <glyph glyph-name="twosuperior" unicode="&#xb2;" horiz-adv-x="730" 
d="M222 630h426v-95h-561v89l264 250q77 73 111 131t34 118q0 73 -47 115.5t-128 42.5q-96 0 -203 -59l-16 97q115 59 230 59q128 0 200.5 -68t72.5 -186q0 -75 -43 -149t-140 -162z" />
    <glyph glyph-name="threesuperior" unicode="&#xb3;" horiz-adv-x="756" 
d="M207 996l262 267h-350v95h503v-73l-260 -260h7q140 0 223.5 -71.5t83.5 -180.5q0 -88 -51 -149.5t-127 -87.5t-169 -26q-146 0 -256 61l17 105q130 -67 229 -67q116 0 180 43t64 113q0 85 -61.5 125.5t-151.5 40.5q-60 0 -143 -23v88z" />
    <glyph glyph-name="acute" unicode="&#xb4;" horiz-adv-x="660" 
d="M470 1807l-173 -334h-107l142 334h138z" />
    <glyph glyph-name="mu" unicode="&#xb5;" horiz-adv-x="1298" 
d="M617 -20q-206 0 -293 108v-488h-119v1360h119v-549q0 -317 312 -317q143 0 238.5 90.5t95.5 232.5v543h121v-960h-120v168q-54 -93 -150 -140.5t-204 -47.5z" />
    <glyph glyph-name="paragraph" unicode="&#xb6;" horiz-adv-x="1170" 
d="M73 962q0 175 119 285.5t299 110.5h540v-83h-307v-1675h-111v965h-122q-179 0 -298.5 110.5t-119.5 286.5zM966 -400h-96v1539h96v-1539z" />
    <glyph glyph-name="periodcentered" unicode="&#xb7;" horiz-adv-x="461" 
d="M231 360q-33 0 -54 21t-21 54t21 54t54 21t54.5 -21t21.5 -54t-21.5 -54t-54.5 -21z" />
    <glyph glyph-name="cedilla" unicode="&#xb8;" horiz-adv-x="699" 
d="M259 -183h-49l77 210h87l-44 -129q91 -7 146.5 -50t55.5 -112q0 -81 -64 -127t-177 -46q-75 0 -129 18v99q57 -19 119 -19q139 0 139 75q0 81 -161 81z" />
    <glyph glyph-name="onesuperior" unicode="&#xb9;" horiz-adv-x="482" 
d="M224 530v733h-179v95h286v-828h-107z" />
    <glyph glyph-name="ordmasculine" unicode="&#xba;" horiz-adv-x="962" 
d="M166 1069q0 130 91 219.5t224 89.5t224 -89.5t91 -219.5t-91 -219t-224 -89t-224 89t-91 219zM766 547h-570v101h570v-101zM272 1069q0 -86 60.5 -145t148.5 -59t148.5 59t60.5 145t-60.5 145.5t-148.5 59.5t-148.5 -59.5t-60.5 -145.5z" />
    <glyph glyph-name="guillemotright" unicode="&#xbb;" horiz-adv-x="905" 
d="M537 86h-130l264 394l-264 395h130l272 -395zM237 86h-130l264 394l-264 395h130l272 -395z" />
    <glyph glyph-name="onequarter" unicode="&#xbc;" horiz-adv-x="1518" 
d="M1241 828l-267 -528h286v228h107v-228h120v-95h-120v-205h-107v205h-411v77l271 546h121zM296 0v26l734 1332h103v-24l-732 -1334h-105zM248 530v733h-179v95h286v-828h-107z" />
    <glyph glyph-name="onehalf" unicode="&#xbd;" horiz-adv-x="1638" 
d="M296 0v26l734 1332h103v-24l-732 -1334h-105zM1130 95h426v-95h-561v89l264 250q77 74 111 132t34 117q0 73 -47 115.5t-128 42.5q-96 0 -203 -59l-16 97q115 59 230 59q128 0 200.5 -68t72.5 -186q0 -75 -43 -149t-140 -162zM248 530v733h-179v95h286v-828h-107z" />
    <glyph glyph-name="threequarters" unicode="&#xbe;" horiz-adv-x="1723" 
d="M463 0v26l734 1332h103v-24l-732 -1334h-105zM1407 828l-267 -528h286v228h107v-228h120v-95h-120v-205h-107v205h-411v77l271 546h121zM165 996l262 267h-350v95h503v-73l-260 -260h7q140 0 223.5 -71.5t83.5 -180.5q0 -88 -51 -149.5t-127 -87.5t-169 -26
q-146 0 -256 61l17 105q130 -67 229 -67q116 0 180 43t64 113q0 85 -61.5 125.5t-151.5 40.5q-60 0 -143 -23v88z" />
    <glyph glyph-name="questiondown" unicode="&#xbf;" horiz-adv-x="870" 
d="M465 378l9 245h110l10 -314q-76 -27 -138.5 -59t-122 -76t-93 -101.5t-33.5 -122.5q0 -116 74.5 -184t206.5 -68q154 0 287 81l31 -106q-141 -91 -324 -91q-188 0 -292.5 102t-104.5 262q0 141 104 254t276 178zM528 813q-33 0 -54 21t-21 54t21 54t54 21t54.5 -21
t21.5 -54t-21.5 -54t-54.5 -21z" />
    <glyph glyph-name="Agrave" unicode="&#xc0;" horiz-adv-x="1319" 
d="M741 1358l561 -1358h-122l-144 347h-748l-143 -347h-126l565 1358h157zM662 1250l-329 -796h659zM427 1807h138l142 -334h-107z" />
    <glyph glyph-name="Aacute" unicode="&#xc1;" horiz-adv-x="1319" 
d="M741 1358l561 -1358h-122l-144 347h-748l-143 -347h-126l565 1358h157zM662 1250l-329 -796h659zM892 1807l-173 -334h-107l142 334h138z" />
    <glyph glyph-name="Acircumflex" unicode="&#xc2;" horiz-adv-x="1319" 
d="M741 1358l561 -1358h-122l-144 347h-748l-143 -347h-126l565 1358h157zM662 1250l-329 -796h659zM698 1839l263 -368h-123l-174 256l-178 -256h-123l263 368h72z" />
    <glyph glyph-name="Atilde" unicode="&#xc3;" horiz-adv-x="1319" 
d="M741 1358l561 -1358h-122l-144 347h-748l-143 -347h-126l565 1358h157zM662 1250l-329 -796h659zM542 1627q-39 0 -67 -19.5t-63 -59.5l-68 56q90 125 199 125q56 0 137 -40.5t121 -40.5q39 0 67 19.5t63 59.5l68 -56q-90 -125 -194 -125q-56 0 -139.5 40.5t-123.5 40.5z
" />
    <glyph glyph-name="Adieresis" unicode="&#xc4;" horiz-adv-x="1319" 
d="M741 1358l561 -1358h-122l-144 347h-748l-143 -347h-126l565 1358h157zM662 1250l-329 -796h659zM486 1541q-33 0 -54 21t-21 54t21 54t54 21t54.5 -21t21.5 -54t-21.5 -54t-54.5 -21zM836 1541q-33 0 -54 21t-21 54t21 54t54 21t54.5 -21t21.5 -54t-21.5 -54t-54.5 -21z
" />
    <glyph glyph-name="Aring" unicode="&#xc5;" horiz-adv-x="1319" 
d="M741 1358l561 -1358h-122l-144 347h-748l-143 -347h-126l565 1358h157zM662 1250l-329 -796h659zM445 1693q0 88 63 148t155 60t155 -60t63 -148q0 -87 -63 -146.5t-155 -59.5t-155 59.5t-63 146.5zM544 1693q0 -51 33 -85t86 -34t86 34t33 85q0 52 -33 86.5t-86 34.5
t-86 -34.5t-33 -86.5z" />
    <glyph glyph-name="AE" unicode="&#xc6;" horiz-adv-x="1952" 
d="M875 0v347h-556l-213 -347h-139l835 1358h1014v-108h-821v-497h716v-109h-716v-536h843v-108h-963zM875 1250l-490 -796h490v796z" />
    <glyph glyph-name="Ccedilla" unicode="&#xc7;" horiz-adv-x="1374" 
d="M754 -183h-49l62 169q-295 32 -473.5 221t-178.5 474q0 205 93.5 363.5t263 246t388.5 87.5q231 0 401 -84l-13 -112q-175 81 -390 81q-276 0 -447.5 -161t-171.5 -421q0 -261 177.5 -423.5t461.5 -162.5q72 0 138.5 9t110.5 21.5t77.5 25.5t49.5 22l15 9l24 -115
q-7 -4 -19.5 -9.5t-54.5 -20.5t-87 -26.5t-114 -21t-139 -9.5q-5 0 -13.5 0.5t-12.5 0.5l-28 -83q91 -7 146.5 -50t55.5 -112q0 -81 -64 -127t-177 -46q-75 0 -129 18v99q57 -19 119 -19q139 0 139 75q0 81 -161 81z" />
    <glyph glyph-name="Egrave" unicode="&#xc8;" horiz-adv-x="1320" 
d="M1206 0h-983v1358h961v-108h-841v-497h736v-109h-736v-536h863v-108zM513 1807h138l142 -334h-107z" />
    <glyph glyph-name="Eacute" unicode="&#xc9;" horiz-adv-x="1320" 
d="M1206 0h-983v1358h961v-108h-841v-497h736v-109h-736v-536h863v-108zM958 1807l-173 -334h-107l142 334h138z" />
    <glyph glyph-name="Ecircumflex" unicode="&#xca;" horiz-adv-x="1320" 
d="M1206 0h-983v1358h961v-108h-841v-497h736v-109h-736v-536h863v-108zM767 1839l263 -368h-123l-174 256l-178 -256h-123l263 368h72z" />
    <glyph glyph-name="Edieresis" unicode="&#xcb;" horiz-adv-x="1320" 
d="M1206 0h-983v1358h961v-108h-841v-497h736v-109h-736v-536h863v-108zM543 1541q-33 0 -54 21t-21 54t21 54t54 21t54.5 -21t21.5 -54t-21.5 -54t-54.5 -21zM893 1541q-33 0 -54 21t-21 54t21 54t54 21t54.5 -21t21.5 -54t-21.5 -54t-54.5 -21z" />
    <glyph glyph-name="Igrave" unicode="&#xcc;" horiz-adv-x="566" 
d="M223 0v1358h120v-1358h-120zM41 1807h138l142 -334h-107z" />
    <glyph glyph-name="Iacute" unicode="&#xcd;" horiz-adv-x="566" 
d="M223 0v1358h120v-1358h-120zM516 1807l-173 -334h-107l142 334h138z" />
    <glyph glyph-name="Icircumflex" unicode="&#xce;" horiz-adv-x="566" 
d="M223 0v1358h120v-1358h-120zM325 1839l263 -368h-123l-174 256l-178 -256h-123l263 368h72z" />
    <glyph glyph-name="Idieresis" unicode="&#xcf;" horiz-adv-x="566" 
d="M223 0v1358h120v-1358h-120zM108 1541q-33 0 -54 21t-21 54t21 54t54 21t54.5 -21t21.5 -54t-21.5 -54t-54.5 -21zM458 1541q-33 0 -54 21t-21 54t21 54t54 21t54.5 -21t21.5 -54t-21.5 -54t-54.5 -21z" />
    <glyph glyph-name="Eth" unicode="&#xd0;" horiz-adv-x="1577" 
d="M224 1358h537q171 0 304 -50t218 -141t129 -214.5t44 -274.5q0 -323 -177.5 -500.5t-521.5 -177.5h-533v645h-153v104h153v609zM771 1245h-428v-496h545v-104h-545v-532h428q267 0 416 146t149 419q0 264 -150.5 415.5t-414.5 151.5z" />
    <glyph glyph-name="Ntilde" unicode="&#xd1;" horiz-adv-x="1683" 
d="M1460 1358v-1358h-135l-981 1193v-1193h-121v1358h136l980 -1190v1190h121zM724 1627q-39 0 -67 -19.5t-63 -59.5l-68 56q90 125 199 125q56 0 137 -40.5t121 -40.5q39 0 67 19.5t63 59.5l68 -56q-90 -125 -194 -125q-56 0 -139.5 40.5t-123.5 40.5z" />
    <glyph glyph-name="Ograve" unicode="&#xd2;" horiz-adv-x="1661" 
d="M115 672q0 202 93 363.5t255.5 252t363.5 90.5q204 0 368.5 -90.5t257.5 -252t93 -363.5q0 -150 -54.5 -279.5t-150 -220t-228.5 -142t-286 -51.5q-201 0 -363.5 87.5t-255.5 246.5t-93 359zM235 672q0 -168 77 -301.5t212.5 -207.5t302.5 -74q259 0 429 164t170 419
q0 259 -170 427.5t-429 168.5q-125 0 -235 -45t-188.5 -123t-123.5 -189t-45 -239zM600 1807h138l142 -334h-107z" />
    <glyph glyph-name="Oacute" unicode="&#xd3;" horiz-adv-x="1661" 
d="M115 672q0 202 93 363.5t255.5 252t363.5 90.5q204 0 368.5 -90.5t257.5 -252t93 -363.5q0 -150 -54.5 -279.5t-150 -220t-228.5 -142t-286 -51.5q-201 0 -363.5 87.5t-255.5 246.5t-93 359zM235 672q0 -168 77 -301.5t212.5 -207.5t302.5 -74q259 0 429 164t170 419
q0 259 -170 427.5t-429 168.5q-125 0 -235 -45t-188.5 -123t-123.5 -189t-45 -239zM1075 1807l-173 -334h-107l142 334h138z" />
    <glyph glyph-name="Ocircumflex" unicode="&#xd4;" horiz-adv-x="1661" 
d="M115 672q0 202 93 363.5t255.5 252t363.5 90.5q204 0 368.5 -90.5t257.5 -252t93 -363.5q0 -150 -54.5 -279.5t-150 -220t-228.5 -142t-286 -51.5q-201 0 -363.5 87.5t-255.5 246.5t-93 359zM235 672q0 -168 77 -301.5t212.5 -207.5t302.5 -74q259 0 429 164t170 419
q0 259 -170 427.5t-429 168.5q-125 0 -235 -45t-188.5 -123t-123.5 -189t-45 -239zM872 1839l263 -368h-123l-174 256l-178 -256h-123l263 368h72z" />
    <glyph glyph-name="Otilde" unicode="&#xd5;" horiz-adv-x="1661" 
d="M115 672q0 202 93 363.5t255.5 252t363.5 90.5q204 0 368.5 -90.5t257.5 -252t93 -363.5q0 -150 -54.5 -279.5t-150 -220t-228.5 -142t-286 -51.5q-201 0 -363.5 87.5t-255.5 246.5t-93 359zM235 672q0 -168 77 -301.5t212.5 -207.5t302.5 -74q259 0 429 164t170 419
q0 259 -170 427.5t-429 168.5q-125 0 -235 -45t-188.5 -123t-123.5 -189t-45 -239zM708 1627q-39 0 -67 -19.5t-63 -59.5l-68 56q90 125 199 125q56 0 137 -40.5t121 -40.5q39 0 67 19.5t63 59.5l68 -56q-90 -125 -194 -125q-56 0 -139.5 40.5t-123.5 40.5z" />
    <glyph glyph-name="Odieresis" unicode="&#xd6;" horiz-adv-x="1661" 
d="M115 672q0 202 93 363.5t255.5 252t363.5 90.5q204 0 368.5 -90.5t257.5 -252t93 -363.5q0 -150 -54.5 -279.5t-150 -220t-228.5 -142t-286 -51.5q-201 0 -363.5 87.5t-255.5 246.5t-93 359zM235 672q0 -168 77 -301.5t212.5 -207.5t302.5 -74q259 0 429 164t170 419
q0 259 -170 427.5t-429 168.5q-125 0 -235 -45t-188.5 -123t-123.5 -189t-45 -239zM660 1541q-33 0 -54 21t-21 54t21 54t54 21t54.5 -21t21.5 -54t-21.5 -54t-54.5 -21zM1010 1541q-33 0 -54 21t-21 54t21 54t54 21t54.5 -21t21.5 -54t-21.5 -54t-54.5 -21z" />
    <glyph glyph-name="multiply" unicode="&#xd7;" horiz-adv-x="1228" 
d="M1103 1069l-407 -407l407 -407l-82 -82l-407 407l-407 -407l-82 82l407 407l-407 407l82 82l407 -407l407 407z" />
    <glyph glyph-name="Oslash" unicode="&#xd8;" horiz-adv-x="1662" 
d="M116 672q0 202 93 363.5t255.5 252t363.5 90.5t367 -91l115 165l88 -68l-110 -158q122 -96 190.5 -239.5t68.5 -314.5q0 -150 -54.5 -279.5t-150 -220t-228.5 -142t-286 -51.5q-194 0 -352 82l-117 -167l-85 69l109 156q-126 94 -196.5 237t-70.5 316zM236 672
q0 -143 56 -261t157 -197l681 980q-137 74 -302 74q-254 0 -423 -169t-169 -427zM1427 672q0 141 -54 259.5t-151 199.5l-681 -976q132 -66 287 -66q259 0 429 164t170 419z" />
    <glyph glyph-name="Ugrave" unicode="&#xd9;" horiz-adv-x="1590" 
d="M207 495v863h120v-863q0 -182 125.5 -292.5t341.5 -110.5q214 0 341.5 112t127.5 291v863h120v-863q0 -230 -160 -372.5t-429 -142.5q-272 0 -429.5 140.5t-157.5 374.5zM579 1807h138l142 -334h-107z" />
    <glyph glyph-name="Uacute" unicode="&#xda;" horiz-adv-x="1590" 
d="M207 495v863h120v-863q0 -182 125.5 -292.5t341.5 -110.5q214 0 341.5 112t127.5 291v863h120v-863q0 -230 -160 -372.5t-429 -142.5q-272 0 -429.5 140.5t-157.5 374.5zM1004 1807l-173 -334h-107l142 334h138z" />
    <glyph glyph-name="Ucircumflex" unicode="&#xdb;" horiz-adv-x="1590" 
d="M207 495v863h120v-863q0 -182 125.5 -292.5t341.5 -110.5q214 0 341.5 112t127.5 291v863h120v-863q0 -230 -160 -372.5t-429 -142.5q-272 0 -429.5 140.5t-157.5 374.5zM833 1839l263 -368h-123l-174 256l-178 -256h-123l263 368h72z" />
    <glyph glyph-name="Udieresis" unicode="&#xdc;" horiz-adv-x="1590" 
d="M207 495v863h120v-863q0 -182 125.5 -292.5t341.5 -110.5q214 0 341.5 112t127.5 291v863h120v-863q0 -230 -160 -372.5t-429 -142.5q-272 0 -429.5 140.5t-157.5 374.5zM969 1541q-33 0 -54 21t-21 54t21 54t54 21t54.5 -21t21.5 -54t-21.5 -54t-54.5 -21zM619 1541
q-33 0 -54 21t-21 54t21 54t54 21t54.5 -21t21.5 -54t-21.5 -54t-54.5 -21z" />
    <glyph glyph-name="Yacute" unicode="&#xdd;" horiz-adv-x="1226" 
d="M19 1358h142l452 -694l452 694h142l-534 -818v-540h-120v539zM847 1807l-173 -334h-107l142 334h138z" />
    <glyph glyph-name="Thorn" unicode="&#xde;" horiz-adv-x="1357" 
d="M223 1358h121v-217h430q74 0 142.5 -17t129.5 -54t106 -90t71.5 -130t26.5 -169q0 -138 -65 -242.5t-172 -158t-239 -53.5h-430v-227h-121v1358zM750 1029h-406v-692h406q177 0 279 91.5t102 250.5q0 172 -99.5 261t-281.5 89z" />
    <glyph glyph-name="germandbls" unicode="&#xdf;" horiz-adv-x="1295" 
d="M636 653v119q70 0 145 40t126.5 108t51.5 139q0 120 -87 190t-245 70q-67 0 -123 -21.5t-101.5 -66t-71 -121.5t-25.5 -179v-931h-120v938q0 109 25.5 196.5t79 154.5t142 103t207.5 36q208 0 325 -97.5t117 -269.5q0 -108 -66.5 -198.5t-175.5 -119.5q167 -23 260 -125
t93 -257q-1 -173 -124.5 -277t-335.5 -104q-54 0 -110.5 9t-86.5 18l-29 9l14 115q95 -42 207 -42q92 0 167 28.5t123.5 92.5t48.5 154q0 137 -91.5 213t-252.5 76h-87z" />
    <glyph glyph-name="agrave" unicode="&#xe0;" horiz-adv-x="1295" 
d="M1109 960v-960h-120v185q-57 -91 -162 -148t-236 -57q-207 0 -346.5 144.5t-139.5 356.5q0 211 139.5 355t346.5 144q131 0 236 -56t162 -146v182h120zM599 870q-161 0 -268.5 -112t-107.5 -277q0 -166 107.5 -278.5t268.5 -112.5q169 0 282.5 112.5t113.5 278.5
q0 165 -113.5 277t-282.5 112zM363 1449h138l142 -334h-107z" />
    <glyph glyph-name="aacute" unicode="&#xe1;" horiz-adv-x="1295" 
d="M1109 960v-960h-120v185q-57 -91 -162 -148t-236 -57q-207 0 -346.5 144.5t-139.5 356.5q0 211 139.5 355t346.5 144q131 0 236 -56t162 -146v182h120zM599 870q-161 0 -268.5 -112t-107.5 -277q0 -166 107.5 -278.5t268.5 -112.5q169 0 282.5 112.5t113.5 278.5
q0 165 -113.5 277t-282.5 112zM858 1449l-173 -334h-107l142 334h138z" />
    <glyph glyph-name="acircumflex" unicode="&#xe2;" horiz-adv-x="1295" 
d="M1109 960v-960h-120v185q-57 -91 -162 -148t-236 -57q-207 0 -346.5 144.5t-139.5 356.5q0 211 139.5 355t346.5 144q131 0 236 -56t162 -146v182h120zM599 870q-161 0 -268.5 -112t-107.5 -277q0 -166 107.5 -278.5t268.5 -112.5q169 0 282.5 112.5t113.5 278.5
q0 165 -113.5 277t-282.5 112zM627 1454l263 -368h-123l-174 256l-178 -256h-123l263 368h72z" />
    <glyph glyph-name="atilde" unicode="&#xe3;" horiz-adv-x="1295" 
d="M1109 960v-960h-120v185q-57 -91 -162 -148t-236 -57q-207 0 -346.5 144.5t-139.5 356.5q0 211 139.5 355t346.5 144q131 0 236 -56t162 -146v182h120zM599 870q-161 0 -268.5 -112t-107.5 -277q0 -166 107.5 -278.5t268.5 -112.5q169 0 282.5 112.5t113.5 278.5
q0 165 -113.5 277t-282.5 112zM482 1271q-39 0 -67 -19.5t-63 -59.5l-68 56q90 125 199 125q56 0 137 -40.5t121 -40.5q39 0 67 19.5t63 59.5l68 -56q-90 -125 -194 -125q-56 0 -139.5 40.5t-123.5 40.5z" />
    <glyph glyph-name="adieresis" unicode="&#xe4;" horiz-adv-x="1295" 
d="M1109 960v-960h-120v185q-57 -91 -162 -148t-236 -57q-207 0 -346.5 144.5t-139.5 356.5q0 211 139.5 355t346.5 144q131 0 236 -56t162 -146v182h120zM599 870q-161 0 -268.5 -112t-107.5 -277q0 -166 107.5 -278.5t268.5 -112.5q169 0 282.5 112.5t113.5 278.5
q0 165 -113.5 277t-282.5 112zM413 1207q-33 0 -54 21t-21 54t21 54t54 21t54.5 -21t21.5 -54t-21.5 -54t-54.5 -21zM763 1207q-33 0 -54 21t-21 54t21 54t54 21t54.5 -21t21.5 -54t-21.5 -54t-54.5 -21z" />
    <glyph glyph-name="aring" unicode="&#xe5;" horiz-adv-x="1295" 
d="M1109 960v-960h-120v185q-57 -91 -162 -148t-236 -57q-207 0 -346.5 144.5t-139.5 356.5q0 211 139.5 355t346.5 144q131 0 236 -56t162 -146v182h120zM599 870q-161 0 -268.5 -112t-107.5 -277q0 -166 107.5 -278.5t268.5 -112.5q169 0 282.5 112.5t113.5 278.5
q0 165 -113.5 277t-282.5 112zM373 1292q0 88 63 148t155 60t155 -60t63 -148q0 -87 -63 -146.5t-155 -59.5t-155 59.5t-63 146.5zM472 1292q0 -51 33 -85t86 -34t86 34t33 85q0 52 -33 86.5t-86 34.5t-86 -34.5t-33 -86.5z" />
    <glyph glyph-name="ae" unicode="&#xe6;" horiz-adv-x="1807" 
d="M1621 182l26 -107q-141 -95 -317 -95q-153 0 -270.5 67.5t-178.5 187.5q-49 -117 -169.5 -186t-262.5 -69q-155 0 -249 74t-94 202q0 138 118 216.5t312 78.5q147 0 294 -35v78q0 129 -84 200.5t-245 71.5q-77 0 -166.5 -20.5t-153.5 -52.5l-13 110q70 34 164 55.5
t175 21.5q147 0 249 -51t151 -145q61 92 157 143.5t213 51.5q149 0 253.5 -76.5t145.5 -197t20 -259.5h-744q9 -109 65 -191t134.5 -121.5t164.5 -39.5q88 0 157.5 17t147.5 71zM453 79q139 0 246 81t131 192v73q-145 32 -299 32q-139 0 -222 -50.5t-83 -143.5
q0 -85 62 -134.5t165 -49.5zM955 548h629q-6 141 -87 231t-216 90t-225.5 -91t-100.5 -230z" />
    <glyph glyph-name="ccedilla" unicode="&#xe7;" horiz-adv-x="1033" 
d="M529 -183h-49l62 170q-199 29 -318.5 162.5t-119.5 331.5q0 222 149 360.5t387 138.5q91 0 168 -19.5t120 -43.5l-13 -110q-111 59 -275 59q-184 0 -297.5 -106t-113.5 -279q0 -172 115 -279.5t299 -107.5q77 0 156 18t129 46l22 -111q-59 -30 -144 -48.5t-163 -18.5
q-2 0 -7.5 0.5t-7.5 0.5l-28 -83q91 -7 146.5 -50t55.5 -112q0 -81 -64 -127t-177 -46q-75 0 -129 18v99q57 -19 119 -19q139 0 139 75q0 81 -161 81z" />
    <glyph glyph-name="egrave" unicode="&#xe8;" horiz-adv-x="1169" 
d="M982 182l26 -107q-158 -95 -357 -95q-243 0 -395 139t-152 361q0 216 139 358t355 142q163 0 277.5 -78.5t159.5 -201.5t22 -264h-824q14 -157 134 -249.5t270 -92.5q99 0 178 17t167 71zM236 538h709q-7 145 -98.5 236.5t-244.5 91.5q-152 0 -253.5 -92t-112.5 -236z
M377 1449h138l142 -334h-107z" />
    <glyph glyph-name="eacute" unicode="&#xe9;" horiz-adv-x="1169" 
d="M982 182l26 -107q-158 -95 -357 -95q-243 0 -395 139t-152 361q0 216 139 358t355 142q163 0 277.5 -78.5t159.5 -201.5t22 -264h-824q14 -157 134 -249.5t270 -92.5q99 0 178 17t167 71zM236 538h709q-7 145 -98.5 236.5t-244.5 91.5q-152 0 -253.5 -92t-112.5 -236z
M822 1449l-173 -334h-107l142 334h138z" />
    <glyph glyph-name="ecircumflex" unicode="&#xea;" horiz-adv-x="1169" 
d="M982 182l26 -107q-158 -95 -357 -95q-243 0 -395 139t-152 361q0 216 139 358t355 142q163 0 277.5 -78.5t159.5 -201.5t22 -264h-824q14 -157 134 -249.5t270 -92.5q99 0 178 17t167 71zM236 538h709q-7 145 -98.5 236.5t-244.5 91.5q-152 0 -253.5 -92t-112.5 -236z
M631 1454l263 -368h-123l-174 256l-178 -256h-123l263 368h72z" />
    <glyph glyph-name="edieresis" unicode="&#xeb;" horiz-adv-x="1169" 
d="M982 182l26 -107q-158 -95 -357 -95q-243 0 -395 139t-152 361q0 216 139 358t355 142q163 0 277.5 -78.5t159.5 -201.5t22 -264h-824q14 -157 134 -249.5t270 -92.5q99 0 178 17t167 71zM236 538h709q-7 145 -98.5 236.5t-244.5 91.5q-152 0 -253.5 -92t-112.5 -236z
M429 1205q-33 0 -54 21t-21 54t21 54t54 21t54.5 -21t21.5 -54t-21.5 -54t-54.5 -21zM779 1205q-33 0 -54 21t-21 54t21 54t54 21t54.5 -21t21.5 -54t-21.5 -54t-54.5 -21z" />
    <glyph glyph-name="igrave" unicode="&#xec;" horiz-adv-x="492" 
d="M186 0v960h120v-960h-120zM13 1449h138l142 -334h-107z" />
    <glyph glyph-name="iacute" unicode="&#xed;" horiz-adv-x="492" 
d="M186 0v960h120v-960h-120zM472 1449l-173 -334h-107l142 334h138z" />
    <glyph glyph-name="icircumflex" unicode="&#xee;" horiz-adv-x="492" 
d="M186 0v960h120v-960h-120zM281 1456l263 -368h-123l-174 256l-178 -256h-123l263 368h72z" />
    <glyph glyph-name="idieresis" unicode="&#xef;" horiz-adv-x="492" 
d="M186 0v960h120v-960h-120zM71 1207q-33 0 -54 21t-21 54t21 54t54 21t54.5 -21t21.5 -54t-21.5 -54t-54.5 -21zM421 1207q-33 0 -54 21t-21 54t21 54t54 21t54.5 -21t21.5 -54t-21.5 -54t-54.5 -21z" />
    <glyph glyph-name="eth" unicode="&#xf0;" horiz-adv-x="1188" 
d="M909 1411l-169 -126q155 -136 239.5 -328.5t84.5 -420.5q0 -260 -133 -408t-345 -148q-213 0 -346 130t-133 339q0 203 128.5 330t334.5 127q126 0 217.5 -50.5t143.5 -128.5q-27 137 -96.5 265t-184.5 226l-262 -195l-62 87l235 174q-93 62 -213 102l59 94
q134 -48 247 -127l197 146zM579 796q-157 0 -254.5 -96t-97.5 -251q0 -160 97.5 -259.5t254.5 -99.5t254.5 99.5t97.5 259.5q0 155 -97.5 251t-254.5 96z" />
    <glyph glyph-name="ntilde" unicode="&#xf1;" horiz-adv-x="1233" 
d="M654 980q186 0 296.5 -102t110.5 -292v-586h-118v550q0 159 -78.5 238.5t-229.5 79.5q-139 0 -234 -91.5t-95 -232.5v-544h-120v960h120v-167q55 93 148 140t200 47zM509 1272q-39 0 -67 -19.5t-63 -59.5l-68 56q90 125 199 125q56 0 137 -40.5t121 -40.5q39 0 67 19.5
t63 59.5l68 -56q-90 -125 -194 -125q-56 0 -139.5 40.5t-123.5 40.5z" />
    <glyph glyph-name="ograve" unicode="&#xf2;" horiz-adv-x="1224" 
d="M102 480q0 212 146 356t364 144t364 -144t146 -356t-146 -356t-364 -144t-364 144t-146 356zM222 480q0 -165 111.5 -277.5t278.5 -112.5t278.5 112.5t111.5 277.5t-111.5 277.5t-278.5 112.5t-278.5 -112.5t-111.5 -277.5zM387 1449h138l142 -334h-107z" />
    <glyph glyph-name="oacute" unicode="&#xf3;" horiz-adv-x="1224" 
d="M102 480q0 212 146 356t364 144t364 -144t146 -356t-146 -356t-364 -144t-364 144t-146 356zM222 480q0 -165 111.5 -277.5t278.5 -112.5t278.5 112.5t111.5 277.5t-111.5 277.5t-278.5 112.5t-278.5 -112.5t-111.5 -277.5zM852 1449l-173 -334h-107l142 334h138z" />
    <glyph glyph-name="ocircumflex" unicode="&#xf4;" horiz-adv-x="1224" 
d="M102 480q0 212 146 356t364 144t364 -144t146 -356t-146 -356t-364 -144t-364 144t-146 356zM222 480q0 -165 111.5 -277.5t278.5 -112.5t278.5 112.5t111.5 277.5t-111.5 277.5t-278.5 112.5t-278.5 -112.5t-111.5 -277.5zM646 1454l263 -368h-123l-174 256l-178 -256
h-123l263 368h72z" />
    <glyph glyph-name="otilde" unicode="&#xf5;" horiz-adv-x="1224" 
d="M102 480q0 212 146 356t364 144t364 -144t146 -356t-146 -356t-364 -144t-364 144t-146 356zM222 480q0 -165 111.5 -277.5t278.5 -112.5t278.5 112.5t111.5 277.5t-111.5 277.5t-278.5 112.5t-278.5 -112.5t-111.5 -277.5zM483 1271q-39 0 -67 -19.5t-63 -59.5l-68 56
q90 125 199 125q56 0 137 -40.5t121 -40.5q39 0 67 19.5t63 59.5l68 -56q-90 -125 -194 -125q-56 0 -139.5 40.5t-123.5 40.5z" />
    <glyph glyph-name="odieresis" unicode="&#xf6;" horiz-adv-x="1224" 
d="M102 480q0 212 146 356t364 144t364 -144t146 -356t-146 -356t-364 -144t-364 144t-146 356zM222 480q0 -165 111.5 -277.5t278.5 -112.5t278.5 112.5t111.5 277.5t-111.5 277.5t-278.5 112.5t-278.5 -112.5t-111.5 -277.5zM437 1206q-33 0 -54 21t-21 54t21 54t54 21
t54.5 -21t21.5 -54t-21.5 -54t-54.5 -21zM787 1206q-33 0 -54 21t-21 54t21 54t54 21t54.5 -21t21.5 -54t-21.5 -54t-54.5 -21z" />
    <glyph glyph-name="divide" unicode="&#xf7;" horiz-adv-x="1224" 
d="M1100 739v-119h-976v119h976zM615 992q-33 0 -54 21t-21 54t21 54t54 21t54.5 -21t21.5 -54t-21.5 -54t-54.5 -21zM615 218q-33 0 -54 21t-21 54t21 54t54 21t54.5 -21t21.5 -54t-21.5 -54t-54.5 -21z" />
    <glyph glyph-name="oslash" unicode="&#xf8;" horiz-adv-x="1137" 
d="M59 480q0 212 146 356t364 144q155 0 281 -79l145 180l79 -64l-145 -178q71 -68 110.5 -161t39.5 -198q0 -212 -146 -356t-364 -144q-153 0 -276 75l-139 -171l-76 60l137 170q-74 69 -115 163.5t-41 202.5zM179 480q0 -163 109 -275l490 607q-92 58 -209 58
q-167 0 -278.5 -112.5t-111.5 -277.5zM959 480q0 157 -103 268l-491 -604q94 -54 204 -54q167 0 278.5 112.5t111.5 277.5z" />
    <glyph glyph-name="ugrave" unicode="&#xf9;" horiz-adv-x="1207" 
d="M919 409v551h118v-570q0 -182 -116.5 -296t-316.5 -114t-316.5 113t-116.5 291v576h118v-551q0 -155 84.5 -236t230.5 -81t230.5 81t84.5 236zM367 1449h138l142 -334h-107z" />
    <glyph glyph-name="uacute" unicode="&#xfa;" horiz-adv-x="1207" 
d="M919 409v551h118v-570q0 -182 -116.5 -296t-316.5 -114t-316.5 113t-116.5 291v576h118v-551q0 -155 84.5 -236t230.5 -81t230.5 81t84.5 236zM812 1449l-173 -334h-107l142 334h138z" />
    <glyph glyph-name="ucircumflex" unicode="&#xfb;" horiz-adv-x="1207" 
d="M919 409v551h118v-570q0 -182 -116.5 -296t-316.5 -114t-316.5 113t-116.5 291v576h118v-551q0 -155 84.5 -236t230.5 -81t230.5 81t84.5 236zM641 1455l263 -368h-123l-174 256l-178 -256h-123l263 368h72z" />
    <glyph glyph-name="udieresis" unicode="&#xfc;" horiz-adv-x="1207" 
d="M919 409v551h118v-570q0 -182 -116.5 -296t-316.5 -114t-316.5 113t-116.5 291v576h118v-551q0 -155 84.5 -236t230.5 -81t230.5 81t84.5 236zM427 1206q-33 0 -54 21t-21 54t21 54t54 21t54.5 -21t21.5 -54t-21.5 -54t-54.5 -21zM777 1206q-33 0 -54 21t-21 54t21 54
t54 21t54.5 -21t21.5 -54t-21.5 -54t-54.5 -21z" />
    <glyph glyph-name="yacute" unicode="&#xfd;" horiz-adv-x="1025" 
d="M518 108l345 852h132l-446 -1082q-66 -155 -145.5 -226.5t-192.5 -71.5q-111 0 -169 32l16 105q64 -27 144 -27q135 0 236 236l13 34l-416 1000h128zM733 1449l-173 -334h-107l142 334h138z" />
    <glyph glyph-name="thorn" unicode="&#xfe;" horiz-adv-x="1295" 
d="M186 1408h120v-630q57 90 162 146t236 56q207 0 346.5 -144t139.5 -355q0 -212 -139.5 -356.5t-346.5 -144.5q-131 0 -236 57t-162 148v-585h-120v1808zM696 870q-169 0 -282.5 -112t-113.5 -277q0 -166 113.5 -278.5t282.5 -112.5q161 0 268.5 112.5t107.5 278.5
q0 165 -107.5 277t-268.5 112z" />
    <glyph glyph-name="ydieresis" unicode="&#xff;" horiz-adv-x="1025" 
d="M518 108l345 852h132l-446 -1082q-66 -155 -145.5 -226.5t-192.5 -71.5q-111 0 -169 32l16 105q64 -27 144 -27q135 0 236 236l13 34l-416 1000h128zM338 1206q-33 0 -54 21t-21 54t21 54t54 21t54.5 -21t21.5 -54t-21.5 -54t-54.5 -21zM688 1206q-33 0 -54 21t-21 54
t21 54t54 21t54.5 -21t21.5 -54t-21.5 -54t-54.5 -21z" />
    <glyph glyph-name="Amacron" unicode="&#x100;" horiz-adv-x="1319" 
d="M741 1358l561 -1358h-122l-144 347h-748l-143 -347h-126l565 1358h157zM662 1250l-329 -796h659zM959 1562h-592v106h592v-106z" />
    <glyph glyph-name="amacron" unicode="&#x101;" horiz-adv-x="1295" 
d="M1109 960v-960h-120v185q-57 -91 -162 -148t-236 -57q-207 0 -346.5 144.5t-139.5 356.5q0 211 139.5 355t346.5 144q131 0 236 -56t162 -146v182h120zM599 870q-161 0 -268.5 -112t-107.5 -277q0 -166 107.5 -278.5t268.5 -112.5q169 0 282.5 112.5t113.5 278.5
q0 165 -113.5 277t-282.5 112zM907 1219h-592v106h592v-106z" />
    <glyph glyph-name="Abreve" unicode="&#x102;" horiz-adv-x="1319" 
d="M741 1358l561 -1358h-122l-144 347h-748l-143 -347h-126l565 1358h157zM662 1250l-329 -796h659zM395 1750h111q5 -70 48.5 -113.5t107.5 -43.5t107.5 43.5t48.5 113.5h111q-6 -115 -80 -186.5t-187 -71.5q-112 0 -186 71.5t-81 186.5z" />
    <glyph glyph-name="abreve" unicode="&#x103;" horiz-adv-x="1295" 
d="M1109 960v-960h-120v185q-57 -91 -162 -148t-236 -57q-207 0 -346.5 144.5t-139.5 356.5q0 211 139.5 355t346.5 144q131 0 236 -56t162 -146v182h120zM599 870q-161 0 -268.5 -112t-107.5 -277q0 -166 107.5 -278.5t268.5 -112.5q169 0 282.5 112.5t113.5 278.5
q0 165 -113.5 277t-282.5 112zM334 1400h111q5 -70 48.5 -113.5t107.5 -43.5t107.5 43.5t48.5 113.5h111q-6 -115 -80 -186.5t-187 -71.5q-112 0 -186 71.5t-81 186.5z" />
    <glyph glyph-name="Aogonek" unicode="&#x104;" horiz-adv-x="1354" 
d="M741 1358l561 -1358q-94 -57 -150 -120.5t-56 -113.5q0 -45 30 -71t85 -26t124 33l32 -94q-72 -45 -173 -45q-99 0 -154.5 50t-55.5 136q0 145 195 254l-143 344h-748l-143 -347h-126l565 1358h157zM662 1250l-329 -796h659z" />
    <glyph glyph-name="aogonek" unicode="&#x105;" horiz-adv-x="1307" 
d="M1109 960v-960q-94 -57 -150 -120.5t-56 -113.5q0 -45 30 -71t85 -26t124 33l32 -94q-72 -45 -173 -45q-99 0 -154.5 50t-55.5 136q0 75 53.5 140t144.5 115v181q-57 -91 -162 -148t-236 -57q-207 0 -346.5 144.5t-139.5 356.5q0 211 139.5 355t346.5 144q131 0 236 -56
t162 -146v182h120zM599 870q-161 0 -268.5 -112t-107.5 -277q0 -166 107.5 -278.5t268.5 -112.5q169 0 282.5 112.5t113.5 278.5q0 165 -113.5 277t-282.5 112z" />
    <glyph glyph-name="Cacute" unicode="&#x106;" horiz-adv-x="1374" 
d="M1293 67q-7 -4 -19.5 -9.5t-54.5 -20.5t-87 -26.5t-114 -21t-139 -9.5q-224 0 -398 88t-270 247.5t-96 365.5q0 205 93.5 363.5t263 246t388.5 87.5q231 0 401 -84l-13 -112q-175 81 -390 81q-276 0 -447.5 -161t-171.5 -421q0 -261 177.5 -423.5t461.5 -162.5
q72 0 138.5 9t110.5 21.5t77.5 25.5t49.5 22l15 9zM1058 1807l-173 -334h-107l142 334h138z" />
    <glyph glyph-name="cacute" unicode="&#x107;" horiz-adv-x="1033" 
d="M104 481q0 222 149 360.5t387 138.5q91 0 168 -19.5t120 -43.5l-13 -110q-111 59 -275 59q-184 0 -297.5 -106t-113.5 -279q0 -172 115 -279.5t299 -107.5q77 0 156 18t129 46l22 -111q-59 -30 -144 -48.5t-163 -18.5q-240 0 -389.5 139t-149.5 362zM864 1449l-173 -334
h-107l142 334h138z" />
    <glyph glyph-name="Ccircumflex" unicode="&#x108;" horiz-adv-x="1374" 
d="M1293 67q-7 -4 -19.5 -9.5t-54.5 -20.5t-87 -26.5t-114 -21t-139 -9.5q-224 0 -398 88t-270 247.5t-96 365.5q0 205 93.5 363.5t263 246t388.5 87.5q231 0 401 -84l-13 -112q-175 81 -390 81q-276 0 -447.5 -161t-171.5 -421q0 -261 177.5 -423.5t461.5 -162.5
q72 0 138.5 9t110.5 21.5t77.5 25.5t49.5 22l15 9zM848 1839l263 -368h-123l-174 256l-178 -256h-123l263 368h72z" />
    <glyph glyph-name="ccircumflex" unicode="&#x109;" horiz-adv-x="1033" 
d="M104 481q0 222 149 360.5t387 138.5q91 0 168 -19.5t120 -43.5l-13 -110q-111 59 -275 59q-184 0 -297.5 -106t-113.5 -279q0 -172 115 -279.5t299 -107.5q77 0 156 18t129 46l22 -111q-59 -30 -144 -48.5t-163 -18.5q-240 0 -389.5 139t-149.5 362zM653 1454l263 -368
h-123l-174 256l-178 -256h-123l263 368h72z" />
    <glyph glyph-name="Cdotaccent" unicode="&#x10a;" horiz-adv-x="1374" 
d="M1293 67q-7 -4 -19.5 -9.5t-54.5 -20.5t-87 -26.5t-114 -21t-139 -9.5q-224 0 -398 88t-270 247.5t-96 365.5q0 205 93.5 363.5t263 246t388.5 87.5q231 0 401 -84l-13 -112q-175 81 -390 81q-276 0 -447.5 -161t-171.5 -421q0 -261 177.5 -423.5t461.5 -162.5
q72 0 138.5 9t110.5 21.5t77.5 25.5t49.5 22l15 9zM842 1541q-33 0 -54 21t-21 54t21 54t54 21t54.5 -21t21.5 -54t-21.5 -54t-54.5 -21z" />
    <glyph glyph-name="cdotaccent" unicode="&#x10b;" horiz-adv-x="1033" 
d="M104 481q0 222 149 360.5t387 138.5q91 0 168 -19.5t120 -43.5l-13 -110q-111 59 -275 59q-184 0 -297.5 -106t-113.5 -279q0 -172 115 -279.5t299 -107.5q77 0 156 18t129 46l22 -111q-59 -30 -144 -48.5t-163 -18.5q-240 0 -389.5 139t-149.5 362zM617 1206
q-33 0 -54 21t-21 54t21 54t54 21t54.5 -21t21.5 -54t-21.5 -54t-54.5 -21z" />
    <glyph glyph-name="Ccaron" unicode="&#x10c;" horiz-adv-x="1374" 
d="M1293 67q-7 -4 -19.5 -9.5t-54.5 -20.5t-87 -26.5t-114 -21t-139 -9.5q-224 0 -398 88t-270 247.5t-96 365.5q0 205 93.5 363.5t263 246t388.5 87.5q231 0 401 -84l-13 -112q-175 81 -390 81q-276 0 -447.5 -161t-171.5 -421q0 -261 177.5 -423.5t461.5 -162.5
q72 0 138.5 9t110.5 21.5t77.5 25.5t49.5 22l15 9zM819 1467l-263 368h123l174 -256l178 256h123l-263 -368h-72z" />
    <glyph glyph-name="ccaron" unicode="&#x10d;" horiz-adv-x="1033" 
d="M104 481q0 222 149 360.5t387 138.5q91 0 168 -19.5t120 -43.5l-13 -110q-111 59 -275 59q-184 0 -297.5 -106t-113.5 -279q0 -172 115 -279.5t299 -107.5q77 0 156 18t129 46l22 -111q-59 -30 -144 -48.5t-163 -18.5q-240 0 -389.5 139t-149.5 362zM584 1088l-263 368
h123l174 -256l178 256h123l-263 -368h-72z" />
    <glyph glyph-name="Dcaron" unicode="&#x10e;" horiz-adv-x="1576" 
d="M223 1358h537q171 0 304 -50t218 -141t129 -214.5t44 -274.5q0 -323 -177.5 -500.5t-521.5 -177.5h-533v1358zM770 1245h-428v-1132h428q267 0 416 146t149 419q0 264 -150.5 415.5t-414.5 151.5zM652 1467l-263 368h123l174 -256l178 256h123l-263 -368h-72z" />
    <glyph glyph-name="dcaron" unicode="&#x10f;" horiz-adv-x="1269" 
d="M1359 1028h-93v382h131zM1109 0h-120v182q-57 -90 -162 -146t-236 -56q-207 0 -346.5 144t-139.5 355q0 212 139.5 356.5t346.5 144.5q131 0 236 -57t162 -148v633h120v-1408zM599 90q169 0 282.5 112t113.5 277q0 166 -113.5 278.5t-282.5 112.5q-161 0 -268.5 -112.5
t-107.5 -278.5q0 -165 107.5 -277t268.5 -112z" />
    <glyph glyph-name="Dcroat" unicode="&#x110;" horiz-adv-x="1577" 
d="M224 1358h537q171 0 304 -50t218 -141t129 -214.5t44 -274.5q0 -323 -177.5 -500.5t-521.5 -177.5h-533v645h-153v104h153v609zM771 1245h-428v-496h545v-104h-545v-532h428q267 0 416 146t149 419q0 264 -150.5 415.5t-414.5 151.5z" />
    <glyph glyph-name="dcroat" unicode="&#x111;" horiz-adv-x="1299" 
d="M989 0v182q-57 -90 -162 -146t-236 -56q-207 0 -346.5 144t-139.5 355q0 212 139.5 356.5t346.5 144.5q131 0 236 -57t162 -148v365h-322v105h322v163h120v-163h166v-105h-166v-1140h-120zM599 90q169 0 282.5 112t113.5 277q0 166 -113.5 278.5t-282.5 112.5
q-161 0 -268.5 -112.5t-107.5 -278.5q0 -165 107.5 -277t268.5 -112z" />
    <glyph glyph-name="Emacron" unicode="&#x112;" horiz-adv-x="1320" 
d="M1206 0h-983v1358h961v-108h-841v-497h736v-109h-736v-536h863v-108zM997 1562h-592v106h592v-106z" />
    <glyph glyph-name="emacron" unicode="&#x113;" horiz-adv-x="1169" 
d="M982 182l26 -107q-158 -95 -357 -95q-243 0 -395 139t-152 361q0 216 139 358t355 142q163 0 277.5 -78.5t159.5 -201.5t22 -264h-824q14 -157 134 -249.5t270 -92.5q99 0 178 17t167 71zM236 538h709q-7 145 -98.5 236.5t-244.5 91.5q-152 0 -253.5 -92t-112.5 -236z
M900 1219h-592v106h592v-106z" />
    <glyph glyph-name="Ebreve" unicode="&#x114;" horiz-adv-x="1320" 
d="M1206 0h-983v1358h961v-108h-841v-497h736v-109h-736v-536h863v-108zM434 1750h111q5 -70 48.5 -113.5t107.5 -43.5t107.5 43.5t48.5 113.5h111q-6 -115 -80 -186.5t-187 -71.5q-112 0 -186 71.5t-81 186.5z" />
    <glyph glyph-name="ebreve" unicode="&#x115;" horiz-adv-x="1169" 
d="M982 182l26 -107q-158 -95 -357 -95q-243 0 -395 139t-152 361q0 216 139 358t355 142q163 0 277.5 -78.5t159.5 -201.5t22 -264h-824q14 -157 134 -249.5t270 -92.5q99 0 178 17t167 71zM236 538h709q-7 145 -98.5 236.5t-244.5 91.5q-152 0 -253.5 -92t-112.5 -236z
M338 1400h111q5 -70 48.5 -113.5t107.5 -43.5t107.5 43.5t48.5 113.5h111q-6 -115 -80 -186.5t-187 -71.5q-112 0 -186 71.5t-81 186.5z" />
    <glyph glyph-name="Edotaccent" unicode="&#x116;" horiz-adv-x="1320" 
d="M1206 0h-983v1358h961v-108h-841v-497h736v-109h-736v-536h863v-108zM731 1541q-33 0 -54 21t-21 54t21 54t54 21t54.5 -21t21.5 -54t-21.5 -54t-54.5 -21z" />
    <glyph glyph-name="edotaccent" unicode="&#x117;" horiz-adv-x="1169" 
d="M982 182l26 -107q-158 -95 -357 -95q-243 0 -395 139t-152 361q0 216 139 358t355 142q163 0 277.5 -78.5t159.5 -201.5t22 -264h-824q14 -157 134 -249.5t270 -92.5q99 0 178 17t167 71zM236 538h709q-7 145 -98.5 236.5t-244.5 91.5q-152 0 -253.5 -92t-112.5 -236z
M606 1206q-33 0 -54 21t-21 54t21 54t54 21t54.5 -21t21.5 -54t-21.5 -54t-54.5 -21z" />
    <glyph glyph-name="Eogonek" unicode="&#x118;" horiz-adv-x="1301" 
d="M1206 0q-94 -57 -150 -120.5t-56 -113.5q0 -45 30 -71t85 -26t124 33l32 -94q-72 -45 -173 -45q-99 0 -154.5 50t-55.5 136q0 142 190 251h-855v1358h961v-108h-841v-497h736v-109h-736v-536h863v-108z" />
    <glyph glyph-name="eogonek" unicode="&#x119;" horiz-adv-x="1169" 
d="M982 182l26 -107q-83 -51 -183 -75q-94 -57 -150 -120.5t-56 -113.5q0 -45 30 -71t85 -26t124 33l32 -94q-72 -45 -173 -45q-99 0 -154.5 50t-55.5 136q0 128 157 231h-13q-243 0 -395 139t-152 361q0 216 139 358t355 142q163 0 277.5 -78.5t159.5 -201.5t22 -264h-824
q14 -157 134 -249.5t270 -92.5q99 0 178 17t167 71zM236 538h709q-7 145 -98.5 236.5t-244.5 91.5q-152 0 -253.5 -92t-112.5 -236z" />
    <glyph glyph-name="Ecaron" unicode="&#x11a;" horiz-adv-x="1320" 
d="M1206 0h-983v1358h961v-108h-841v-497h736v-109h-736v-536h863v-108zM688 1467l-263 368h123l174 -256l178 256h123l-263 -368h-72z" />
    <glyph glyph-name="ecaron" unicode="&#x11b;" horiz-adv-x="1169" 
d="M982 182l26 -107q-158 -95 -357 -95q-243 0 -395 139t-152 361q0 216 139 358t355 142q163 0 277.5 -78.5t159.5 -201.5t22 -264h-824q14 -157 134 -249.5t270 -92.5q99 0 178 17t167 71zM236 538h709q-7 145 -98.5 236.5t-244.5 91.5q-152 0 -253.5 -92t-112.5 -236z
M563 1088l-263 368h123l174 -256l178 256h123l-263 -368h-72z" />
    <glyph glyph-name="Gcircumflex" unicode="&#x11c;" horiz-adv-x="1539" 
d="M1337 1277l-11 -117q-193 103 -445 103q-286 0 -464.5 -161t-178.5 -420q0 -263 183 -427t477 -164q247 0 379 77v457h-472v109h587v-636q-193 -118 -485 -118q-233 0 -413.5 88t-280 247.5t-99.5 365.5q0 205 96.5 363.5t272.5 246t402 87.5q249 0 452 -101zM914 1839
l263 -368h-123l-174 256l-178 -256h-123l263 368h72z" />
    <glyph glyph-name="gcircumflex" unicode="&#x11d;" horiz-adv-x="1295" 
d="M989 185q-57 -91 -162 -148t-236 -57q-207 0 -346.5 144.5t-139.5 356.5q0 211 139.5 355t346.5 144q131 0 236 -56t162 -146v182h120v-887q0 -81 -21 -154t-64.5 -135t-107.5 -107.5t-154.5 -71t-199.5 -25.5q-82 0 -187 20t-181 59l20 111q165 -81 351 -81
q121 0 214.5 38t151.5 122t58 205v131zM599 870q-161 0 -268.5 -112t-107.5 -277q0 -166 107.5 -278.5t268.5 -112.5q169 0 282.5 112.5t113.5 278.5q0 165 -113.5 277t-282.5 112zM632 1454l263 -368h-123l-174 256l-178 -256h-123l263 368h72z" />
    <glyph glyph-name="Gbreve" unicode="&#x11e;" horiz-adv-x="1539" 
d="M1337 1277l-11 -117q-193 103 -445 103q-286 0 -464.5 -161t-178.5 -420q0 -263 183 -427t477 -164q247 0 379 77v457h-472v109h587v-636q-193 -118 -485 -118q-233 0 -413.5 88t-280 247.5t-99.5 365.5q0 205 96.5 363.5t272.5 246t402 87.5q249 0 452 -101zM591 1750
h111q5 -70 48.5 -113.5t107.5 -43.5t107.5 43.5t48.5 113.5h111q-6 -115 -80 -186.5t-187 -71.5q-112 0 -186 71.5t-81 186.5z" />
    <glyph glyph-name="gbreve" unicode="&#x11f;" horiz-adv-x="1295" 
d="M989 185q-57 -91 -162 -148t-236 -57q-207 0 -346.5 144.5t-139.5 356.5q0 211 139.5 355t346.5 144q131 0 236 -56t162 -146v182h120v-887q0 -81 -21 -154t-64.5 -135t-107.5 -107.5t-154.5 -71t-199.5 -25.5q-82 0 -187 20t-181 59l20 111q165 -81 351 -81
q121 0 214.5 38t151.5 122t58 205v131zM599 870q-161 0 -268.5 -112t-107.5 -277q0 -166 107.5 -278.5t268.5 -112.5q169 0 282.5 112.5t113.5 278.5q0 165 -113.5 277t-282.5 112zM332 1400h111q5 -70 48.5 -113.5t107.5 -43.5t107.5 43.5t48.5 113.5h111
q-6 -115 -80 -186.5t-187 -71.5q-112 0 -186 71.5t-81 186.5z" />
    <glyph glyph-name="Gdotaccent" unicode="&#x120;" horiz-adv-x="1539" 
d="M1337 1277l-11 -117q-193 103 -445 103q-286 0 -464.5 -161t-178.5 -420q0 -263 183 -427t477 -164q247 0 379 77v457h-472v109h587v-636q-193 -118 -485 -118q-233 0 -413.5 88t-280 247.5t-99.5 365.5q0 205 96.5 363.5t272.5 246t402 87.5q249 0 452 -101zM878 1541
q-33 0 -54 21t-21 54t21 54t54 21t54.5 -21t21.5 -54t-21.5 -54t-54.5 -21z" />
    <glyph glyph-name="gdotaccent" unicode="&#x121;" horiz-adv-x="1295" 
d="M989 185q-57 -91 -162 -148t-236 -57q-207 0 -346.5 144.5t-139.5 356.5q0 211 139.5 355t346.5 144q131 0 236 -56t162 -146v182h120v-887q0 -81 -21 -154t-64.5 -135t-107.5 -107.5t-154.5 -71t-199.5 -25.5q-82 0 -187 20t-181 59l20 111q165 -81 351 -81
q121 0 214.5 38t151.5 122t58 205v131zM599 870q-161 0 -268.5 -112t-107.5 -277q0 -166 107.5 -278.5t268.5 -112.5q169 0 282.5 112.5t113.5 278.5q0 165 -113.5 277t-282.5 112zM599 1206q-33 0 -54 21t-21 54t21 54t54 21t54.5 -21t21.5 -54t-21.5 -54t-54.5 -21z" />
    <glyph glyph-name="Gcommaaccent" unicode="&#x122;" horiz-adv-x="1539" 
d="M1337 1277l-11 -117q-193 103 -445 103q-286 0 -464.5 -161t-178.5 -420q0 -263 183 -427t477 -164q247 0 379 77v457h-472v109h587v-636q-193 -118 -485 -118q-233 0 -413.5 88t-280 247.5t-99.5 365.5q0 205 96.5 363.5t272.5 246t402 87.5q249 0 452 -101zM798 -508
l14 380h136l-52 -380h-98z" />
    <glyph glyph-name="gcommaaccent" unicode="&#x123;" horiz-adv-x="1295" 
d="M989 185q-57 -91 -162 -148t-236 -57q-207 0 -346.5 144.5t-139.5 356.5q0 211 139.5 355t346.5 144q131 0 236 -56t162 -146v182h120v-887q0 -81 -21 -154t-64.5 -135t-107.5 -107.5t-154.5 -71t-199.5 -25.5q-82 0 -187 20t-181 59l20 111q165 -81 351 -81
q121 0 214.5 38t151.5 122t58 205v131zM599 870q-161 0 -268.5 -112t-107.5 -277q0 -166 107.5 -278.5t268.5 -112.5q169 0 282.5 112.5t113.5 278.5q0 165 -113.5 277t-282.5 112zM682 1495l-14 -380h-136l52 380h98z" />
    <glyph glyph-name="Hcircumflex" unicode="&#x124;" horiz-adv-x="1582" 
d="M1239 0v645h-896v-645h-120v1358h120v-603h896v603h120v-1358h-120zM822 1839l263 -368h-123l-174 256l-178 -256h-123l263 368h72z" />
    <glyph glyph-name="hcircumflex" unicode="&#x125;" horiz-adv-x="1226" 
d="M647 980q186 0 296.5 -102t110.5 -292v-586h-118v550q0 159 -78.5 238.5t-229.5 79.5q-139 0 -234 -91.5t-95 -232.5v-544h-120v1408h120v-615q55 93 148 140t200 47zM280 1859l263 -368h-123l-174 256l-178 -256h-123l263 368h72z" />
    <glyph glyph-name="Hbar" unicode="&#x126;" horiz-adv-x="1587" 
d="M230 0v1089h-168v105h168v164h120v-164h896v164h120v-164h159v-105h-159v-1089h-120v645h-896v-645h-120zM350 1089v-334h896v334h-896z" />
    <glyph glyph-name="hbar" unicode="&#x127;" horiz-adv-x="1202" 
d="M623 980q186 0 296.5 -102t110.5 -292v-586h-118v550q0 159 -78.5 238.5t-229.5 79.5q-139 0 -234 -91.5t-95 -232.5v-544h-120v1140h-154v105h154v163h120v-163h334v-105h-334v-347q55 93 148 140t200 47z" />
    <glyph glyph-name="Itilde" unicode="&#x128;" horiz-adv-x="566" 
d="M223 0v1358h120v-1358h-120zM159 1627q-39 0 -67 -19.5t-63 -59.5l-68 56q90 125 199 125q56 0 137 -40.5t121 -40.5q39 0 67 19.5t63 59.5l68 -56q-90 -125 -194 -125q-56 0 -139.5 40.5t-123.5 40.5z" />
    <glyph glyph-name="itilde" unicode="&#x129;" horiz-adv-x="492" 
d="M186 0v960h120v-960h-120zM115 1272q-39 0 -67 -19.5t-63 -59.5l-68 56q90 125 199 125q56 0 137 -40.5t121 -40.5q39 0 67 19.5t63 59.5l68 -56q-90 -125 -194 -125q-56 0 -139.5 40.5t-123.5 40.5z" />
    <glyph glyph-name="Imacron" unicode="&#x12a;" horiz-adv-x="566" 
d="M223 0v1358h120v-1358h-120zM583 1562h-592v106h592v-106z" />
    <glyph glyph-name="imacron" unicode="&#x12b;" horiz-adv-x="492" 
d="M186 0v960h120v-960h-120zM543 1219h-592v106h592v-106z" />
    <glyph glyph-name="Ibreve" unicode="&#x12c;" horiz-adv-x="566" 
d="M223 0v1358h120v-1358h-120zM21 1750h111q5 -70 48.5 -113.5t107.5 -43.5t107.5 43.5t48.5 113.5h111q-6 -115 -80 -186.5t-187 -71.5q-112 0 -186 71.5t-81 186.5z" />
    <glyph glyph-name="ibreve" unicode="&#x12d;" horiz-adv-x="492" 
d="M186 0v960h120v-960h-120zM-22 1401h111q5 -70 48.5 -113.5t107.5 -43.5t107.5 43.5t48.5 113.5h111q-6 -115 -80 -186.5t-187 -71.5q-112 0 -186 71.5t-81 186.5z" />
    <glyph glyph-name="Iogonek" unicode="&#x12e;" horiz-adv-x="566" 
d="M343 1358v-1358q-94 -57 -150 -120.5t-56 -113.5q0 -45 30 -71t85 -26t124 33l32 -94q-72 -45 -173 -45q-99 0 -154.5 50t-55.5 136q0 75 53.5 140t144.5 115v1354h120z" />
    <glyph glyph-name="iogonek" unicode="&#x12f;" horiz-adv-x="492" 
d="M-12 -251q0 75 53.5 140t144.5 115v956h120v-960q-94 -57 -150 -120.5t-56 -113.5q0 -45 30 -71t85 -26t124 33l32 -94q-72 -45 -173 -45q-99 0 -154.5 50t-55.5 136zM246 1207q-33 0 -54 21t-21 54t21 54t54 21t54.5 -21t21.5 -54t-21.5 -54t-54.5 -21z" />
    <glyph glyph-name="Idotaccent" unicode="&#x130;" horiz-adv-x="566" 
d="M223 0v1358h120v-1358h-120zM284 1541q-33 0 -54 21t-21 54t21 54t54 21t54.5 -21t21.5 -54t-21.5 -54t-54.5 -21z" />
    <glyph glyph-name="dotlessi" unicode="&#x131;" horiz-adv-x="492" 
d="M186 0v960h120v-960h-120z" />
    <glyph glyph-name="IJ" unicode="&#x132;" horiz-adv-x="1659" 
d="M223 0v1358h120v-1358h-120zM633 57l26 107q147 -71 310 -71q177 0 269 76t92 247v832h-555v110h675v-952q0 -202 -123 -314t-351 -112q-77 0 -177.5 23.5t-165.5 53.5z" />
    <glyph glyph-name="ij" unicode="&#x133;" horiz-adv-x="920" 
d="M173 0v960h120v-960h-120zM232 1206q-33 0 -54 21t-21 54t21 54t54 21t54.5 -21t21.5 -54t-21.5 -54t-54.5 -21zM692 1206q-33 0 -54 21t-21 54t21 54t54 21t54.5 -21t21.5 -54t-21.5 -54t-54.5 -21zM633 -112v1072h120v-1083q0 -140 -71.5 -218.5t-199.5 -78.5
q-90 0 -143 25l15 103q52 -20 121 -20q78 0 118 51t40 149z" />
    <glyph glyph-name="Jcircumflex" unicode="&#x134;" horiz-adv-x="1071" 
d="M45 57l26 107q147 -71 310 -71q177 0 269 76t92 247v828h-555v110h675v-948q0 -202 -123 -314t-351 -112q-77 0 -177.5 23.5t-165.5 53.5zM572 1839l263 -368h-123l-174 256l-178 -256h-123l263 368h72z" />
    <glyph glyph-name="jcircumflex" unicode="&#x135;" horiz-adv-x="502" 
d="M196 -112v1072h120v-1083q0 -140 -71.5 -218.5t-199.5 -78.5q-90 0 -143 25l15 103q52 -20 121 -20q78 0 118 51t40 149zM292 1454l263 -368h-123l-174 256l-178 -256h-123l263 368h72z" />
    <glyph glyph-name="Kcommaaccent" unicode="&#x136;" horiz-adv-x="1307" 
d="M1228 1358l-419 -701l504 -657h-152l-457 600h-361v-600h-120v1358h120v-648h361l383 648h141zM585 -508l14 380h136l-52 -380h-98z" />
    <glyph glyph-name="kcommaaccent" unicode="&#x137;" horiz-adv-x="1035" 
d="M186 0v1408h120v-860h232l273 412h136l-317 -470l365 -490h-146l-324 443h-219v-443h-120zM451 -508l14 380h136l-52 -380h-98z" />
    <glyph glyph-name="kgreenlandic" unicode="&#x138;" horiz-adv-x="1008" 
d="M186 0v960h120v-412h232l273 412h136l-317 -470l365 -490h-146l-324 443h-219v-443h-120z" />
    <glyph glyph-name="Lacute" unicode="&#x139;" horiz-adv-x="1206" 
d="M1165 0h-942v1358h120v-1248h822v-110zM537 1807l-173 -334h-107l142 334h138z" />
    <glyph glyph-name="lacute" unicode="&#x13a;" horiz-adv-x="492" 
d="M186 0v1408h120v-1408h-120zM478 1827l-173 -334h-107l142 334h138z" />
    <glyph glyph-name="Lcommaaccent" unicode="&#x13b;" horiz-adv-x="1206" 
d="M1165 0h-942v1358h120v-1248h822v-110zM573 -508l14 380h136l-52 -380h-98z" />
    <glyph glyph-name="lcommaaccent" unicode="&#x13c;" horiz-adv-x="492" 
d="M186 0v1408h120v-1408h-120zM163 -508l14 380h136l-52 -380h-98z" />
    <glyph glyph-name="Lcaron" unicode="&#x13d;" horiz-adv-x="1211" 
d="M1165 0h-942v1358h120v-1248h822v-110zM770 948l14 380h136l-52 -380h-98z" />
    <glyph glyph-name="lcaron" unicode="&#x13e;" horiz-adv-x="492" 
d="M615 1028h-93v382h131zM186 0v1408h120v-1408h-120z" />
    <glyph glyph-name="Ldot" unicode="&#x13f;" horiz-adv-x="1209" 
d="M1165 0h-942v1358h120v-1248h822v-110zM899 600q-33 0 -54 21t-21 54t21 54t54 21t54.5 -21t21.5 -54t-21.5 -54t-54.5 -21z" />
    <glyph glyph-name="ldot" unicode="&#x140;" horiz-adv-x="683" 
d="M186 0v1408h120v-1408h-120zM615 603q-33 0 -54 21t-21 54t21 54t54 21t54.5 -21t21.5 -54t-21.5 -54t-54.5 -21z" />
    <glyph glyph-name="Lslash" unicode="&#x141;" horiz-adv-x="1297" 
d="M1256 0h-942v733l-231 -24v119l231 23v507h120v-494l433 44v-115l-433 -47v-636h822v-110z" />
    <glyph glyph-name="lslash" unicode="&#x142;" horiz-adv-x="492" 
d="M186 0v477l-193 -78v119l193 80v810h120v-760l222 92v-123l-222 -91v-526h-120z" />
    <glyph glyph-name="Nacute" unicode="&#x143;" horiz-adv-x="1683" 
d="M1460 1358v-1358h-135l-981 1193v-1193h-121v1358h136l980 -1190v1190h121zM1061 1807l-173 -334h-107l142 334h138z" />
    <glyph glyph-name="nacute" unicode="&#x144;" horiz-adv-x="1233" 
d="M654 980q186 0 296.5 -102t110.5 -292v-586h-118v550q0 159 -78.5 238.5t-229.5 79.5q-139 0 -234 -91.5t-95 -232.5v-544h-120v960h120v-167q55 93 148 140t200 47zM886 1449l-173 -334h-107l142 334h138z" />
    <glyph glyph-name="Ncommaaccent" unicode="&#x145;" horiz-adv-x="1683" 
d="M1460 1358v-1358h-135l-981 1193v-1193h-121v1358h136l980 -1190v1190h121zM755 -508l14 380h136l-52 -380h-98z" />
    <glyph glyph-name="ncommaaccent" unicode="&#x146;" horiz-adv-x="1233" 
d="M654 980q186 0 296.5 -102t110.5 -292v-586h-118v550q0 159 -78.5 238.5t-229.5 79.5q-139 0 -234 -91.5t-95 -232.5v-544h-120v960h120v-167q55 93 148 140t200 47zM560 -508l14 380h136l-52 -380h-98z" />
    <glyph glyph-name="Ncaron" unicode="&#x147;" horiz-adv-x="1683" 
d="M1460 1358v-1358h-135l-981 1193v-1193h-121v1358h136l980 -1190v1190h121zM831 1467l-263 368h123l174 -256l178 256h123l-263 -368h-72z" />
    <glyph glyph-name="ncaron" unicode="&#x148;" horiz-adv-x="1233" 
d="M654 980q186 0 296.5 -102t110.5 -292v-586h-118v550q0 159 -78.5 238.5t-229.5 79.5q-139 0 -234 -91.5t-95 -232.5v-544h-120v960h120v-167q55 93 148 140t200 47zM606 1088l-263 368h123l174 -256l178 256h123l-263 -368h-72z" />
    <glyph glyph-name="napostrophe" unicode="&#x149;" horiz-adv-x="1430" 
d="M851 980q186 0 296.5 -102t110.5 -292v-586h-118v550q0 159 -78.5 238.5t-229.5 79.5q-139 0 -234 -91.5t-95 -232.5v-544h-120v960h120v-167q55 93 148 140t200 47zM136 1346h125l-125 -434h-105z" />
    <glyph glyph-name="Eng" unicode="&#x14a;" horiz-adv-x="1683" 
d="M1460 1358v-1481q0 -140 -72 -218.5t-200 -78.5q-90 0 -143 25l15 103q48 -20 121 -20q158 0 158 200v95l-995 1210v-1193h-121v1358h136l980 -1190v1190h121z" />
    <glyph glyph-name="eng" unicode="&#x14b;" horiz-adv-x="1234" 
d="M654 980q186 0 296.5 -102t110.5 -292v-586h1v-133q0 -135 -68.5 -211t-191.5 -76q-83 0 -133 25l15 103q47 -20 111 -20q73 0 110.5 48.5t37.5 141.5v672q0 159 -78.5 238.5t-229.5 79.5q-139 0 -234 -91.5t-95 -232.5v-544h-120v960h120v-167q55 93 148 140t200 47z
" />
    <glyph glyph-name="Omacron" unicode="&#x14c;" horiz-adv-x="1661" 
d="M115 672q0 202 93 363.5t255.5 252t363.5 90.5q204 0 368.5 -90.5t257.5 -252t93 -363.5q0 -150 -54.5 -279.5t-150 -220t-228.5 -142t-286 -51.5q-201 0 -363.5 87.5t-255.5 246.5t-93 359zM235 672q0 -168 77 -301.5t212.5 -207.5t302.5 -74q259 0 429 164t170 419
q0 259 -170 427.5t-429 168.5q-125 0 -235 -45t-188.5 -123t-123.5 -189t-45 -239zM1134 1562h-592v106h592v-106z" />
    <glyph glyph-name="omacron" unicode="&#x14d;" horiz-adv-x="1224" 
d="M102 480q0 212 146 356t364 144t364 -144t146 -356t-146 -356t-364 -144t-364 144t-146 356zM222 480q0 -165 111.5 -277.5t278.5 -112.5t278.5 112.5t111.5 277.5t-111.5 277.5t-278.5 112.5t-278.5 -112.5t-111.5 -277.5zM911 1218h-592v106h592v-106z" />
    <glyph glyph-name="Obreve" unicode="&#x14e;" horiz-adv-x="1661" 
d="M115 672q0 202 93 363.5t255.5 252t363.5 90.5q204 0 368.5 -90.5t257.5 -252t93 -363.5q0 -150 -54.5 -279.5t-150 -220t-228.5 -142t-286 -51.5q-201 0 -363.5 87.5t-255.5 246.5t-93 359zM235 672q0 -168 77 -301.5t212.5 -207.5t302.5 -74q259 0 429 164t170 419
q0 259 -170 427.5t-429 168.5q-125 0 -235 -45t-188.5 -123t-123.5 -189t-45 -239zM571 1750h111q5 -70 48.5 -113.5t107.5 -43.5t107.5 43.5t48.5 113.5h111q-6 -115 -80 -186.5t-187 -71.5q-112 0 -186 71.5t-81 186.5z" />
    <glyph glyph-name="obreve" unicode="&#x14f;" horiz-adv-x="1224" 
d="M102 480q0 212 146 356t364 144t364 -144t146 -356t-146 -356t-364 -144t-364 144t-146 356zM222 480q0 -165 111.5 -277.5t278.5 -112.5t278.5 112.5t111.5 277.5t-111.5 277.5t-278.5 112.5t-278.5 -112.5t-111.5 -277.5zM348 1400h111q5 -70 48.5 -113.5t107.5 -43.5
t107.5 43.5t48.5 113.5h111q-6 -115 -80 -186.5t-187 -71.5q-112 0 -186 71.5t-81 186.5z" />
    <glyph glyph-name="Ohungarumlaut" unicode="&#x150;" horiz-adv-x="1661" 
d="M115 672q0 202 93 363.5t255.5 252t363.5 90.5q204 0 368.5 -90.5t257.5 -252t93 -363.5q0 -150 -54.5 -279.5t-150 -220t-228.5 -142t-286 -51.5q-201 0 -363.5 87.5t-255.5 246.5t-93 359zM235 672q0 -168 77 -301.5t212.5 -207.5t302.5 -74q259 0 429 164t170 419
q0 259 -170 427.5t-429 168.5q-125 0 -235 -45t-188.5 -123t-123.5 -189t-45 -239zM914 1807l-203 -334h-96l152 334h147zM1241 1807l-203 -334h-96l152 334h147z" />
    <glyph glyph-name="ohungarumlaut" unicode="&#x151;" horiz-adv-x="1224" 
d="M102 480q0 212 146 356t364 144t364 -144t146 -356t-146 -356t-364 -144t-364 144t-146 356zM222 480q0 -165 111.5 -277.5t278.5 -112.5t278.5 112.5t111.5 277.5t-111.5 277.5t-278.5 112.5t-278.5 -112.5t-111.5 -277.5zM691 1449l-203 -334h-96l152 334h147z
M1018 1449l-203 -334h-96l152 334h147z" />
    <glyph glyph-name="OE" unicode="&#x152;" horiz-adv-x="2416" 
d="M116 672q0 204 80 364t231.5 251t350.5 91q177 0 315 -69t226 -195v244h961v-108h-841v-497h736v-109h-736v-536h863v-108h-983v235q-88 -122 -226.5 -189t-314.5 -67q-301 0 -481.5 192.5t-180.5 500.5zM236 672q0 -260 146 -421.5t396 -161.5q254 0 401.5 161
t147.5 422q0 173 -64.5 307.5t-190 211.5t-294.5 77q-249 0 -395.5 -166t-146.5 -430z" />
    <glyph glyph-name="oe" unicode="&#x153;" horiz-adv-x="1983" 
d="M104 480q0 215 133.5 357.5t353.5 142.5q142 0 253 -66.5t172 -180.5q56 115 163.5 180.5t253.5 65.5q81 0 150.5 -21t120 -58t89.5 -88t58 -111.5t26 -127.5t-6 -137h-787q13 -157 128 -249.5t258 -92.5q95 0 170.5 17t159.5 71l24 -107q-151 -95 -341 -95
q-158 0 -278.5 66.5t-184.5 184.5q-59 -117 -170 -184t-259 -67q-220 0 -353.5 142.5t-133.5 357.5zM218 480q0 -169 101 -279.5t272 -110.5t271.5 110.5t100.5 279.5t-100.5 279.5t-271.5 110.5t-272 -110.5t-101 -279.5zM1087 538h677q-7 148 -91.5 239.5t-235.5 91.5
t-245.5 -92.5t-104.5 -238.5z" />
    <glyph glyph-name="Racute" unicode="&#x154;" horiz-adv-x="1402" 
d="M808 436h-465v-436h-120v1358h585q98 0 182 -28.5t150 -84t104 -145.5t38 -206q0 -164 -88 -278.5t-231 -157.5l377 -458h-157l-350 437q-9 -1 -25 -1zM343 1248v-702h465q148 0 251 95t103 253q0 88 -28.5 157t-77.5 111.5t-112 64t-136 21.5h-465zM923 1807l-173 -334
h-107l142 334h138z" />
    <glyph glyph-name="racute" unicode="&#x155;" horiz-adv-x="750" 
d="M306 960v-153q39 86 109.5 129.5t158.5 43.5q83 0 141 -25l-12 -112q-68 26 -135 26q-116 0 -188.5 -85t-72.5 -241v-543h-121v960h120zM693 1449l-173 -334h-107l142 334h138z" />
    <glyph glyph-name="Rcommaaccent" unicode="&#x156;" horiz-adv-x="1402" 
d="M808 436h-465v-436h-120v1358h585q98 0 182 -28.5t150 -84t104 -145.5t38 -206q0 -164 -88 -278.5t-231 -157.5l377 -458h-157l-350 437q-9 -1 -25 -1zM343 1248v-702h465q148 0 251 95t103 253q0 88 -28.5 157t-77.5 111.5t-112 64t-136 21.5h-465zM617 -508l14 380h136
l-52 -380h-98z" />
    <glyph glyph-name="rcommaaccent" unicode="&#x157;" horiz-adv-x="750" 
d="M306 960v-153q39 86 109.5 129.5t158.5 43.5q83 0 141 -25l-12 -112q-68 26 -135 26q-116 0 -188.5 -85t-72.5 -241v-543h-121v960h120zM157 -508l14 380h136l-52 -380h-98z" />
    <glyph glyph-name="Rcaron" unicode="&#x158;" horiz-adv-x="1402" 
d="M808 436h-465v-436h-120v1358h585q98 0 182 -28.5t150 -84t104 -145.5t38 -206q0 -164 -88 -278.5t-231 -157.5l377 -458h-157l-350 437q-9 -1 -25 -1zM343 1248v-702h465q148 0 251 95t103 253q0 88 -28.5 157t-77.5 111.5t-112 64t-136 21.5h-465zM653 1467l-263 368
h123l174 -256l178 256h123l-263 -368h-72z" />
    <glyph glyph-name="rcaron" unicode="&#x159;" horiz-adv-x="750" 
d="M306 960v-153q39 86 109.5 129.5t158.5 43.5q83 0 141 -25l-12 -112q-68 26 -135 26q-116 0 -188.5 -85t-72.5 -241v-543h-121v960h120zM431 1087l-263 368h123l174 -256l178 256h123l-263 -368h-72z" />
    <glyph glyph-name="Sacute" unicode="&#x15a;" horiz-adv-x="1154" 
d="M697 596l-241 82q-165 57 -249 133.5t-84 201.5q0 171 126 268t348 97q204 0 386 -74l-16 -107q-189 73 -367 73q-165 0 -258.5 -67.5t-93.5 -186.5q0 -40 14.5 -73t35 -54t57 -41t65 -31t75.5 -28l9 -3l227 -78q179 -63 251.5 -146t72.5 -213q0 -173 -129.5 -271
t-359.5 -98q-218 0 -441 93l14 119q99 -48 212.5 -75t212.5 -27q175 0 274 70.5t99 194.5q0 84 -54.5 139.5t-185.5 101.5zM853 1807l-173 -334h-107l142 334h138z" />
    <glyph glyph-name="sacute" unicode="&#x15b;" horiz-adv-x="930" 
d="M464 543l89 -17q140 -27 212 -93t72 -166q0 -134 -98.5 -210.5t-273.5 -76.5q-201 0 -355 72l19 114q125 -76 327 -76q123 0 193 43.5t70 120.5q0 75 -60 112t-183 60l-107 20q-264 50 -264 247q0 134 101.5 210.5t279.5 76.5q173 0 293 -48l-20 -106q-125 47 -263 47
q-125 0 -196 -45t-71 -124q0 -31 11 -54.5t28.5 -39.5t49.5 -29t64 -21t82 -17zM696 1449l-173 -334h-107l142 334h138z" />
    <glyph glyph-name="Scircumflex" unicode="&#x15c;" horiz-adv-x="1154" 
d="M697 596l-241 82q-165 57 -249 133.5t-84 201.5q0 171 126 268t348 97q204 0 386 -74l-16 -107q-189 73 -367 73q-165 0 -258.5 -67.5t-93.5 -186.5q0 -40 14.5 -73t35 -54t57 -41t65 -31t75.5 -28l9 -3l227 -78q179 -63 251.5 -146t72.5 -213q0 -173 -129.5 -271
t-359.5 -98q-218 0 -441 93l14 119q99 -48 212.5 -75t212.5 -27q175 0 274 70.5t99 194.5q0 84 -54.5 139.5t-185.5 101.5zM652 1839l263 -368h-123l-174 256l-178 -256h-123l263 368h72z" />
    <glyph glyph-name="scircumflex" unicode="&#x15d;" horiz-adv-x="930" 
d="M464 543l89 -17q140 -27 212 -93t72 -166q0 -134 -98.5 -210.5t-273.5 -76.5q-201 0 -355 72l19 114q125 -76 327 -76q123 0 193 43.5t70 120.5q0 75 -60 112t-183 60l-107 20q-264 50 -264 247q0 134 101.5 210.5t279.5 76.5q173 0 293 -48l-20 -106q-125 47 -263 47
q-125 0 -196 -45t-71 -124q0 -31 11 -54.5t28.5 -39.5t49.5 -29t64 -21t82 -17zM525 1454l263 -368h-123l-174 256l-178 -256h-123l263 368h72z" />
    <glyph glyph-name="Scedilla" unicode="&#x15e;" horiz-adv-x="1154" 
d="M514 -183h-49l60 164q-206 10 -400 92l14 119q99 -48 212.5 -75t212.5 -27q175 0 274 70.5t99 194.5q0 84 -54.5 139.5t-185.5 101.5l-241 82q-165 57 -249 133.5t-84 201.5q0 171 126 268t348 97q204 0 386 -74l-16 -107q-189 73 -367 73q-165 0 -258.5 -67.5
t-93.5 -186.5q0 -40 14.5 -73t35 -54t57 -41t65 -31t75.5 -28l9 -3l227 -78q179 -63 251.5 -146t72.5 -213q0 -164 -116.5 -260.5t-325.5 -107.5l-28 -83q91 -7 146.5 -50t55.5 -112q0 -81 -64 -127t-177 -46q-75 0 -129 18v99q57 -19 119 -19q139 0 139 75q0 81 -161 81z
" />
    <glyph glyph-name="scedilla" unicode="&#x15f;" horiz-adv-x="930" 
d="M393 -183h-49l60 165q-170 11 -294 70l19 114q125 -76 327 -76q123 0 193 43.5t70 120.5q0 75 -60 112t-183 60l-107 20q-264 50 -264 247q0 134 101.5 210.5t279.5 76.5q173 0 293 -48l-20 -106q-125 47 -263 47q-125 0 -196 -45t-71 -124q0 -31 11 -54.5t28.5 -39.5
t49.5 -29t64 -21t82 -17l89 -17q140 -27 212 -93t72 -166q0 -129 -91.5 -204.5t-253.5 -81.5l-28 -83q91 -7 146.5 -50t55.5 -112q0 -81 -64 -127t-177 -46q-75 0 -129 18v99q57 -19 119 -19q139 0 139 75q0 81 -161 81z" />
    <glyph glyph-name="Scaron" unicode="&#x160;" horiz-adv-x="1154" 
d="M697 596l-241 82q-165 57 -249 133.5t-84 201.5q0 171 126 268t348 97q204 0 386 -74l-16 -107q-189 73 -367 73q-165 0 -258.5 -67.5t-93.5 -186.5q0 -40 14.5 -73t35 -54t57 -41t65 -31t75.5 -28l9 -3l227 -78q179 -63 251.5 -146t72.5 -213q0 -173 -129.5 -271
t-359.5 -98q-218 0 -441 93l14 119q99 -48 212.5 -75t212.5 -27q175 0 274 70.5t99 194.5q0 84 -54.5 139.5t-185.5 101.5zM573 1467l-263 368h123l174 -256l178 256h123l-263 -368h-72z" />
    <glyph glyph-name="scaron" unicode="&#x161;" horiz-adv-x="930" 
d="M464 543l89 -17q140 -27 212 -93t72 -166q0 -134 -98.5 -210.5t-273.5 -76.5q-201 0 -355 72l19 114q125 -76 327 -76q123 0 193 43.5t70 120.5q0 75 -60 112t-183 60l-107 20q-264 50 -264 247q0 134 101.5 210.5t279.5 76.5q173 0 293 -48l-20 -106q-125 47 -263 47
q-125 0 -196 -45t-71 -124q0 -31 11 -54.5t28.5 -39.5t49.5 -29t64 -21t82 -17zM446 1087l-263 368h123l174 -256l178 256h123l-263 -368h-72z" />
    <glyph glyph-name="Tcommaaccent" unicode="&#x162;" horiz-adv-x="1118" 
d="M1080 1248h-461v-1248h-120v1248h-461v110h1042v-110zM481 -508l14 380h136l-52 -380h-98z" />
    <glyph glyph-name="tcommaaccent" unicode="&#x163;" horiz-adv-x="752" 
d="M682 854h-328v-557q0 -107 47.5 -158t126.5 -51q106 0 173 30l16 -103q-28 -14 -83 -24.5t-112 -10.5q-132 0 -210.5 73t-78.5 215v586h-183v106h182v308h122v-308h328v-106zM376 -508l14 380h136l-52 -380h-98z" />
    <glyph glyph-name="Tcaron" unicode="&#x164;" horiz-adv-x="1118" 
d="M1080 1248h-461v-1248h-120v1248h-461v110h1042v-110zM526 1467l-263 368h123l174 -256l178 256h123l-263 -368h-72z" />
    <glyph glyph-name="tcaron" unicode="&#x165;" horiz-adv-x="752" 
d="M639 1128h-93v382h131zM682 854h-328v-557q0 -107 47.5 -158t126.5 -51q106 0 173 30l16 -103q-28 -14 -83 -24.5t-112 -10.5q-132 0 -210.5 73t-78.5 215v586h-183v106h182v308h122v-308h328v-106z" />
    <glyph glyph-name="Tbar" unicode="&#x166;" horiz-adv-x="1205" 
d="M1119 1248h-461v-488h398v-109h-398v-651h-120v651h-385v109h385v488h-461v110h1042v-110z" />
    <glyph glyph-name="tbar" unicode="&#x167;" horiz-adv-x="775" 
d="M700 854h-328v-289h337v-106h-337v-162q0 -107 47.5 -158t126.5 -51q106 0 173 30l16 -103q-28 -14 -83 -24.5t-112 -10.5q-132 0 -210.5 73t-78.5 215v191h-174v106h174v289h-183v106h182v308h122v-308h328v-106z" />
    <glyph glyph-name="Utilde" unicode="&#x168;" horiz-adv-x="1590" 
d="M207 495v863h120v-863q0 -182 125.5 -292.5t341.5 -110.5q214 0 341.5 112t127.5 291v863h120v-863q0 -230 -160 -372.5t-429 -142.5q-272 0 -429.5 140.5t-157.5 374.5zM677 1627q-39 0 -67 -19.5t-63 -59.5l-68 56q90 125 199 125q56 0 137 -40.5t121 -40.5
q39 0 67 19.5t63 59.5l68 -56q-90 -125 -194 -125q-56 0 -139.5 40.5t-123.5 40.5z" />
    <glyph glyph-name="utilde" unicode="&#x169;" horiz-adv-x="1207" 
d="M919 409v551h118v-570q0 -182 -116.5 -296t-316.5 -114t-316.5 113t-116.5 291v576h118v-551q0 -155 84.5 -236t230.5 -81t230.5 81t84.5 236zM475 1271q-39 0 -67 -19.5t-63 -59.5l-68 56q90 125 199 125q56 0 137 -40.5t121 -40.5q39 0 67 19.5t63 59.5l68 -56
q-90 -125 -194 -125q-56 0 -139.5 40.5t-123.5 40.5z" />
    <glyph glyph-name="Umacron" unicode="&#x16a;" horiz-adv-x="1590" 
d="M207 495v863h120v-863q0 -182 125.5 -292.5t341.5 -110.5q214 0 341.5 112t127.5 291v863h120v-863q0 -230 -160 -372.5t-429 -142.5q-272 0 -429.5 140.5t-157.5 374.5zM1093 1562h-592v106h592v-106z" />
    <glyph glyph-name="umacron" unicode="&#x16b;" horiz-adv-x="1207" 
d="M919 409v551h118v-570q0 -182 -116.5 -296t-316.5 -114t-316.5 113t-116.5 291v576h118v-551q0 -155 84.5 -236t230.5 -81t230.5 81t84.5 236zM901 1218h-592v106h592v-106z" />
    <glyph glyph-name="Ubreve" unicode="&#x16c;" horiz-adv-x="1590" 
d="M207 495v863h120v-863q0 -182 125.5 -292.5t341.5 -110.5q214 0 341.5 112t127.5 291v863h120v-863q0 -230 -160 -372.5t-429 -142.5q-272 0 -429.5 140.5t-157.5 374.5zM530 1750h111q5 -70 48.5 -113.5t107.5 -43.5t107.5 43.5t48.5 113.5h111q-6 -115 -80 -186.5
t-187 -71.5q-112 0 -186 71.5t-81 186.5z" />
    <glyph glyph-name="ubreve" unicode="&#x16d;" horiz-adv-x="1207" 
d="M919 409v551h118v-570q0 -182 -116.5 -296t-316.5 -114t-316.5 113t-116.5 291v576h118v-551q0 -155 84.5 -236t230.5 -81t230.5 81t84.5 236zM335 1400h111q5 -70 48.5 -113.5t107.5 -43.5t107.5 43.5t48.5 113.5h111q-6 -115 -80 -186.5t-187 -71.5q-112 0 -186 71.5
t-81 186.5z" />
    <glyph glyph-name="Uring" unicode="&#x16e;" horiz-adv-x="1590" 
d="M207 495v863h120v-863q0 -182 125.5 -292.5t341.5 -110.5q214 0 341.5 112t127.5 291v863h120v-863q0 -230 -160 -372.5t-429 -142.5q-272 0 -429.5 140.5t-157.5 374.5zM579 1693q0 88 63 148t155 60t155 -60t63 -148q0 -87 -63 -146.5t-155 -59.5t-155 59.5t-63 146.5z
M678 1693q0 -51 33 -85t86 -34t86 34t33 85q0 52 -33 86.5t-86 34.5t-86 -34.5t-33 -86.5z" />
    <glyph glyph-name="uring" unicode="&#x16f;" horiz-adv-x="1207" 
d="M919 409v551h118v-570q0 -182 -116.5 -296t-316.5 -114t-316.5 113t-116.5 291v576h118v-551q0 -155 84.5 -236t230.5 -81t230.5 81t84.5 236zM384 1292q0 88 63 148t155 60t155 -60t63 -148q0 -87 -63 -146.5t-155 -59.5t-155 59.5t-63 146.5zM483 1292q0 -51 33 -85
t86 -34t86 34t33 85q0 52 -33 86.5t-86 34.5t-86 -34.5t-33 -86.5z" />
    <glyph glyph-name="Uhungarumlaut" unicode="&#x170;" horiz-adv-x="1590" 
d="M207 495v863h120v-863q0 -182 125.5 -292.5t341.5 -110.5q214 0 341.5 112t127.5 291v863h120v-863q0 -230 -160 -372.5t-429 -142.5q-272 0 -429.5 140.5t-157.5 374.5zM1180 1807l-203 -334h-96l152 334h147zM853 1807l-203 -334h-96l152 334h147z" />
    <glyph glyph-name="uhungarumlaut" unicode="&#x171;" horiz-adv-x="1207" 
d="M919 409v551h118v-570q0 -182 -116.5 -296t-316.5 -114t-316.5 113t-116.5 291v576h118v-551q0 -155 84.5 -236t230.5 -81t230.5 81t84.5 236zM672 1449l-203 -334h-96l152 334h147zM999 1449l-203 -334h-96l152 334h147z" />
    <glyph glyph-name="Uogonek" unicode="&#x172;" horiz-adv-x="1590" 
d="M207 495v863h120v-863q0 -182 125.5 -292.5t341.5 -110.5q214 0 341.5 112t127.5 291v863h120v-863q0 -188 -108.5 -319.5t-299.5 -175.5h1q-94 -57 -150 -120.5t-56 -113.5q0 -45 30 -71t85 -26t124 33l32 -94q-72 -45 -173 -45q-99 0 -154.5 50t-55.5 136
q0 128 158 232q-4 0 -11.5 -0.5t-10.5 -0.5q-272 0 -429.5 140.5t-157.5 374.5z" />
    <glyph glyph-name="uogonek" unicode="&#x173;" horiz-adv-x="1207" 
d="M919 409v551h118v-570q0 -144 -74.5 -247.5t-207.5 -142.5q-94 -57 -150 -120.5t-56 -113.5q0 -45 30 -71t85 -26t124 33l32 -94q-72 -45 -173 -45q-99 0 -154.5 50t-55.5 136q0 127 157 231q-195 3 -309 115.5t-114 288.5v576h118v-551q0 -155 84.5 -236t230.5 -81
t230.5 81t84.5 236z" />
    <glyph glyph-name="Wcircumflex" unicode="&#x174;" horiz-adv-x="2032" 
d="M469 0l-425 1358h127l375 -1208l406 1208h128l406 -1207l375 1207h127l-425 -1358h-145l-403 1206l-401 -1206h-145zM1059 1839l263 -368h-123l-174 256l-178 -256h-123l263 368h72z" />
    <glyph glyph-name="wcircumflex" unicode="&#x175;" horiz-adv-x="1614" 
d="M743 950h128l296 -841l266 851h128l-316 -960h-156l-282 774l-282 -774h-156l-316 960h128l266 -850zM843 1455l263 -368h-123l-174 256l-178 -256h-123l263 368h72z" />
    <glyph glyph-name="Ycircumflex" unicode="&#x176;" horiz-adv-x="1226" 
d="M19 1358h142l452 -694l452 694h142l-534 -818v-540h-120v539zM651 1839l263 -368h-123l-174 256l-178 -256h-123l263 368h72z" />
    <glyph glyph-name="ycircumflex" unicode="&#x177;" horiz-adv-x="1025" 
d="M518 108l345 852h132l-446 -1082q-66 -155 -145.5 -226.5t-192.5 -71.5q-111 0 -169 32l16 105q64 -27 144 -27q135 0 236 236l13 34l-416 1000h128zM552 1455l263 -368h-123l-174 256l-178 -256h-123l263 368h72z" />
    <glyph glyph-name="Ydieresis" unicode="&#x178;" horiz-adv-x="1226" 
d="M19 1358h142l452 -694l452 694h142l-534 -818v-540h-120v539zM789 1541q-33 0 -54 21t-21 54t21 54t54 21t54.5 -21t21.5 -54t-21.5 -54t-54.5 -21zM439 1541q-33 0 -54 21t-21 54t21 54t54 21t54.5 -21t21.5 -54t-21.5 -54t-54.5 -21z" />
    <glyph glyph-name="Zacute" unicode="&#x179;" horiz-adv-x="1261" 
d="M107 100l888 1148h-868v110h1005v-133l-869 -1115h893v-110h-1049v100zM823 1807l-173 -334h-107l142 334h138z" />
    <glyph glyph-name="zacute" unicode="&#x17a;" horiz-adv-x="917" 
d="M106 0v103l549 751h-544v106h690v-103l-550 -751h576v-106h-721zM657 1449l-173 -334h-107l142 334h138z" />
    <glyph glyph-name="Zdotaccent" unicode="&#x17b;" horiz-adv-x="1261" 
d="M107 100l888 1148h-868v110h1005v-133l-869 -1115h893v-110h-1049v100zM626 1541q-33 0 -54 21t-21 54t21 54t54 21t54.5 -21t21.5 -54t-21.5 -54t-54.5 -21z" />
    <glyph glyph-name="zdotaccent" unicode="&#x17c;" horiz-adv-x="917" 
d="M106 0v103l549 751h-544v106h690v-103l-550 -751h576v-106h-721zM476 1205q-33 0 -54 21t-21 54t21 54t54 21t54.5 -21t21.5 -54t-21.5 -54t-54.5 -21z" />
    <glyph glyph-name="Zcaron" unicode="&#x17d;" horiz-adv-x="1261" 
d="M107 100l888 1148h-868v110h1005v-133l-869 -1115h893v-110h-1049v100zM603 1467l-263 368h123l174 -256l178 256h123l-263 -368h-72z" />
    <glyph glyph-name="zcaron" unicode="&#x17e;" horiz-adv-x="917" 
d="M106 0v103l549 751h-544v106h690v-103l-550 -751h576v-106h-721zM427 1087l-263 368h123l174 -256l178 256h123l-263 -368h-72z" />
    <glyph glyph-name="Schwa" unicode="&#x18f;" horiz-adv-x="1500" 
d="M116 651q0 22 4 78h1139q-11 237 -170.5 385t-406.5 148q-140 0 -244 -25t-225 -86l-29 116q220 112 497 112q317 0 508 -193.5t191 -513.5q0 -316 -173.5 -503.5t-465.5 -187.5q-289 0 -457 180t-168 490zM741 89q236 0 376 145t140 389h-1025q0 -246 137.5 -390
t371.5 -144z" />
    <glyph glyph-name="florin" unicode="&#x192;" horiz-adv-x="1126" 
d="M455 374l48 401h-195l12 97h198l19 155q16 160 116.5 250.5t258.5 90.5q86 0 138 -25l-21 -94q-49 19 -106 19q-242 0 -274 -251l-18 -145h300l-12 -97h-297l-51 -403q-24 -188 -120.5 -290t-245.5 -102q-35 0 -77.5 9.5t-61.5 21.5l25 93q37 -23 108 -23
q109 0 174.5 78.5t81.5 214.5z" />
    <glyph glyph-name="Nhookleft" unicode="&#x19d;" horiz-adv-x="1675" 
d="M1452 1358v-1358h-135l-981 1193v-1326q0 -135 -69 -211t-193 -76q-83 0 -133 25l15 103q47 -20 111 -20q73 0 110.5 48.5t37.5 141.5v1480h136l980 -1190v1190h121z" />
    <glyph glyph-name="Gcaron" unicode="&#x1e6;" horiz-adv-x="1539" 
d="M1337 1277l-11 -117q-193 103 -445 103q-286 0 -464.5 -161t-178.5 -420q0 -263 183 -427t477 -164q247 0 379 77v457h-472v109h587v-636q-193 -118 -485 -118q-233 0 -413.5 88t-280 247.5t-99.5 365.5q0 205 96.5 363.5t272.5 246t402 87.5q249 0 452 -101zM835 1467
l-263 368h123l174 -256l178 256h123l-263 -368h-72z" />
    <glyph glyph-name="gcaron" unicode="&#x1e7;" horiz-adv-x="1295" 
d="M989 185q-57 -91 -162 -148t-236 -57q-207 0 -346.5 144.5t-139.5 356.5q0 211 139.5 355t346.5 144q131 0 236 -56t162 -146v182h120v-887q0 -81 -21 -154t-64.5 -135t-107.5 -107.5t-154.5 -71t-199.5 -25.5q-82 0 -187 20t-181 59l20 111q165 -81 351 -81
q121 0 214.5 38t151.5 122t58 205v131zM599 870q-161 0 -268.5 -112t-107.5 -277q0 -166 107.5 -278.5t268.5 -112.5q169 0 282.5 112.5t113.5 278.5q0 165 -113.5 277t-282.5 112zM564 1087l-263 368h123l174 -256l178 256h123l-263 -368h-72z" />
    <glyph glyph-name="Oogonek" unicode="&#x1ea;" horiz-adv-x="1661" 
d="M115 672q0 202 93 363.5t255.5 252t363.5 90.5q204 0 368.5 -90.5t257.5 -252t93 -363.5q0 -254 -146 -435.5t-385 -236.5h1q-94 -57 -150 -120.5t-56 -113.5q0 -45 30 -71t85 -26t124 33l32 -94q-72 -45 -173 -45q-99 0 -154.5 50t-55.5 136q0 128 156 231q-9 -1 -27 -1
q-201 0 -363.5 87.5t-255.5 246.5t-93 359zM235 672q0 -168 77 -301.5t212.5 -207.5t302.5 -74q259 0 429 164t170 419q0 259 -170 427.5t-429 168.5q-125 0 -235 -45t-188.5 -123t-123.5 -189t-45 -239z" />
    <glyph glyph-name="oogonek" unicode="&#x1eb;" horiz-adv-x="1224" 
d="M102 480q0 212 146 356t364 144t364 -144t146 -356q0 -173 -100.5 -304t-262.5 -176q-94 -57 -150 -120.5t-56 -113.5q0 -45 30 -71t85 -26t124 33l32 -94q-72 -45 -173 -45q-99 0 -154.5 50t-55.5 136q0 129 157 232q-140 3 -254 69.5t-178 179.5t-64 250zM222 480
q0 -165 111.5 -277.5t278.5 -112.5t278.5 112.5t111.5 277.5t-111.5 277.5t-278.5 112.5t-278.5 -112.5t-111.5 -277.5z" />
    <glyph glyph-name="Aringacute" unicode="&#x1fa;" horiz-adv-x="1319" 
d="M741 1358l561 -1358h-122l-144 347h-748l-143 -347h-126l565 1358h157zM662 1250l-329 -796h659zM445 1693q0 88 63 148t155 60t155 -60t63 -148q0 -87 -63 -146.5t-155 -59.5t-155 59.5t-63 146.5zM544 1693q0 -51 33 -85t86 -34t86 34t33 85q0 52 -33 86.5t-86 34.5
t-86 -34.5t-33 -86.5zM919 2293l-173 -334h-107l142 334h138z" />
    <glyph glyph-name="aringacute" unicode="&#x1fb;" horiz-adv-x="1295" 
d="M1109 960v-960h-120v185q-57 -91 -162 -148t-236 -57q-207 0 -346.5 144.5t-139.5 356.5q0 211 139.5 355t346.5 144q131 0 236 -56t162 -146v182h120zM599 870q-161 0 -268.5 -112t-107.5 -277q0 -166 107.5 -278.5t268.5 -112.5q169 0 282.5 112.5t113.5 278.5
q0 165 -113.5 277t-282.5 112zM819 1908l-173 -334h-107l142 334h138zM373 1292q0 88 63 148t155 60t155 -60t63 -148q0 -87 -63 -146.5t-155 -59.5t-155 59.5t-63 146.5zM472 1292q0 -51 33 -85t86 -34t86 34t33 85q0 52 -33 86.5t-86 34.5t-86 -34.5t-33 -86.5z" />
    <glyph glyph-name="AEacute" unicode="&#x1fc;" horiz-adv-x="1952" 
d="M875 0v347h-556l-213 -347h-139l835 1358h1014v-108h-821v-497h716v-109h-716v-536h843v-108h-963zM875 1250l-490 -796h490v796zM1491 1807l-173 -334h-107l142 334h138z" />
    <glyph glyph-name="aeacute" unicode="&#x1fd;" horiz-adv-x="1796" 
d="M1610 182l26 -107q-141 -95 -317 -95q-153 0 -270.5 67.5t-178.5 187.5q-49 -117 -169.5 -186t-262.5 -69q-155 0 -249 74t-94 202q0 138 118 216.5t312 78.5q147 0 294 -35v78q0 129 -84 200.5t-245 71.5q-77 0 -166.5 -20.5t-153.5 -52.5l-13 110q70 34 164 55.5
t175 21.5q147 0 249 -51t151 -145q61 92 157 143.5t213 51.5q149 0 253.5 -76.5t145.5 -197t20 -259.5h-744q9 -109 65 -191t134.5 -121.5t164.5 -39.5q88 0 157.5 17t147.5 71zM442 79q139 0 246 81t131 192v73q-145 32 -299 32q-139 0 -222 -50.5t-83 -143.5
q0 -85 62.5 -134.5t164.5 -49.5zM944 548h629q-6 141 -87 231t-216 90q-134 0 -225 -91t-101 -230zM1100 1449l-173 -334h-107l142 334h138z" />
    <glyph glyph-name="Oslashacute" unicode="&#x1fe;" horiz-adv-x="1662" 
d="M116 672q0 202 93 363.5t255.5 252t363.5 90.5t367 -91l115 165l88 -68l-110 -158q122 -96 190.5 -239.5t68.5 -314.5q0 -150 -54.5 -279.5t-150 -220t-228.5 -142t-286 -51.5q-194 0 -352 82l-117 -167l-85 69l109 156q-126 94 -196.5 237t-70.5 316zM236 672
q0 -143 56 -261t157 -197l681 980q-137 74 -302 74q-254 0 -423 -169t-169 -427zM1427 672q0 141 -54 259.5t-151 199.5l-681 -976q132 -66 287 -66q259 0 429 164t170 419zM1094 1807l-173 -334h-107l142 334h138z" />
    <glyph glyph-name="oslashacute" unicode="&#x1ff;" horiz-adv-x="1137" 
d="M59 480q0 212 146 356t364 144q155 0 281 -79l145 180l79 -64l-145 -178q71 -68 110.5 -161t39.5 -198q0 -212 -146 -356t-364 -144q-153 0 -276 75l-139 -171l-76 60l137 170q-74 69 -115 163.5t-41 202.5zM179 480q0 -163 109 -275l490 607q-92 58 -209 58
q-167 0 -278.5 -112.5t-111.5 -277.5zM959 480q0 157 -103 268l-491 -604q94 -54 204 -54q167 0 278.5 112.5t111.5 277.5zM829 1449l-173 -334h-107l142 334h138z" />
    <glyph glyph-name="Scommaaccent" unicode="&#x218;" horiz-adv-x="1154" 
d="M697 596l-241 82q-165 57 -249 133.5t-84 201.5q0 171 126 268t348 97q204 0 386 -74l-16 -107q-189 73 -367 73q-165 0 -258.5 -67.5t-93.5 -186.5q0 -40 14.5 -73t35 -54t57 -41t65 -31t75.5 -28l9 -3l227 -78q179 -63 251.5 -146t72.5 -213q0 -173 -129.5 -271
t-359.5 -98q-218 0 -441 93l14 119q99 -48 212.5 -75t212.5 -27q175 0 274 70.5t99 194.5q0 84 -54.5 139.5t-185.5 101.5zM504 -508l14 380h136l-52 -380h-98z" />
    <glyph glyph-name="scommaaccent" unicode="&#x219;" horiz-adv-x="930" 
d="M464 543l89 -17q140 -27 212 -93t72 -166q0 -134 -98.5 -210.5t-273.5 -76.5q-201 0 -355 72l19 114q125 -76 327 -76q123 0 193 43.5t70 120.5q0 75 -60 112t-183 60l-107 20q-264 50 -264 247q0 134 101.5 210.5t279.5 76.5q173 0 293 -48l-20 -106q-125 47 -263 47
q-125 0 -196 -45t-71 -124q0 -31 11 -54.5t28.5 -39.5t49.5 -29t64 -21t82 -17zM402 -508l14 380h136l-52 -380h-98z" />
    <glyph glyph-name="uni021A" unicode="&#x21a;" horiz-adv-x="1118" 
d="M1080 1248h-461v-1248h-16l-35 -102q91 -7 146.5 -50t55.5 -112q0 -81 -64 -127t-177 -46q-75 0 -129 18v99q57 -19 119 -19q139 0 139 75q0 81 -161 81h-49l67 183h-16v1248h-461v110h1042v-110z" />
    <glyph glyph-name="uni021B" unicode="&#x21b;" horiz-adv-x="752" 
d="M397 -183h-49l65 178q-85 26 -132.5 94.5t-47.5 178.5v586h-183v106h182v308h122v-308h328v-106h-328v-557q0 -107 47.5 -158t126.5 -51q106 0 173 30l16 -103q-28 -14 -83 -24.5t-112 -10.5q-18 0 -26 1l-28 -83q91 -7 146.5 -50t55.5 -112q0 -81 -64 -127t-177 -46
q-75 0 -129 18v99q57 -19 119 -19q139 0 139 75q0 81 -161 81z" />
    <glyph glyph-name="dotlessj" unicode="&#x237;" horiz-adv-x="502" 
d="M196 -112v1072h120v-1083q0 -140 -71.5 -218.5t-199.5 -78.5q-90 0 -143 25l15 103q52 -20 121 -20q78 0 118 51t40 149z" />
    <glyph glyph-name="schwa" unicode="&#x259;" horiz-adv-x="1169" 
d="M187 778l-26 107q158 95 357 95q243 0 395 -139t152 -361q0 -216 -139 -358t-355 -142q-163 0 -277.5 78.5t-159.5 201.5t-22 264h824q-14 157 -134 249.5t-270 92.5q-99 0 -178 -17t-167 -71zM933 422h-709q7 -145 98.5 -236.5t244.5 -91.5q152 0 253.5 92t112.5 236z
" />
    <glyph glyph-name="nhookleft" unicode="&#x272;" horiz-adv-x="1248" 
d="M669 980q186 0 296.5 -102t110.5 -292v-586h-118v550q0 159 -78.5 238.5t-229.5 79.5q-139 0 -234 -91.5t-95 -232.5v-544h1v-133q0 -135 -69 -211t-193 -76q-83 0 -133 25l15 103q47 -20 111 -20q73 0 110.5 48.5t37.5 141.5v1082h120v-167q55 93 148 140t200 47z" />
    <glyph glyph-name="circumflex" unicode="&#x2c6;" horiz-adv-x="978" 
d="M525 1839l263 -368h-123l-174 256l-178 -256h-123l263 368h72z" />
    <glyph glyph-name="caron" unicode="&#x2c7;" horiz-adv-x="978" 
d="M453 1467l-263 368h123l174 -256l178 256h123l-263 -368h-72z" />
    <glyph glyph-name="breve" unicode="&#x2d8;" horiz-adv-x="888" 
d="M177 1750h111q5 -70 48.5 -113.5t107.5 -43.5t107.5 43.5t48.5 113.5h111q-6 -115 -80 -186.5t-187 -71.5q-112 0 -186 71.5t-81 186.5z" />
    <glyph glyph-name="dotaccent" unicode="&#x2d9;" horiz-adv-x="531" 
d="M265 1541q-33 0 -54 21t-21 54t21 54t54 21t54.5 -21t21.5 -54t-21.5 -54t-54.5 -21z" />
    <glyph glyph-name="ring" unicode="&#x2da;" horiz-adv-x="816" 
d="M190 1693q0 88 63 148t155 60t155 -60t63 -148q0 -87 -63 -146.5t-155 -59.5t-155 59.5t-63 146.5zM289 1693q0 -51 33 -85t86 -34t86 34t33 85q0 52 -33 86.5t-86 34.5t-86 -34.5t-33 -86.5z" />
    <glyph glyph-name="ogonek" unicode="&#x2db;" horiz-adv-x="697" 
d="M409 28l75 -28q-94 -57 -150 -120.5t-56 -113.5q0 -45 30 -71t85 -26t124 33l32 -94q-72 -45 -173 -45q-99 0 -154.5 50t-55.5 136q0 84 66.5 155t176.5 124z" />
    <glyph glyph-name="tilde" unicode="&#x2dc;" horiz-adv-x="1035" 
d="M388 1627q-39 0 -67 -19.5t-63 -59.5l-68 56q90 125 199 125q56 0 137 -40.5t121 -40.5q39 0 67 19.5t63 59.5l68 -56q-90 -125 -194 -125q-56 0 -139.5 40.5t-123.5 40.5z" />
    <glyph glyph-name="hungarumlaut" unicode="&#x2dd;" horiz-adv-x="1006" 
d="M489 1807l-203 -334h-96l152 334h147zM816 1807l-203 -334h-96l152 334h147z" />
    <glyph glyph-name="acutecomb" unicode="&#x301;" horiz-adv-x="660" 
d="M470 2277l-173 -334h-107l142 334h138z" />
    <glyph glyph-name="pi" unicode="&#x3c0;" horiz-adv-x="1252" 
d="M1121 1103v-115h-187v-639q0 -156 44.5 -214.5t166.5 -49.5v-98q-28 -4 -59 -4q-265 0 -265 317v688h-470v-987h-114v987h-178v115h1062z" />
    <glyph glyph-name="Wgrave" unicode="&#x1e80;" horiz-adv-x="2032" 
d="M469 0l-425 1358h127l375 -1208l406 1208h128l406 -1207l375 1207h127l-425 -1358h-145l-403 1206l-401 -1206h-145zM765 1807h138l142 -334h-107z" />
    <glyph glyph-name="wgrave" unicode="&#x1e81;" horiz-adv-x="1614" 
d="M743 950h128l296 -841l266 851h128l-316 -960h-156l-282 774l-282 -774h-156l-316 960h128l266 -850zM569 1449h138l142 -334h-107z" />
    <glyph glyph-name="Wacute" unicode="&#x1e82;" horiz-adv-x="2032" 
d="M469 0l-425 1358h127l375 -1208l406 1208h128l406 -1207l375 1207h127l-425 -1358h-145l-403 1206l-401 -1206h-145zM1260 1807l-173 -334h-107l142 334h138z" />
    <glyph glyph-name="wacute" unicode="&#x1e83;" horiz-adv-x="1614" 
d="M743 950h128l296 -841l266 851h128l-316 -960h-156l-282 774l-282 -774h-156l-316 960h128l266 -850zM1034 1449l-173 -334h-107l142 334h138z" />
    <glyph glyph-name="Wdieresis" unicode="&#x1e84;" horiz-adv-x="2032" 
d="M469 0l-425 1358h127l375 -1208l406 1208h128l406 -1207l375 1207h127l-425 -1358h-145l-403 1206l-401 -1206h-145zM845 1541q-33 0 -54 21t-21 54t21 54t54 21t54.5 -21t21.5 -54t-21.5 -54t-54.5 -21zM1195 1541q-33 0 -54 21t-21 54t21 54t54 21t54.5 -21t21.5 -54
t-21.5 -54t-54.5 -21z" />
    <glyph glyph-name="wdieresis" unicode="&#x1e85;" horiz-adv-x="1614" 
d="M743 950h128l296 -841l266 851h128l-316 -960h-156l-282 774l-282 -774h-156l-316 960h128l266 -850zM629 1206q-33 0 -54 21t-21 54t21 54t54 21t54.5 -21t21.5 -54t-21.5 -54t-54.5 -21zM979 1206q-33 0 -54 21t-21 54t21 54t54 21t54.5 -21t21.5 -54t-21.5 -54
t-54.5 -21z" />
    <glyph glyph-name="uni1E9E" unicode="&#x1e9e;" horiz-adv-x="1416" 
d="M1197 1149l-373 -393q216 -2 349.5 -106.5t133.5 -271.5q0 -179 -119 -288.5t-320 -109.5q-166 0 -281 46l13 110q134 -46 262 -46q158 0 242.5 75.5t84.5 202.5q0 135 -105.5 211t-285.5 76q-26 0 -67 -2.5t-49 -2.5v103l403 424q-134 91 -343 91q-196 0 -307 -120
t-111 -332v-816h-120v833q0 256 146 400.5t403 144.5q241 0 444 -143v-86z" />
    <glyph glyph-name="Adotbelow" unicode="&#x1ea0;" horiz-adv-x="1319" 
d="M741 1358l561 -1358h-122l-144 347h-748l-143 -347h-126l565 1358h157zM662 1250l-329 -796h659zM660 -357q-33 0 -54 21t-21 54t21 54t54 21t54.5 -21t21.5 -54t-21.5 -54t-54.5 -21z" />
    <glyph glyph-name="adotbelow" unicode="&#x1ea1;" horiz-adv-x="1295" 
d="M1109 960v-960h-120v185q-57 -91 -162 -148t-236 -57q-207 0 -346.5 144.5t-139.5 356.5q0 211 139.5 355t346.5 144q131 0 236 -56t162 -146v182h120zM599 870q-161 0 -268.5 -112t-107.5 -277q0 -166 107.5 -278.5t268.5 -112.5q169 0 282.5 112.5t113.5 278.5
q0 165 -113.5 277t-282.5 112zM608 -357q-33 0 -54 21t-21 54t21 54t54 21t54.5 -21t21.5 -54t-21.5 -54t-54.5 -21z" />
    <glyph glyph-name="Edotbelow" unicode="&#x1eb8;" horiz-adv-x="1320" 
d="M1206 0h-983v1358h961v-108h-841v-497h736v-109h-736v-536h863v-108zM729 -357q-33 0 -54 21t-21 54t21 54t54 21t54.5 -21t21.5 -54t-21.5 -54t-54.5 -21z" />
    <glyph glyph-name="edotbelow" unicode="&#x1eb9;" horiz-adv-x="1169" 
d="M982 182l26 -107q-158 -95 -357 -95q-243 0 -395 139t-152 361q0 216 139 358t355 142q163 0 277.5 -78.5t159.5 -201.5t22 -264h-824q14 -157 134 -249.5t270 -92.5q99 0 178 17t167 71zM236 538h709q-7 145 -98.5 236.5t-244.5 91.5q-152 0 -253.5 -92t-112.5 -236z
M633 -357q-33 0 -54 21t-21 54t21 54t54 21t54.5 -21t21.5 -54t-21.5 -54t-54.5 -21z" />
    <glyph glyph-name="Etilde" unicode="&#x1ebc;" horiz-adv-x="1320" 
d="M1206 0h-983v1358h961v-108h-841v-497h736v-109h-736v-536h863v-108zM581 1627q-39 0 -67 -19.5t-63 -59.5l-68 56q90 125 199 125q56 0 137 -40.5t121 -40.5q39 0 67 19.5t63 59.5l68 -56q-90 -125 -194 -125q-56 0 -139.5 40.5t-123.5 40.5z" />
    <glyph glyph-name="etilde" unicode="&#x1ebd;" horiz-adv-x="1169" 
d="M982 182l26 -107q-158 -95 -357 -95q-243 0 -395 139t-152 361q0 216 139 358t355 142q163 0 277.5 -78.5t159.5 -201.5t22 -264h-824q14 -157 134 -249.5t270 -92.5q99 0 178 17t167 71zM236 538h709q-7 145 -98.5 236.5t-244.5 91.5q-152 0 -253.5 -92t-112.5 -236z
M455 1271q-39 0 -67 -19.5t-63 -59.5l-68 56q90 125 199 125q56 0 137 -40.5t121 -40.5q39 0 67 19.5t63 59.5l68 -56q-90 -125 -194 -125q-56 0 -139.5 40.5t-123.5 40.5z" />
    <glyph glyph-name="Idotbelow" unicode="&#x1eca;" horiz-adv-x="566" 
d="M223 0v1358h120v-1358h-120zM286 -357q-33 0 -54 21t-21 54t21 54t54 21t54.5 -21t21.5 -54t-21.5 -54t-54.5 -21z" />
    <glyph glyph-name="idotbelow" unicode="&#x1ecb;" horiz-adv-x="492" 
d="M186 0v960h120v-960h-120zM246 1207q-33 0 -54 21t-21 54t21 54t54 21t54.5 -21t21.5 -54t-21.5 -54t-54.5 -21zM252 -357q-33 0 -54 21t-21 54t21 54t54 21t54.5 -21t21.5 -54t-21.5 -54t-54.5 -21z" />
    <glyph glyph-name="Odotbelow" unicode="&#x1ecc;" horiz-adv-x="1661" 
d="M115 672q0 202 93 363.5t255.5 252t363.5 90.5q204 0 368.5 -90.5t257.5 -252t93 -363.5q0 -150 -54.5 -279.5t-150 -220t-228.5 -142t-286 -51.5q-201 0 -363.5 87.5t-255.5 246.5t-93 359zM235 672q0 -168 77 -301.5t212.5 -207.5t302.5 -74q259 0 429 164t170 419
q0 259 -170 427.5t-429 168.5q-125 0 -235 -45t-188.5 -123t-123.5 -189t-45 -239zM836 -357q-33 0 -54 21t-21 54t21 54t54 21t54.5 -21t21.5 -54t-21.5 -54t-54.5 -21z" />
    <glyph glyph-name="odotbelow" unicode="&#x1ecd;" horiz-adv-x="1224" 
d="M102 480q0 212 146 356t364 144t364 -144t146 -356t-146 -356t-364 -144t-364 144t-146 356zM222 480q0 -165 111.5 -277.5t278.5 -112.5t278.5 112.5t111.5 277.5t-111.5 277.5t-278.5 112.5t-278.5 -112.5t-111.5 -277.5zM623 -357q-33 0 -54 21t-21 54t21 54t54 21
t54.5 -21t21.5 -54t-21.5 -54t-54.5 -21z" />
    <glyph glyph-name="Udotbelow" unicode="&#x1ee4;" horiz-adv-x="1590" 
d="M207 495v863h120v-863q0 -182 125.5 -292.5t341.5 -110.5q214 0 341.5 112t127.5 291v863h120v-863q0 -230 -160 -372.5t-429 -142.5q-272 0 -429.5 140.5t-157.5 374.5zM795 -357q-33 0 -54 21t-21 54t21 54t54 21t54.5 -21t21.5 -54t-21.5 -54t-54.5 -21z" />
    <glyph glyph-name="udotbelow" unicode="&#x1ee5;" horiz-adv-x="1207" 
d="M919 409v551h118v-570q0 -182 -116.5 -296t-316.5 -114t-316.5 113t-116.5 291v576h118v-551q0 -155 84.5 -236t230.5 -81t230.5 81t84.5 236zM613 -357q-33 0 -54 21t-21 54t21 54t54 21t54.5 -21t21.5 -54t-21.5 -54t-54.5 -21z" />
    <glyph glyph-name="Ygrave" unicode="&#x1ef2;" horiz-adv-x="1226" 
d="M19 1358h142l452 -694l452 694h142l-534 -818v-540h-120v539zM382 1807h138l142 -334h-107z" />
    <glyph glyph-name="ygrave" unicode="&#x1ef3;" horiz-adv-x="1025" 
d="M518 108l345 852h132l-446 -1082q-66 -155 -145.5 -226.5t-192.5 -71.5q-111 0 -169 32l16 105q64 -27 144 -27q135 0 236 236l13 34l-416 1000h128zM268 1449h138l142 -334h-107z" />
    <glyph glyph-name="Ytilde" unicode="&#x1ef8;" horiz-adv-x="1226" 
d="M19 1358h142l452 -694l452 694h142l-534 -818v-540h-120v539zM493 1627q-39 0 -67 -19.5t-63 -59.5l-68 56q90 125 199 125q56 0 137 -40.5t121 -40.5q39 0 67 19.5t63 59.5l68 -56q-90 -125 -194 -125q-56 0 -139.5 40.5t-123.5 40.5z" />
    <glyph glyph-name="ytilde" unicode="&#x1ef9;" horiz-adv-x="1025" 
d="M518 108l345 852h132l-446 -1082q-66 -155 -145.5 -226.5t-192.5 -71.5q-111 0 -169 32l16 105q64 -27 144 -27q135 0 236 236l13 34l-416 1000h128zM376 1271q-39 0 -67 -19.5t-63 -59.5l-68 56q90 125 199 125q56 0 137 -40.5t121 -40.5q39 0 67 19.5t63 59.5l68 -56
q-90 -125 -194 -125q-56 0 -139.5 40.5t-123.5 40.5z" />
    <glyph glyph-name="endash" unicode="&#x2013;" horiz-adv-x="1310" 
d="M1148 637v-119h-986v119h986z" />
    <glyph glyph-name="emdash" unicode="&#x2014;" horiz-adv-x="2352" 
d="M2190 637v-119h-2028v119h2028z" />
    <glyph glyph-name="quoteleft" unicode="&#x2018;" horiz-adv-x="410" 
d="M227 994h-125l125 434h105z" />
    <glyph glyph-name="quoteright" unicode="&#x2019;" horiz-adv-x="400" 
d="M218 1428h125l-125 -434h-105z" />
    <glyph glyph-name="quotesinglbase" unicode="&#x201a;" horiz-adv-x="396" 
d="M131 179h125l-125 -434h-106z" />
    <glyph glyph-name="quotedblleft" unicode="&#x201c;" horiz-adv-x="640" 
d="M227 994h-125l125 434h105zM457 994h-125l125 434h105z" />
    <glyph glyph-name="quotedblright" unicode="&#x201d;" horiz-adv-x="630" 
d="M448 1428h125l-125 -434h-105zM218 1428h125l-125 -434h-105z" />
    <glyph glyph-name="quotedblbase" unicode="&#x201e;" horiz-adv-x="633" 
d="M361 179h125l-125 -434h-105zM131 179h125l-125 -434h-105z" />
    <glyph glyph-name="dagger" unicode="&#x2020;" horiz-adv-x="775" 
d="M680 1301v-104h-234v-690h-119v690h-232v104h232v306h119v-306h234z" />
    <glyph glyph-name="daggerdbl" unicode="&#x2021;" horiz-adv-x="855" 
d="M720 1374v-104h-234v-425h234v-104h-234v-264h-119v264h-232v104h232v425h-232v104h232v264h119v-264h234z" />
    <glyph glyph-name="bullet" unicode="&#x2022;" horiz-adv-x="697" 
d="M347 521q-66 0 -109 43t-43 109q0 67 43 110.5t109 43.5q68 0 111.5 -43.5t43.5 -110.5q0 -66 -44 -109t-111 -43z" />
    <glyph glyph-name="ellipsis" unicode="&#x2026;" horiz-adv-x="1246" 
d="M204 -7q-33 0 -54 21t-21 54t21 54t54 21t54.5 -21t21.5 -54t-21.5 -54t-54.5 -21zM623 -7q-33 0 -54 21t-21 54t21 54t54 21t54.5 -21t21.5 -54t-21.5 -54t-54.5 -21zM1042 -7q-33 0 -54 21t-21 54t21 54t54 21t54.5 -21t21.5 -54t-21.5 -54t-54.5 -21z" />
    <glyph glyph-name="perthousand" unicode="&#x2030;" horiz-adv-x="2730" 
d="M49 1036q0 145 100 243.5t249 98.5t248.5 -98.5t99.5 -243.5t-99.5 -243t-248.5 -98t-249 98.5t-100 242.5zM993 321q0 145 100 243.5t249 98.5t248.5 -98.5t99.5 -243.5t-99.5 -243t-248.5 -98t-249 98.5t-100 242.5zM1790 321q0 145 100 243.5t249 98.5t248.5 -98.5
t99.5 -243.5t-99.5 -243t-248.5 -98t-249 98.5t-100 242.5zM157 1036q0 -102 68.5 -171.5t172.5 -69.5t172.5 69.5t68.5 171.5q0 103 -68.5 172.5t-172.5 69.5t-172.5 -69.5t-68.5 -172.5zM1101 321q0 -102 68.5 -171.5t172.5 -69.5t172.5 69.5t68.5 171.5
q0 103 -68.5 172.5t-172.5 69.5t-172.5 -69.5t-68.5 -172.5zM1898 321q0 -102 68.5 -171.5t172.5 -69.5t172.5 69.5t68.5 171.5q0 103 -68.5 172.5t-172.5 69.5t-172.5 -69.5t-68.5 -172.5zM452 0v26l734 1332h103v-24l-732 -1334h-105z" />
    <glyph glyph-name="guilsinglleft" unicode="&#x2039;" horiz-adv-x="605" 
d="M498 86h-130l-272 394l272 395h130l-264 -395z" />
    <glyph glyph-name="guilsinglright" unicode="&#x203a;" horiz-adv-x="605" 
d="M237 86h-130l264 394l-264 395h130l272 -395z" />
    <glyph glyph-name="fraction" unicode="&#x2044;" horiz-adv-x="457" 
d="M-188 0v26l734 1332h103v-24l-732 -1334h-105z" />
    <glyph glyph-name="zerosuperior" unicode="&#x2070;" horiz-adv-x="880" 
d="M439 513q-72 0 -130 23.5t-97 64t-65.5 96t-38.5 117.5t-12 131q0 88 19.5 163.5t59 137t107.5 97t157 35.5q73 0 131.5 -23.5t98 -64t66 -96.5t38 -118t11.5 -131q0 -88 -19.5 -163t-59 -136.5t-108 -97t-158.5 -35.5zM203 945q0 -91 23.5 -164.5t78 -122t134.5 -48.5
q61 0 108 27.5t75 75t42 106.5t14 126q0 92 -23 165.5t-78.5 123t-137.5 49.5q-60 0 -106.5 -28t-74 -76t-41.5 -107.5t-14 -126.5z" />
    <glyph glyph-name="foursuperior" unicode="&#x2074;" horiz-adv-x="758" 
d="M452 1358l-267 -528h286v228h107v-228h120v-95h-120v-205h-107v205h-411v77l271 546h121z" />
    <glyph glyph-name="fivesuperior" unicode="&#x2075;" horiz-adv-x="751" 
d="M151 935l-27 37l42 386h458v-96h-370l-23 -216q39 8 97 8q63 0 121 -15.5t107.5 -46t79 -83t29.5 -120.5q0 -74 -27.5 -130t-75.5 -87.5t-105.5 -46.5t-125.5 -15q-141 0 -250 49l11 105q117 -57 225 -57q65 0 116 15.5t85.5 55.5t34.5 101q0 94 -69.5 138t-171.5 44
q-76 0 -161 -26z" />
    <glyph glyph-name="sixsuperior" unicode="&#x2076;" horiz-adv-x="810" 
d="M417 609q93 0 148.5 49.5t55.5 132.5q0 92 -56.5 139t-139.5 47q-82 0 -143 -49t-61 -135q0 -79 53 -131.5t143 -52.5zM459 1378q108 0 213 -42l-10 -102q-99 50 -201 50q-232 0 -255 -303q91 91 227 91q121 0 208.5 -73.5t87.5 -203.5t-87 -205t-231 -75
q-82 0 -144 29.5t-98.5 82t-54 119t-17.5 146.5q0 486 362 486z" />
    <glyph glyph-name="sevensuperior" unicode="&#x2077;" horiz-adv-x="623" 
d="M239 530h-116l330 727h-394v101h520v-78z" />
    <glyph glyph-name="eightsuperior" unicode="&#x2078;" horiz-adv-x="826" 
d="M413 1378q127 0 211.5 -63t84.5 -171q0 -116 -115 -179q135 -66 135 -211q0 -111 -90 -175t-226 -64q-135 0 -225.5 64.5t-90.5 174.5q0 144 135 211q-115 65 -115 179q0 108 85 171t211 63zM413 919q-91 0 -149.5 -41.5t-58.5 -119.5q0 -70 59.5 -109.5t148.5 -39.5
q90 0 149.5 39.5t59.5 109.5q0 78 -59 119.5t-150 41.5zM413 1285q-81 0 -134 -38t-53 -107q0 -60 53.5 -95.5t133.5 -35.5t134.5 36t54.5 95q0 69 -53.5 107t-135.5 38z" />
    <glyph glyph-name="ninesuperior" unicode="&#x2079;" horiz-adv-x="804" 
d="M393 1285q-92 0 -147.5 -50t-55.5 -135q0 -83 53.5 -133t142.5 -50q88 0 146 51.5t58 130.5q0 82 -55 134t-142 52zM350 515q-110 0 -211 43l10 101q93 -50 201 -50q231 0 255 303q-44 -42 -105.5 -67t-122.5 -25q-128 0 -212 78.5t-84 197.5q0 129 85.5 205.5
t230.5 76.5q150 0 230 -98.5t80 -279.5q0 -244 -88 -364.5t-269 -120.5z" />
    <glyph glyph-name="zeroinferior" unicode="&#x2080;" horiz-adv-x="880" 
d="M439 -20q-72 0 -130 23.5t-97 64t-65.5 96t-38.5 117.5t-12 131q0 88 19.5 163.5t59 137t107.5 97t157 35.5q73 0 131.5 -23.5t98 -64t66 -96.5t38 -118t11.5 -131q0 -88 -19.5 -163t-59 -136.5t-108 -97t-158.5 -35.5zM203 412q0 -91 23.5 -164.5t78 -122t134.5 -48.5
q61 0 108 27.5t75 75t42 106.5t14 126q0 92 -23 165.5t-78.5 123t-137.5 49.5q-60 0 -106.5 -28t-74 -76t-41.5 -107.5t-14 -126.5z" />
    <glyph glyph-name="oneinferior" unicode="&#x2081;" horiz-adv-x="481" 
d="M225 0v733h-179v95h286v-828h-107z" />
    <glyph glyph-name="twoinferior" unicode="&#x2082;" horiz-adv-x="730" 
d="M221 95h426v-95h-561v89l264 250q77 73 111 131t34 118q0 73 -47 115.5t-128 42.5q-96 0 -203 -59l-16 97q115 59 230 59q128 0 200.5 -68t72.5 -186q0 -75 -43 -149t-140 -162z" />
    <glyph glyph-name="threeinferior" unicode="&#x2083;" horiz-adv-x="756" 
d="M207 466l262 267h-350v95h503v-73l-260 -260h7q140 0 223.5 -71.5t83.5 -180.5q0 -88 -51 -149.5t-127 -87.5t-169 -26q-146 0 -256 61l17 105q130 -67 229 -67q116 0 180 43t64 113q0 85 -61.5 125.5t-151.5 40.5q-60 0 -143 -23v88z" />
    <glyph glyph-name="fourinferior" unicode="&#x2084;" horiz-adv-x="759" 
d="M454 828l-267 -528h286v228h107v-228h120v-95h-120v-205h-107v205h-411v77l271 546h121z" />
    <glyph glyph-name="fiveinferior" unicode="&#x2085;" horiz-adv-x="751" 
d="M151 405l-27 37l42 386h458v-96h-370l-23 -216q39 8 97 8q63 0 121 -15.5t107.5 -46t79 -83t29.5 -120.5q0 -74 -27.5 -130t-75.5 -87.5t-105.5 -46.5t-125.5 -15q-141 0 -250 49l11 105q117 -57 225 -57q65 0 116 15.5t85.5 55.5t34.5 101q0 94 -69.5 138t-171.5 44
q-76 0 -161 -26z" />
    <glyph glyph-name="sixinferior" unicode="&#x2086;" horiz-adv-x="810" 
d="M417 74q93 0 148.5 49.5t55.5 132.5q0 92 -56.5 139t-139.5 47q-82 0 -143 -49t-61 -135q0 -79 53 -131.5t143 -52.5zM459 843q108 0 213 -42l-10 -102q-99 50 -201 50q-232 0 -255 -303q91 91 227 91q121 0 208.5 -73.5t87.5 -203.5t-87 -205t-231 -75q-82 0 -144 29.5
t-98.5 82t-54 119t-17.5 146.5q0 486 362 486z" />
    <glyph glyph-name="seveninferior" unicode="&#x2087;" horiz-adv-x="623" 
d="M240 0h-116l330 727h-394v101h520v-78z" />
    <glyph glyph-name="eightinferior" unicode="&#x2088;" horiz-adv-x="826" 
d="M413 843q127 0 211.5 -63t84.5 -171q0 -116 -115 -179q135 -66 135 -211q0 -111 -90 -175t-226 -64q-135 0 -225.5 64.5t-90.5 174.5q0 143 135 211q-115 65 -115 179q0 108 85 171t211 63zM413 384q-91 0 -149.5 -41.5t-58.5 -119.5q0 -70 59.5 -109.5t148.5 -39.5
q90 0 149.5 39.5t59.5 109.5q0 78 -59 119.5t-150 41.5zM413 750q-81 0 -134 -38t-53 -107q0 -60 53.5 -95.5t133.5 -35.5t134.5 36t54.5 95q0 69 -53.5 107t-135.5 38z" />
    <glyph glyph-name="nineinferior" unicode="&#x2089;" horiz-adv-x="804" 
d="M393 750q-92 0 -147.5 -50t-55.5 -135q0 -83 53.5 -133t142.5 -50q88 0 146 51.5t58 130.5q0 82 -55 134t-142 52zM350 -20q-110 0 -211 43l10 101q93 -50 201 -50q231 0 255 303q-44 -42 -105.5 -67t-122.5 -25q-128 0 -212 78.5t-84 197.5q0 129 85.5 205.5t230.5 76.5
q150 0 230 -98.5t80 -279.5q0 -244 -88 -364.5t-269 -120.5z" />
    <glyph glyph-name="Euro" unicode="&#x20ac;" horiz-adv-x="1443" 
d="M1311 185l22 -117q-6 -4 -17.5 -9.5t-50 -20.5t-80.5 -26.5t-106 -21t-130 -9.5q-254 0 -438.5 136t-239.5 375h-190l12 88h163q-6 50 -6 102q0 20 2 60h-170l12 85h167q22 132 84 237.5t151.5 173t200.5 103t235 35.5q216 0 372 -81l-12 -114q-157 80 -362 80
t-354.5 -115t-190.5 -319h575l-12 -85h-575q-2 -40 -2 -60q0 -46 7 -102h550l-12 -88h-519q55 -186 206.5 -291t344.5 -105q67 0 129.5 9t103 22t71.5 26.5t45 22.5z" />
    <glyph glyph-name="trademark" unicode="&#x2122;" horiz-adv-x="1566" 
d="M802 802h-102v606h90l250 -256l248 256h91v-606h-102v454l-232 -239h-8l-235 239v-454zM285 802v511h-199v95h502v-95h-198v-511h-105z" />
    <glyph glyph-name="estimated" unicode="&#x212e;" horiz-adv-x="1753" 
d="M1672 668v-23h-1257q-11 0 -11 -9v-359q0 -24 17 -47q185 -177 478 -177q150 0 279.5 51.5t219.5 147.5h113q-105 -125 -265 -198.5t-349 -73.5q-216 0 -394.5 93t-280 253t-101.5 351t104 352.5t282.5 255t389.5 93.5q157 0 301 -57t247.5 -152.5t165 -226.5t61.5 -274z
M1387 726v358q0 23 -17 46q-87 85 -210.5 130t-260.5 45q-293 0 -475 -175q-20 -24 -20 -53v-351q0 -13 11 -13h966q6 0 6 13z" />
    <glyph glyph-name="onethird" unicode="&#x2153;" horiz-adv-x="1680" 
d="M1126 466l262 267h-350v95h503v-73l-260 -260h7q140 0 223.5 -71.5t83.5 -180.5q0 -88 -51 -149.5t-127 -87.5t-169 -26q-146 0 -256 61l17 105q130 -67 229 -67q116 0 180 43t64 113q0 85 -61.5 125.5t-151.5 40.5q-60 0 -143 -23v88zM296 0v26l734 1332h103v-24
l-732 -1334h-105zM248 530v733h-179v95h286v-828h-107z" />
    <glyph glyph-name="twothirds" unicode="&#x2154;" horiz-adv-x="1896" 
d="M499 0v26l734 1332h103v-24l-732 -1334h-105zM1327 466l262 267h-350v95h503v-73l-260 -260h7q140 0 223.5 -71.5t83.5 -180.5q0 -88 -51 -149.5t-127 -87.5t-169 -26q-146 0 -256 61l17 105q130 -67 229 -67q116 0 180 43t64 113q0 85 -61.5 125.5t-151.5 40.5
q-60 0 -143 -23v88zM184 630h426v-95h-561v89l264 250q77 73 111 131t34 118q0 73 -47 115.5t-128 42.5q-96 0 -203 -59l-16 97q115 59 230 59q128 0 200.5 -68t72.5 -186q0 -75 -43 -149t-140 -162z" />
    <glyph glyph-name="minus" unicode="&#x2212;" horiz-adv-x="1243" 
d="M1073 751v-121h-903v121h903z" />
    <glyph glyph-name="uni2215" unicode="&#x2215;" horiz-adv-x="801" 
d="M-16 0v26l734 1332h103v-24l-732 -1334h-105z" />
    <glyph glyph-name="uni2219" unicode="&#x2219;" horiz-adv-x="699" 
d="M349 360q-33 0 -54 21t-21 54t21 54t54 21t54.5 -21t21.5 -54t-21.5 -54t-54.5 -21z" />
    <glyph glyph-name="approxequal" unicode="&#x2248;" horiz-adv-x="1256" 
d="M416 890q-91 0 -190 -99l-78 86q51 59 126.5 99.5t152.5 40.5q59 0 115 -17.5t93 -38t87 -38t98 -17.5q91 0 190 99l78 -86q-51 -59 -126.5 -99.5t-152.5 -40.5q-59 0 -115 17.5t-93 38t-87 38t-98 17.5zM436 440q-91 0 -190 -99l-78 86q51 59 126.5 99.5t152.5 40.5
q59 0 115 -17.5t93 -38t87 -38t98 -17.5q91 0 190 99l78 -86q-51 -59 -126.5 -99.5t-152.5 -40.5q-59 0 -115 17.5t-93 38t-87 38t-98 17.5z" />
    <glyph glyph-name="notequal" unicode="&#x2260;" 
d="M1180 484v-123h-588l-147 -331l-78 36l130 295h-327v123h381l171 390h-552v123h606l135 305l83 -34l-120 -271h306v-123h-361l-173 -390h534z" />
    <glyph glyph-name="lessequal" unicode="&#x2264;" horiz-adv-x="1357" 
d="M1173 628v-115h-1012v162l1012 488v-134l-875 -401h875zM1173 198v-123h-1012v123h1012z" />
    <glyph glyph-name="greaterequal" unicode="&#x2265;" horiz-adv-x="1361" 
d="M186 628h874l-874 401v134l1012 -488v-162h-1012v115zM186 198h1012v-123h-1012v123z" />
    <glyph glyph-name="commaaccent" unicode="&#xf6c3;" horiz-adv-x="530" 
d="M190 -508l14 380h136l-52 -380h-98z" />
    <glyph glyph-name="NULL" horiz-adv-x="0" 
 />
    <glyph glyph-name="A.alt" horiz-adv-x="1531" 
d="M326 573h879v243q0 220 -113.5 331t-326.5 111q-215 0 -327 -110.5t-112 -331.5v-243zM1205 463h-879v-463h-121v861q0 241 145.5 377t414.5 136q270 0 415.5 -135.5t145.5 -377.5v-861h-121v463z" />
    <glyph glyph-name="A.alt.smcp" horiz-adv-x="1191" 
d="M1028 0h-120v331h-625v-331h-120v630q0 179 115 284.5t317 105.5q201 0 317 -105t116 -279v-636zM283 611v-174h625v174q0 145 -84 222t-229 77q-144 0 -228 -77t-84 -222z" />
    <glyph glyph-name="A.smcp" horiz-adv-x="1015" 
d="M864 0l-103 258h-505l-102 -258h-129l405 1000h156l404 -1000h-126zM508 897l-210 -533h421z" />
    <glyph glyph-name="A.swsh" horiz-adv-x="1542" 
d="M1349 131l-90 216h-748l-143 -347h-126l521 1252h-210q-192 0 -296.5 -83t-104.5 -272q0 -29 3 -60l-102 19q-3 33 -3 65q0 211 129.5 324t371.5 113h413l561 -1358q64 -155 127.5 -263t140 -185t167 -113t202.5 -36l-20 -106q-90 0 -168.5 22t-139.5 55t-120 97
t-100.5 122t-92.5 157.5t-85 176.5t-87 204zM885 1250l-329 -796h659z" />
    <glyph glyph-name="AE.smcp" horiz-adv-x="1520" 
d="M1416 0h-737v249h-402l-154 -249h-141l619 1000h800v-106h-601v-326h524v-106h-524v-356h616v-106zM679 898l-336 -543h336v543z" />
    <glyph glyph-name="AEacute.smcp" horiz-adv-x="1520" 
d="M1236 1489l-173 -334h-107l142 334h138zM1416 0h-737v249h-402l-154 -249h-141l619 1000h800v-106h-601v-326h524v-106h-524v-356h616v-106zM679 898l-336 -543h336v543z" />
    <glyph glyph-name="Aacute.alt" horiz-adv-x="1531" 
d="M326 573h879v243q0 220 -113.5 331t-326.5 111q-215 0 -327 -110.5t-112 -331.5v-243zM1205 463h-879v-463h-121v861q0 241 145.5 377t414.5 136q270 0 415.5 -135.5t145.5 -377.5v-861h-121v463zM982 1807l-173 -334h-107l142 334h138z" />
    <glyph glyph-name="Aacute.alt.smcp" horiz-adv-x="1191" 
d="M1028 0h-120v331h-625v-331h-120v630q0 179 115 284.5t317 105.5q201 0 317 -105t116 -279v-636zM283 611v-174h625v174q0 145 -84 222t-229 77q-144 0 -228 -77t-84 -222zM817 1489l-173 -334h-107l142 334h138z" />
    <glyph glyph-name="Aacute.smcp" horiz-adv-x="1015" 
d="M745 1489l-173 -334h-107l142 334h138zM864 0l-103 258h-505l-102 -258h-129l405 1000h156l404 -1000h-126zM508 897l-210 -533h421z" />
    <glyph glyph-name="Aacute.swsh" horiz-adv-x="1542" 
d="M1126 1807l-173 -334h-107l142 334h138zM1349 131l-90 216h-748l-143 -347h-126l521 1252h-210q-192 0 -296.5 -83t-104.5 -272q0 -29 3 -60l-102 19q-3 33 -3 65q0 211 129.5 324t371.5 113h413l561 -1358q64 -155 127.5 -263t140 -185t167 -113t202.5 -36l-20 -106
q-90 0 -168.5 22t-139.5 55t-120 97t-100.5 122t-92.5 157.5t-85 176.5t-87 204zM885 1250l-329 -796h659z" />
    <glyph glyph-name="Abreve.alt" horiz-adv-x="1531" 
d="M1205 463h-879v-463h-121v861q0 241 145.5 377t414.5 136q270 0 415.5 -135.5t145.5 -377.5v-861h-121v463zM326 573h879v243q0 220 -113.5 331t-326.5 111q-215 0 -327 -110.5t-112 -331.5v-243zM488 1750h111q5 -70 48.5 -113.5t107.5 -43.5t107.5 43.5t48.5 113.5h111
q-6 -115 -80 -186.5t-187 -71.5q-112 0 -186 71.5t-81 186.5z" />
    <glyph glyph-name="Abreve.alt.smcp" horiz-adv-x="1191" 
d="M1028 0h-120v331h-625v-331h-120v630q0 179 115 284.5t317 105.5q201 0 317 -105t116 -279v-636zM283 611v-174h625v174q0 145 -84 222t-229 77q-144 0 -228 -77t-84 -222zM326 1439h111q5 -70 48.5 -113.5t107.5 -43.5t107.5 43.5t48.5 113.5h111q-6 -115 -80 -186.5
t-187 -71.5q-112 0 -186 71.5t-81 186.5z" />
    <glyph glyph-name="Abreve.smcp" horiz-adv-x="1015" 
d="M864 0l-103 258h-505l-102 -258h-129l405 1000h156l404 -1000h-126zM508 897l-210 -533h421zM241 1440h111q5 -70 48.5 -113.5t107.5 -43.5t107.5 43.5t48.5 113.5h111q-6 -115 -80 -186.5t-187 -71.5q-112 0 -186 71.5t-81 186.5z" />
    <glyph glyph-name="Abreve.swsh" horiz-adv-x="1542" 
d="M629 1750h111q5 -70 48.5 -113.5t107.5 -43.5t107.5 43.5t48.5 113.5h111q-6 -115 -80 -186.5t-187 -71.5q-112 0 -186 71.5t-81 186.5zM1349 131l-90 216h-748l-143 -347h-126l521 1252h-210q-192 0 -296.5 -83t-104.5 -272q0 -29 3 -60l-102 19q-3 33 -3 65
q0 211 129.5 324t371.5 113h413l561 -1358q64 -155 127.5 -263t140 -185t167 -113t202.5 -36l-20 -106q-90 0 -168.5 22t-139.5 55t-120 97t-100.5 122t-92.5 157.5t-85 176.5t-87 204zM885 1250l-329 -796h659z" />
    <glyph glyph-name="Acircumflex.alt" horiz-adv-x="1531" 
d="M326 573h879v243q0 220 -113.5 331t-326.5 111q-215 0 -327 -110.5t-112 -331.5v-243zM1205 463h-879v-463h-121v861q0 241 145.5 377t414.5 136q270 0 415.5 -135.5t145.5 -377.5v-861h-121v463zM788 1839l263 -368h-123l-174 256l-178 -256h-123l263 368h72z" />
    <glyph glyph-name="Acircumflex.alt.smcp" horiz-adv-x="1191" 
d="M1028 0h-120v331h-625v-331h-120v630q0 179 115 284.5t317 105.5q201 0 317 -105t116 -279v-636zM283 611v-174h625v174q0 145 -84 222t-229 77q-144 0 -228 -77t-84 -222zM632 1493l263 -368h-123l-174 256l-178 -256h-123l263 368h72z" />
    <glyph glyph-name="Acircumflex.smcp" horiz-adv-x="1015" 
d="M544 1495l263 -368h-123l-174 256l-178 -256h-123l263 368h72zM864 0l-103 258h-505l-102 -258h-129l405 1000h156l404 -1000h-126zM508 897l-210 -533h421z" />
    <glyph glyph-name="Acircumflex.swsh" horiz-adv-x="1542" 
d="M935 1839l263 -368h-123l-174 256l-178 -256h-123l263 368h72zM1349 131l-90 216h-748l-143 -347h-126l521 1252h-210q-192 0 -296.5 -83t-104.5 -272q0 -29 3 -60l-102 19q-3 33 -3 65q0 211 129.5 324t371.5 113h413l561 -1358q64 -155 127.5 -263t140 -185t167 -113
t202.5 -36l-20 -106q-90 0 -168.5 22t-139.5 55t-120 97t-100.5 122t-92.5 157.5t-85 176.5t-87 204zM885 1250l-329 -796h659z" />
    <glyph glyph-name="Adieresis.alt" horiz-adv-x="1531" 
d="M326 573h879v243q0 220 -113.5 331t-326.5 111q-215 0 -327 -110.5t-112 -331.5v-243zM1205 463h-879v-463h-121v861q0 241 145.5 377t414.5 136q270 0 415.5 -135.5t145.5 -377.5v-861h-121v463zM576 1541q-33 0 -54 21t-21 54t21 54t54 21t54.5 -21t21.5 -54t-21.5 -54
t-54.5 -21zM926 1541q-33 0 -54 21t-21 54t21 54t54 21t54.5 -21t21.5 -54t-21.5 -54t-54.5 -21z" />
    <glyph glyph-name="Adieresis.alt.smcp" horiz-adv-x="1191" 
d="M1028 0h-120v331h-625v-331h-120v630q0 179 115 284.5t317 105.5q201 0 317 -105t116 -279v-636zM283 611v-174h625v174q0 145 -84 222t-229 77q-144 0 -228 -77t-84 -222zM768 1245q-33 0 -54 21t-21 54t21 54t54 21t54.5 -21t21.5 -54t-21.5 -54t-54.5 -21zM418 1245
q-33 0 -54 21t-21 54t21 54t54 21t54.5 -21t21.5 -54t-21.5 -54t-54.5 -21z" />
    <glyph glyph-name="Adieresis.smcp" horiz-adv-x="1015" 
d="M332 1246q-33 0 -54 21t-21 54t21 54t54 21t54.5 -21t21.5 -54t-21.5 -54t-54.5 -21zM682 1246q-33 0 -54 21t-21 54t21 54t54 21t54.5 -21t21.5 -54t-21.5 -54t-54.5 -21zM864 0l-103 258h-505l-102 -258h-129l405 1000h156l404 -1000h-126zM508 897l-210 -533h421z" />
    <glyph glyph-name="Adieresis.swsh" horiz-adv-x="1542" 
d="M1071 1541q-33 0 -54 21t-21 54t21 54t54 21t54.5 -21t21.5 -54t-21.5 -54t-54.5 -21zM721 1541q-33 0 -54 21t-21 54t21 54t54 21t54.5 -21t21.5 -54t-21.5 -54t-54.5 -21zM1349 131l-90 216h-748l-143 -347h-126l521 1252h-210q-192 0 -296.5 -83t-104.5 -272
q0 -29 3 -60l-102 19q-3 33 -3 65q0 211 129.5 324t371.5 113h413l561 -1358q64 -155 127.5 -263t140 -185t167 -113t202.5 -36l-20 -106q-90 0 -168.5 22t-139.5 55t-120 97t-100.5 122t-92.5 157.5t-85 176.5t-87 204zM885 1250l-329 -796h659z" />
    <glyph glyph-name="Adotbelow.alt" horiz-adv-x="1531" 
d="M326 573h879v243q0 220 -113.5 331t-326.5 111q-215 0 -327 -110.5t-112 -331.5v-243zM1205 463h-879v-463h-121v861q0 241 145.5 377t414.5 136q270 0 415.5 -135.5t145.5 -377.5v-861h-121v463zM754 -357q-33 0 -54 21t-21 54t21 54t54 21t54.5 -21t21.5 -54t-21.5 -54
t-54.5 -21z" />
    <glyph glyph-name="Adotbelow.alt.smcp" horiz-adv-x="1191" 
d="M1028 0h-120v331h-625v-331h-120v630q0 179 115 284.5t317 105.5q201 0 317 -105t116 -279v-636zM283 611v-174h625v174q0 145 -84 222t-229 77q-144 0 -228 -77t-84 -222zM598 -357q-33 0 -54 21t-21 54t21 54t54 21t54.5 -21t21.5 -54t-21.5 -54t-54.5 -21z" />
    <glyph glyph-name="Adotbelow.smcp" horiz-adv-x="1015" 
d="M508 -357q-33 0 -54 21t-21 54t21 54t54 21t54.5 -21t21.5 -54t-21.5 -54t-54.5 -21zM864 0l-103 258h-505l-102 -258h-129l405 1000h156l404 -1000h-126zM508 897l-210 -533h421z" />
    <glyph glyph-name="Adotbelow.swsh" horiz-adv-x="1542" 
d="M894 -357q-33 0 -54 21t-21 54t21 54t54 21t54.5 -21t21.5 -54t-21.5 -54t-54.5 -21zM1349 131l-90 216h-748l-143 -347h-126l521 1252h-210q-192 0 -296.5 -83t-104.5 -272q0 -29 3 -60l-102 19q-3 33 -3 65q0 211 129.5 324t371.5 113h413l561 -1358
q64 -155 127.5 -263t140 -185t167 -113t202.5 -36l-20 -106q-90 0 -168.5 22t-139.5 55t-120 97t-100.5 122t-92.5 157.5t-85 176.5t-87 204zM885 1250l-329 -796h659z" />
    <glyph glyph-name="Agrave.alt" horiz-adv-x="1531" 
d="M326 573h879v243q0 220 -113.5 331t-326.5 111q-215 0 -327 -110.5t-112 -331.5v-243zM1205 463h-879v-463h-121v861q0 241 145.5 377t414.5 136q270 0 415.5 -135.5t145.5 -377.5v-861h-121v463zM530 1807h138l142 -334h-107z" />
    <glyph glyph-name="Agrave.alt.smcp" horiz-adv-x="1191" 
d="M1028 0h-120v331h-625v-331h-120v630q0 179 115 284.5t317 105.5q201 0 317 -105t116 -279v-636zM283 611v-174h625v174q0 145 -84 222t-229 77q-144 0 -228 -77t-84 -222zM361 1489h138l142 -334h-107z" />
    <glyph glyph-name="Agrave.smcp" horiz-adv-x="1015" 
d="M277 1489h138l142 -334h-107zM864 0l-103 258h-505l-102 -258h-129l405 1000h156l404 -1000h-126zM508 897l-210 -533h421z" />
    <glyph glyph-name="Agrave.swsh" horiz-adv-x="1542" 
d="M592 1807h138l142 -334h-107zM1349 131l-90 216h-748l-143 -347h-126l521 1252h-210q-192 0 -296.5 -83t-104.5 -272q0 -29 3 -60l-102 19q-3 33 -3 65q0 211 129.5 324t371.5 113h413l561 -1358q64 -155 127.5 -263t140 -185t167 -113t202.5 -36l-20 -106
q-90 0 -168.5 22t-139.5 55t-120 97t-100.5 122t-92.5 157.5t-85 176.5t-87 204zM885 1250l-329 -796h659z" />
    <glyph glyph-name="Amacron.alt" horiz-adv-x="1531" 
d="M326 573h879v243q0 220 -113.5 331t-326.5 111q-215 0 -327 -110.5t-112 -331.5v-243zM1205 463h-879v-463h-121v861q0 241 145.5 377t414.5 136q270 0 415.5 -135.5t145.5 -377.5v-861h-121v463zM1060 1562h-592v106h592v-106z" />
    <glyph glyph-name="Amacron.alt.smcp" horiz-adv-x="1191" 
d="M1028 0h-120v331h-625v-331h-120v630q0 179 115 284.5t317 105.5q201 0 317 -105t116 -279v-636zM283 611v-174h625v174q0 145 -84 222t-229 77q-144 0 -228 -77t-84 -222zM888 1257h-592v106h592v-106z" />
    <glyph glyph-name="Amacron.smcp" horiz-adv-x="1015" 
d="M804 1258h-592v106h592v-106zM864 0l-103 258h-505l-102 -258h-129l405 1000h156l404 -1000h-126zM508 897l-210 -533h421z" />
    <glyph glyph-name="Amacron.swsh" horiz-adv-x="1542" 
d="M1191 1562h-592v106h592v-106zM1349 131l-90 216h-748l-143 -347h-126l521 1252h-210q-192 0 -296.5 -83t-104.5 -272q0 -29 3 -60l-102 19q-3 33 -3 65q0 211 129.5 324t371.5 113h413l561 -1358q64 -155 127.5 -263t140 -185t167 -113t202.5 -36l-20 -106
q-90 0 -168.5 22t-139.5 55t-120 97t-100.5 122t-92.5 157.5t-85 176.5t-87 204zM885 1250l-329 -796h659z" />
    <glyph glyph-name="Aogonek.alt" horiz-adv-x="1557" 
d="M1205 463h-879v-463h-121v861q0 241 145.5 377t414.5 136q270 0 415.5 -135.5t145.5 -377.5v-861q-94 -57 -150 -120.5t-56 -113.5q0 -45 30 -71t85 -26t124 33l32 -94q-72 -45 -173 -45q-99 0 -154.5 50t-55.5 136q0 146 197 255v459zM326 573h879v243q0 220 -113.5 331
t-326.5 111q-215 0 -327 -110.5t-112 -331.5v-243z" />
    <glyph glyph-name="Aogonek.alt.smcp" horiz-adv-x="1191" 
d="M710 -251q0 75 53.5 140t144.5 115v327h-625v-331h-120v630q0 179 115 284.5t317 105.5q201 0 317 -105t116 -279v-636q-94 -57 -150 -120.5t-56 -113.5q0 -45 30 -71t85 -26t124 33l32 -94q-72 -45 -173 -45q-99 0 -154.5 50t-55.5 136zM283 611v-174h625v174
q0 145 -84 222t-229 77q-144 0 -228 -77t-84 -222z" />
    <glyph glyph-name="Aogonek.smcp" horiz-adv-x="1015" 
d="M672 -251q0 143 191 252l-102 257h-505l-102 -258h-129l405 1000h156l404 -1000q-94 -57 -150 -120.5t-56 -113.5q0 -45 30 -71t85 -26t124 33l32 -94q-72 -45 -173 -45q-99 0 -154.5 50t-55.5 136zM508 897l-210 -533h421z" />
    <glyph glyph-name="Aring.alt" horiz-adv-x="1531" 
d="M326 573h879v243q0 220 -113.5 331t-326.5 111q-215 0 -327 -110.5t-112 -331.5v-243zM1205 463h-879v-463h-121v861q0 241 145.5 377t414.5 136q270 0 415.5 -135.5t145.5 -377.5v-861h-121v463zM534 1693q0 88 63 148t155 60t155 -60t63 -148q0 -87 -63 -146.5
t-155 -59.5t-155 59.5t-63 146.5zM633 1693q0 -51 33 -85t86 -34t86 34t33 85q0 52 -33 86.5t-86 34.5t-86 -34.5t-33 -86.5z" />
    <glyph glyph-name="Aring.alt.smcp" horiz-adv-x="1191" 
d="M1028 0h-120v331h-625v-331h-120v630q0 179 115 284.5t317 105.5q201 0 317 -105t116 -279v-636zM283 611v-174h625v174q0 145 -84 222t-229 77q-144 0 -228 -77t-84 -222zM378 1334q0 88 63 148t155 60t155 -60t63 -148q0 -87 -63 -146.5t-155 -59.5t-155 59.5
t-63 146.5zM477 1334q0 -51 33 -85t86 -34t86 34t33 85q0 52 -33 86.5t-86 34.5t-86 -34.5t-33 -86.5z" />
    <glyph glyph-name="Aring.smcp" horiz-adv-x="1015" 
d="M290 1334q0 88 63 148t155 60t155 -60t63 -148q0 -87 -63 -146.5t-155 -59.5t-155 59.5t-63 146.5zM389 1334q0 -51 33 -85t86 -34t86 34t33 85q0 52 -33 86.5t-86 34.5t-86 -34.5t-33 -86.5zM864 0l-103 258h-505l-102 -258h-129l405 1000h156l404 -1000h-126zM508 897
l-210 -533h421z" />
    <glyph glyph-name="Aring.swsh" horiz-adv-x="1542" 
d="M679 1693q0 88 63 148t155 60t155 -60t63 -148q0 -87 -63 -146.5t-155 -59.5t-155 59.5t-63 146.5zM778 1693q0 -51 33 -85t86 -34t86 34t33 85q0 52 -33 86.5t-86 34.5t-86 -34.5t-33 -86.5zM1349 131l-90 216h-748l-143 -347h-126l521 1252h-210q-192 0 -296.5 -83
t-104.5 -272q0 -29 3 -60l-102 19q-3 33 -3 65q0 211 129.5 324t371.5 113h413l561 -1358q64 -155 127.5 -263t140 -185t167 -113t202.5 -36l-20 -106q-90 0 -168.5 22t-139.5 55t-120 97t-100.5 122t-92.5 157.5t-85 176.5t-87 204zM885 1250l-329 -796h659z" />
    <glyph glyph-name="Aringacute.alt" horiz-adv-x="1531" 
d="M326 573h879v243q0 220 -113.5 331t-326.5 111q-215 0 -327 -110.5t-112 -331.5v-243zM1205 463h-879v-463h-121v861q0 241 145.5 377t414.5 136q270 0 415.5 -135.5t145.5 -377.5v-861h-121v463zM1007 2293l-173 -334h-107l142 334h138zM533 1693q0 88 63 148t155 60
t155 -60t63 -148q0 -87 -63 -146.5t-155 -59.5t-155 59.5t-63 146.5zM632 1693q0 -51 33 -85t86 -34t86 34t33 85q0 52 -33 86.5t-86 34.5t-86 -34.5t-33 -86.5z" />
    <glyph glyph-name="Aringacute.alt.smcp" horiz-adv-x="1191" 
d="M1028 0h-120v331h-625v-331h-120v630q0 179 115 284.5t317 105.5q201 0 317 -105t116 -279v-636zM283 611v-174h625v174q0 145 -84 222t-229 77q-144 0 -228 -77t-84 -222zM381 1335q0 88 63 148t155 60t155 -60t63 -148q0 -87 -63 -146.5t-155 -59.5t-155 59.5
t-63 146.5zM480 1335q0 -51 33 -85t86 -34t86 34t33 85q0 52 -33 86.5t-86 34.5t-86 -34.5t-33 -86.5zM829 1935l-173 -334h-107l142 334h138z" />
    <glyph glyph-name="Aringacute.smcp" horiz-adv-x="1015" 
d="M290 1335q0 88 63 148t155 60t155 -60t63 -148q0 -87 -63 -146.5t-155 -59.5t-155 59.5t-63 146.5zM389 1335q0 -51 33 -85t86 -34t86 34t33 85q0 52 -33 86.5t-86 34.5t-86 -34.5t-33 -86.5zM744 1935l-173 -334h-107l142 334h138zM864 0l-103 258h-505l-102 -258h-129
l405 1000h156l404 -1000h-126zM508 897l-210 -533h421z" />
    <glyph glyph-name="Aringacute.swsh" horiz-adv-x="1542" 
d="M680 1693q0 88 63 148t155 60t155 -60t63 -148q0 -87 -63 -146.5t-155 -59.5t-155 59.5t-63 146.5zM779 1693q0 -51 33 -85t86 -34t86 34t33 85q0 52 -33 86.5t-86 34.5t-86 -34.5t-33 -86.5zM1154 2293l-173 -334h-107l142 334h138zM1349 131l-90 216h-748l-143 -347
h-126l521 1252h-210q-192 0 -296.5 -83t-104.5 -272q0 -29 3 -60l-102 19q-3 33 -3 65q0 211 129.5 324t371.5 113h413l561 -1358q64 -155 127.5 -263t140 -185t167 -113t202.5 -36l-20 -106q-90 0 -168.5 22t-139.5 55t-120 97t-100.5 122t-92.5 157.5t-85 176.5t-87 204z
M885 1250l-329 -796h659z" />
    <glyph glyph-name="Atilde.alt" horiz-adv-x="1531" 
d="M326 573h879v243q0 220 -113.5 331t-326.5 111q-215 0 -327 -110.5t-112 -331.5v-243zM1205 463h-879v-463h-121v861q0 241 145.5 377t414.5 136q270 0 415.5 -135.5t145.5 -377.5v-861h-121v463zM626 1627q-39 0 -67 -19.5t-63 -59.5l-68 56q90 125 199 125
q56 0 137 -40.5t121 -40.5q39 0 67 19.5t63 59.5l68 -56q-90 -125 -194 -125q-56 0 -139.5 40.5t-123.5 40.5z" />
    <glyph glyph-name="Atilde.alt.smcp" horiz-adv-x="1191" 
d="M1028 0h-120v331h-625v-331h-120v630q0 179 115 284.5t317 105.5q201 0 317 -105t116 -279v-636zM283 611v-174h625v174q0 145 -84 222t-229 77q-144 0 -228 -77t-84 -222zM461 1310q-39 0 -67 -19.5t-63 -59.5l-68 56q90 125 199 125q56 0 137 -40.5t121 -40.5
q39 0 67 19.5t63 59.5l68 -56q-90 -125 -194 -125q-56 0 -139.5 40.5t-123.5 40.5z" />
    <glyph glyph-name="Atilde.smcp" horiz-adv-x="1015" 
d="M380 1311q-39 0 -67 -19.5t-63 -59.5l-68 56q90 125 199 125q56 0 137 -40.5t121 -40.5q39 0 67 19.5t63 59.5l68 -56q-90 -125 -194 -125q-56 0 -139.5 40.5t-123.5 40.5zM864 0l-103 258h-505l-102 -258h-129l405 1000h156l404 -1000h-126zM508 897l-210 -533h421z" />
    <glyph glyph-name="Atilde.swsh" horiz-adv-x="1542" 
d="M768 1627q-39 0 -67 -19.5t-63 -59.5l-68 56q90 125 199 125q56 0 137 -40.5t121 -40.5q39 0 67 19.5t63 59.5l68 -56q-90 -125 -194 -125q-56 0 -139.5 40.5t-123.5 40.5zM1349 131l-90 216h-748l-143 -347h-126l521 1252h-210q-192 0 -296.5 -83t-104.5 -272
q0 -29 3 -60l-102 19q-3 33 -3 65q0 211 129.5 324t371.5 113h413l561 -1358q64 -155 127.5 -263t140 -185t167 -113t202.5 -36l-20 -106q-90 0 -168.5 22t-139.5 55t-120 97t-100.5 122t-92.5 157.5t-85 176.5t-87 204zM885 1250l-329 -796h659z" />
    <glyph glyph-name="B.smcp" horiz-adv-x="1091" 
d="M873 272q0 89 -53.5 139.5t-148.5 50.5h-375v-356h375q95 0 148.5 44t53.5 122zM296 894v-326h319q90 0 142 44.5t52 123.5q0 74 -50.5 116t-139.5 42h-323zM176 0v1000h440q149 0 233.5 -69.5t84.5 -193.5q0 -73 -32.5 -127.5t-90.5 -76.5q88 -22 137.5 -91t49.5 -167
q0 -129 -92 -202t-255 -73h-475z" />
    <glyph glyph-name="B.swsh" horiz-adv-x="1879" 
d="M677 0v1253h-139q-100 0 -175 -21.5t-129.5 -69t-78.5 -129t-15 -195.5l-102 19q-22 241 107.5 371.5t390.5 130.5h267v-1h458q183 0 297 -91t114 -269q0 -87 -43 -160t-128 -111q121 -33 192 -122t71 -229q0 -168 -115 -272t-340 -104h-632zM1644 375q0 122 -77 197.5
t-230 75.5h-540v-540h540q137 0 222 68t85 199zM797 1252v-500h462q127 0 208.5 66t81.5 178q0 113 -71.5 184.5t-212.5 71.5h-468z" />
    <glyph glyph-name="C.smcp" horiz-adv-x="1063" 
d="M667 95q141 0 296 65l26 -109q-151 -71 -321 -71q-255 0 -413.5 145t-158.5 378q0 230 155 373.5t403 143.5q172 0 301 -59l-11 -111q-127 56 -291 56q-193 0 -314 -112t-121 -291q0 -181 125 -294.5t324 -113.5z" />
    <glyph glyph-name="Cacute.smcp" horiz-adv-x="1063" 
d="M875 1489l-173 -334h-107l142 334h138zM667 95q141 0 296 65l26 -109q-151 -71 -321 -71q-255 0 -413.5 145t-158.5 378q0 230 155 373.5t403 143.5q172 0 301 -59l-11 -111q-127 56 -291 56q-193 0 -314 -112t-121 -291q0 -181 125 -294.5t324 -113.5z" />
    <glyph glyph-name="Ccaron.smcp" horiz-adv-x="1063" 
d="M616 1127l-263 368h123l174 -256l178 256h123l-263 -368h-72zM667 95q141 0 296 65l26 -109q-151 -71 -321 -71q-255 0 -413.5 145t-158.5 378q0 230 155 373.5t403 143.5q172 0 301 -59l-11 -111q-127 56 -291 56q-193 0 -314 -112t-121 -291q0 -181 125 -294.5
t324 -113.5z" />
    <glyph glyph-name="Ccedilla.smcp" horiz-adv-x="1063" 
d="M667 95q141 0 296 65l26 -109q-151 -71 -321 -71h-10l-28 -82q91 -7 146.5 -50t55.5 -112q0 -81 -64 -127t-177 -46q-75 0 -129 18v99q57 -19 119 -19q139 0 139 75q0 81 -161 81h-49l62 169q-216 27 -346 167t-130 350q0 230 155 373.5t403 143.5q172 0 301 -59
l-11 -111q-127 56 -291 56q-193 0 -314 -112t-121 -291q0 -181 125 -294.5t324 -113.5z" />
    <glyph glyph-name="Ccircumflex.smcp" horiz-adv-x="1063" 
d="M670 1494l263 -368h-123l-174 256l-178 -256h-123l263 368h72zM667 95q141 0 296 65l26 -109q-151 -71 -321 -71q-255 0 -413.5 145t-158.5 378q0 230 155 373.5t403 143.5q172 0 301 -59l-11 -111q-127 56 -291 56q-193 0 -314 -112t-121 -291q0 -181 125 -294.5
t324 -113.5z" />
    <glyph glyph-name="Cdotaccent.smcp" horiz-adv-x="1063" 
d="M660 1245q-33 0 -54 21t-21 54t21 54t54 21t54.5 -21t21.5 -54t-21.5 -54t-54.5 -21zM667 95q141 0 296 65l26 -109q-151 -71 -321 -71q-255 0 -413.5 145t-158.5 378q0 230 155 373.5t403 143.5q172 0 301 -59l-11 -111q-127 56 -291 56q-193 0 -314 -112t-121 -291
q0 -181 125 -294.5t324 -113.5z" />
    <glyph glyph-name="D.smcp" horiz-adv-x="1202" 
d="M176 1000h406q244 0 382 -133t138 -368q0 -234 -139 -366.5t-384 -132.5h-403v1000zM589 894h-293v-788h293q182 0 285 104t103 289t-103 290t-285 105z" />
    <glyph glyph-name="D.swsh" horiz-adv-x="2023" 
d="M1203 0h-533v1252h-132q-100 0 -175 -21.5t-129.5 -69t-78.5 -129t-15 -195.5l-102 19q-22 241 107.5 371.5t390.5 130.5h671q171 0 304 -50t218 -141t129 -214.5t44 -274.5q0 -323 -177.5 -500.5t-521.5 -177.5zM1217 1245h-428v-1132h428q267 0 416 146t149 419
q0 264 -150.5 415.5t-414.5 151.5z" />
    <glyph glyph-name="Dcaron.smcp" horiz-adv-x="1202" 
d="M515 1126l-263 368h123l174 -256l178 256h123l-263 -368h-72zM176 1000h406q244 0 382 -133t138 -368q0 -234 -139 -366.5t-384 -132.5h-403v1000zM589 894h-293v-788h293q182 0 285 104t103 289t-103 290t-285 105z" />
    <glyph glyph-name="Dcaron.swsh" horiz-adv-x="1983" 
d="M536 1358h631q171 0 304 -50t218 -141t129 -214.5t44 -274.5q0 -323 -177.5 -500.5t-521.5 -177.5h-533v1252h-92q-100 0 -175 -21.5t-129.5 -69t-78.5 -129t-15 -195.5l-102 19q-22 241 107.5 371.5t390.5 130.5zM1177 1245h-428v-1132h428q267 0 416 146t149 419
q0 264 -150.5 415.5t-414.5 151.5zM1122 1467l-263 368h123l174 -256l178 256h123l-263 -368h-72z" />
    <glyph glyph-name="Dcroat.smcp" horiz-adv-x="1202" 
d="M176 1000h406q244 0 382 -133t138 -368q0 -234 -139 -366.5t-384 -132.5h-403v460h-143v106h143v434zM589 894h-293v-328h394v-106h-394v-354h293q182 0 285 104t103 289t-103 290t-285 105z" />
    <glyph glyph-name="Dcroat.swsh" horiz-adv-x="1983" 
d="M477 757h153v495h-92q-100 0 -175 -21.5t-129.5 -69t-78.5 -129t-15 -195.5l-102 19q-22 241 107.5 371.5t390.5 130.5h631q171 0 304 -50t218 -141t129 -214.5t44 -274.5q0 -323 -177.5 -500.5t-521.5 -177.5h-533v633h-153v124zM1177 1245h-428v-488h495v-124h-495
v-520h428q267 0 416 146t149 419q0 264 -150.5 415.5t-414.5 151.5z" />
    <glyph glyph-name="E.smcp" horiz-adv-x="1026" 
d="M922 0h-746v1000h731v-106h-611v-326h534v-106h-534v-356h626v-106z" />
    <glyph glyph-name="E.swsh" horiz-adv-x="1747" 
d="M650 0v1252h-112q-100 0 -175 -21.5t-129.5 -69t-78.5 -129t-15 -195.5l-102 19q-22 241 107.5 371.5t390.5 130.5h1075v-108h-841v-497h736v-109h-736v-536h863v-108h-983z" />
    <glyph glyph-name="Eacute.smcp" horiz-adv-x="1026" 
d="M775 1489l-173 -334h-107l142 334h138zM922 0h-746v1000h731v-106h-611v-326h534v-106h-534v-356h626v-106z" />
    <glyph glyph-name="Ebreve.smcp" horiz-adv-x="1026" 
d="M922 0h-746v1000h731v-106h-611v-326h534v-106h-534v-356h626v-106zM289 1439h111q5 -70 48.5 -113.5t107.5 -43.5t107.5 43.5t48.5 113.5h111q-6 -115 -80 -186.5t-187 -71.5q-112 0 -186 71.5t-81 186.5z" />
    <glyph glyph-name="Ecaron.smcp" horiz-adv-x="1026" 
d="M530 1126l-263 368h123l174 -256l178 256h123l-263 -368h-72zM922 0h-746v1000h731v-106h-611v-326h534v-106h-534v-356h626v-106z" />
    <glyph glyph-name="Ecircumflex.smcp" horiz-adv-x="1026" 
d="M582 1493l263 -368h-123l-174 256l-178 -256h-123l263 368h72zM922 0h-746v1000h731v-106h-611v-326h534v-106h-534v-356h626v-106z" />
    <glyph glyph-name="Edieresis.smcp" horiz-adv-x="1026" 
d="M372 1245q-33 0 -54 21t-21 54t21 54t54 21t54.5 -21t21.5 -54t-21.5 -54t-54.5 -21zM722 1245q-33 0 -54 21t-21 54t21 54t54 21t54.5 -21t21.5 -54t-21.5 -54t-54.5 -21zM922 0h-746v1000h731v-106h-611v-326h534v-106h-534v-356h626v-106z" />
    <glyph glyph-name="Edotaccent.smcp" horiz-adv-x="1026" 
d="M559 1245q-33 0 -54 21t-21 54t21 54t54 21t54.5 -21t21.5 -54t-21.5 -54t-54.5 -21zM922 0h-746v1000h731v-106h-611v-326h534v-106h-534v-356h626v-106z" />
    <glyph glyph-name="Edotbelow.smcp" horiz-adv-x="1026" 
d="M551 -357q-33 0 -54 21t-21 54t21 54t54 21t54.5 -21t21.5 -54t-21.5 -54t-54.5 -21zM922 0h-746v1000h731v-106h-611v-326h534v-106h-534v-356h626v-106z" />
    <glyph glyph-name="Egrave.smcp" horiz-adv-x="1026" 
d="M334 1489h138l142 -334h-107zM922 0h-746v1000h731v-106h-611v-326h534v-106h-534v-356h626v-106z" />
    <glyph glyph-name="Emacron.smcp" horiz-adv-x="1026" 
d="M838 1258h-592v106h592v-106zM922 0h-746v1000h731v-106h-611v-326h534v-106h-534v-356h626v-106z" />
    <glyph glyph-name="Eng.smcp" horiz-adv-x="1285" 
d="M1109 1000v-1133q0 -135 -68.5 -211t-191.5 -76q-83 0 -133 25l15 103q47 -20 111 -20q73 0 110.5 48.5t37.5 141.5v95l-694 861v-834h-120v1000h141l672 -834v834h120z" />
    <glyph glyph-name="Eogonek.smcp" horiz-adv-x="1026" 
d="M922 0q-94 -57 -150 -120.5t-56 -113.5q0 -45 30 -71t85 -26t124 33l32 -94q-72 -45 -173 -45q-99 0 -154.5 50t-55.5 136q0 142 190 251h-618v1000h731v-106h-611v-326h534v-106h-534v-356h626v-106z" />
    <glyph glyph-name="Eth.smcp" horiz-adv-x="1202" 
d="M176 1000h406q244 0 382 -133t138 -368q0 -234 -139 -366.5t-384 -132.5h-403v460h-143v106h143v434zM589 894h-293v-328h394v-106h-394v-354h293q182 0 285 104t103 289t-103 290t-285 105z" />
    <glyph glyph-name="Etilde.smcp" horiz-adv-x="1026" 
d="M409 1311q-39 0 -67 -19.5t-63 -59.5l-68 56q90 125 199 125q56 0 137 -40.5t121 -40.5q39 0 67 19.5t63 59.5l68 -56q-90 -125 -194 -125q-56 0 -139.5 40.5t-123.5 40.5zM922 0h-746v1000h731v-106h-611v-326h534v-106h-534v-356h626v-106z" />
    <glyph glyph-name="Euro.onum" horiz-adv-x="1271" 
d="M787 461l-12 -88h-398q48 -129 164 -203.5t274 -74.5q137 0 295 70l28 -109q-154 -76 -322 -76q-215 0 -366.5 106t-201.5 287h-157l12 88h128q-4 32 -4 76q0 29 1 43h-136l12 85h136q40 193 191 307.5t370 114.5q172 0 300 -63l-11 -111q-126 60 -290 60
q-163 0 -279 -83.5t-155 -224.5h453l-12 -85h-456q-2 -28 -2 -43q0 -36 5 -76h433z" />
    <glyph glyph-name="Euro.onum.tnum" 
d="M848 461l-12 -88h-398q48 -129 164 -203.5t274 -74.5q137 0 295 70l28 -109q-154 -76 -322 -76q-215 0 -366.5 106t-201.5 287h-157l12 88h128q-4 32 -4 76q0 29 1 43h-136l12 85h136q40 193 191 307.5t370 114.5q172 0 300 -63l-11 -111q-126 60 -290 60
q-163 0 -279 -83.5t-155 -224.5h453l-12 -85h-456q-2 -28 -2 -43q0 -36 5 -76h433z" />
    <glyph glyph-name="Euro.tnum" 
d="M1279 185l22 -117q-6 -4 -17.5 -9.5t-50 -20.5t-80.5 -26.5t-106 -21t-130 -9.5q-254 0 -438.5 136t-239.5 375h-190l12 88h163q-6 50 -6 102q0 20 2 60h-170l12 85h167q22 132 84 237.5t151.5 173t200.5 103t235 35.5q216 0 372 -81l-12 -114q-157 80 -362 80
t-354.5 -115t-190.5 -319h575l-12 -85h-575q-2 -40 -2 -60q0 -46 7 -102h550l-12 -88h-519q55 -186 206.5 -291t344.5 -105q67 0 129.5 9t103 22t71.5 26.5t45 22.5z" />
    <glyph glyph-name="F.smcp" horiz-adv-x="947" 
d="M772 462h-476v-462h-120v1000h704v-106h-584v-326h476v-106z" />
    <glyph glyph-name="F.swsh" horiz-adv-x="1571" 
d="M1355 645h-656v-645h-120v1252h-41q-100 0 -175 -21.5t-129.5 -69t-78.5 -129t-15 -195.5l-102 19q-22 241 107.5 371.5t390.5 130.5h969v-108h-806v-498h656v-107z" />
    <glyph glyph-name="G.alt" horiz-adv-x="1522" 
d="M1339 1277l-11 -117q-193 103 -445 103q-286 0 -464.5 -161t-178.5 -420q0 -263 183 -427t477 -164q247 0 379 77v433h115v-503q-193 -118 -485 -118q-233 0 -413.5 88t-280 247.5t-99.5 365.5q0 205 96.5 363.5t272.5 246t402 87.5q249 0 452 -101z" />
    <glyph glyph-name="G.alt.smcp" horiz-adv-x="1171" 
d="M1016 943l-11 -111q-161 74 -334 74q-205 0 -329 -111t-124 -294q0 -180 127.5 -293t336.5 -113q151 0 260 50v313h120v-385q-154 -93 -374 -93q-268 0 -430 144t-162 377t157.5 376t418.5 143q183 0 344 -77z" />
    <glyph glyph-name="G.smcp" horiz-adv-x="1181" 
d="M1016 943l-11 -111q-161 74 -334 74q-205 0 -329 -111t-124 -294q0 -180 127.5 -293t336.5 -113q151 0 260 50v309h-344v106h464v-487q-154 -93 -374 -93q-268 0 -430 144t-162 377t157.5 376t418.5 143q183 0 344 -77z" />
    <glyph glyph-name="Gbreve.alt" horiz-adv-x="1522" 
d="M1339 1277l-11 -117q-193 103 -445 103q-286 0 -464.5 -161t-178.5 -420q0 -263 183 -427t477 -164q247 0 379 77v433h115v-503q-193 -118 -485 -118q-233 0 -413.5 88t-280 247.5t-99.5 365.5q0 205 96.5 363.5t272.5 246t402 87.5q249 0 452 -101zM611 1750h111
q5 -70 48.5 -113.5t107.5 -43.5t107.5 43.5t48.5 113.5h111q-6 -115 -80 -186.5t-187 -71.5q-112 0 -186 71.5t-81 186.5z" />
    <glyph glyph-name="Gbreve.alt.smcp" horiz-adv-x="1171" 
d="M1016 943l-11 -111q-161 74 -334 74q-205 0 -329 -111t-124 -294q0 -180 127.5 -293t336.5 -113q151 0 260 50v313h120v-385q-154 -93 -374 -93q-268 0 -430 144t-162 377t157.5 376t418.5 143q183 0 344 -77zM400 1440h111q5 -70 48.5 -113.5t107.5 -43.5t107.5 43.5
t48.5 113.5h111q-6 -115 -80 -186.5t-187 -71.5q-112 0 -186 71.5t-81 186.5z" />
    <glyph glyph-name="Gbreve.smcp" horiz-adv-x="1181" 
d="M1016 943l-11 -111q-161 74 -334 74q-205 0 -329 -111t-124 -294q0 -180 127.5 -293t336.5 -113q151 0 260 50v309h-344v106h464v-487q-154 -93 -374 -93q-268 0 -430 144t-162 377t157.5 376t418.5 143q183 0 344 -77zM393 1439h111q5 -70 48.5 -113.5t107.5 -43.5
t107.5 43.5t48.5 113.5h111q-6 -115 -80 -186.5t-187 -71.5q-112 0 -186 71.5t-81 186.5z" />
    <glyph glyph-name="Gcaron.alt" horiz-adv-x="1522" 
d="M1339 1277l-11 -117q-193 103 -445 103q-286 0 -464.5 -161t-178.5 -420q0 -263 183 -427t477 -164q247 0 379 77v433h115v-503q-193 -118 -485 -118q-233 0 -413.5 88t-280 247.5t-99.5 365.5q0 205 96.5 363.5t272.5 246t402 87.5q249 0 452 -101zM841 1467l-263 368
h123l174 -256l178 256h123l-263 -368h-72z" />
    <glyph glyph-name="Gcaron.alt.smcp" horiz-adv-x="1171" 
d="M635 1125l-263 368h123l174 -256l178 256h123l-263 -368h-72zM1016 943l-11 -111q-161 74 -334 74q-205 0 -329 -111t-124 -294q0 -180 127.5 -293t336.5 -113q151 0 260 50v313h120v-385q-154 -93 -374 -93q-268 0 -430 144t-162 377t157.5 376t418.5 143q183 0 344 -77
z" />
    <glyph glyph-name="Gcaron.smcp" horiz-adv-x="1181" 
d="M633 1127l-263 368h123l174 -256l178 256h123l-263 -368h-72zM1016 943l-11 -111q-161 74 -334 74q-205 0 -329 -111t-124 -294q0 -180 127.5 -293t336.5 -113q151 0 260 50v309h-344v106h464v-487q-154 -93 -374 -93q-268 0 -430 144t-162 377t157.5 376t418.5 143
q183 0 344 -77z" />
    <glyph glyph-name="Gcircumflex.alt" horiz-adv-x="1522" 
d="M1339 1277l-11 -117q-193 103 -445 103q-286 0 -464.5 -161t-178.5 -420q0 -263 183 -427t477 -164q247 0 379 77v433h115v-503q-193 -118 -485 -118q-233 0 -413.5 88t-280 247.5t-99.5 365.5q0 205 96.5 363.5t272.5 246t402 87.5q249 0 452 -101zM904 1839l263 -368
h-123l-174 256l-178 -256h-123l263 368h72z" />
    <glyph glyph-name="Gcircumflex.alt.smcp" horiz-adv-x="1171" 
d="M687 1493l263 -368h-123l-174 256l-178 -256h-123l263 368h72zM1016 943l-11 -111q-161 74 -334 74q-205 0 -329 -111t-124 -294q0 -180 127.5 -293t336.5 -113q151 0 260 50v313h120v-385q-154 -93 -374 -93q-268 0 -430 144t-162 377t157.5 376t418.5 143
q183 0 344 -77z" />
    <glyph glyph-name="Gcircumflex.smcp" horiz-adv-x="1181" 
d="M681 1493l263 -368h-123l-174 256l-178 -256h-123l263 368h72zM1016 943l-11 -111q-161 74 -334 74q-205 0 -329 -111t-124 -294q0 -180 127.5 -293t336.5 -113q151 0 260 50v309h-344v106h464v-487q-154 -93 -374 -93q-268 0 -430 144t-162 377t157.5 376t418.5 143
q183 0 344 -77z" />
    <glyph glyph-name="Gcommaaccent.alt" horiz-adv-x="1522" 
d="M1339 1277l-11 -117q-193 103 -445 103q-286 0 -464.5 -161t-178.5 -420q0 -263 183 -427t477 -164q247 0 379 77v433h115v-503q-193 -118 -485 -118q-233 0 -413.5 88t-280 247.5t-99.5 365.5q0 205 96.5 363.5t272.5 246t402 87.5q249 0 452 -101zM847 -508l14 380h136
l-52 -380h-98z" />
    <glyph glyph-name="Gcommaaccent.alt.smcp" horiz-adv-x="1171" 
d="M588 -508l14 380h136l-52 -380h-98zM1016 943l-11 -111q-161 74 -334 74q-205 0 -329 -111t-124 -294q0 -180 127.5 -293t336.5 -113q151 0 260 50v313h120v-385q-154 -93 -374 -93q-268 0 -430 144t-162 377t157.5 376t418.5 143q183 0 344 -77z" />
    <glyph glyph-name="Gcommaaccent.smcp" horiz-adv-x="1181" 
d="M586 -508l14 380h136l-52 -380h-98zM1016 943l-11 -111q-161 74 -334 74q-205 0 -329 -111t-124 -294q0 -180 127.5 -293t336.5 -113q151 0 260 50v309h-344v106h464v-487q-154 -93 -374 -93q-268 0 -430 144t-162 377t157.5 376t418.5 143q183 0 344 -77z" />
    <glyph glyph-name="Gdotaccent.alt" horiz-adv-x="1522" 
d="M1339 1277l-11 -117q-193 103 -445 103q-286 0 -464.5 -161t-178.5 -420q0 -263 183 -427t477 -164q247 0 379 77v433h115v-503q-193 -118 -485 -118q-233 0 -413.5 88t-280 247.5t-99.5 365.5q0 205 96.5 363.5t272.5 246t402 87.5q249 0 452 -101zM881 1541
q-33 0 -54 21t-21 54t21 54t54 21t54.5 -21t21.5 -54t-21.5 -54t-54.5 -21z" />
    <glyph glyph-name="Gdotaccent.alt.smcp" horiz-adv-x="1171" 
d="M663 1245q-33 0 -54 21t-21 54t21 54t54 21t54.5 -21t21.5 -54t-21.5 -54t-54.5 -21zM1016 943l-11 -111q-161 74 -334 74q-205 0 -329 -111t-124 -294q0 -180 127.5 -293t336.5 -113q151 0 260 50v313h120v-385q-154 -93 -374 -93q-268 0 -430 144t-162 377t157.5 376
t418.5 143q183 0 344 -77z" />
    <glyph glyph-name="Gdotaccent.smcp" horiz-adv-x="1181" 
d="M658 1245q-33 0 -54 21t-21 54t21 54t54 21t54.5 -21t21.5 -54t-21.5 -54t-54.5 -21zM1016 943l-11 -111q-161 74 -334 74q-205 0 -329 -111t-124 -294q0 -180 127.5 -293t336.5 -113q151 0 260 50v309h-344v106h464v-487q-154 -93 -374 -93q-268 0 -430 144t-162 377
t157.5 376t418.5 143q183 0 344 -77z" />
    <glyph glyph-name="H.smcp" horiz-adv-x="1210" 
d="M914 0v462h-618v-462h-120v1000h120v-432h618v432h120v-1000h-120z" />
    <glyph glyph-name="Hbar.smcp" horiz-adv-x="1221" 
d="M919 0v462h-618v-462h-120v744h-119v106h119v150h120v-150h618v150h120v-150h120v-106h-120v-744h-120zM301 568h618v176h-618v-176z" />
    <glyph glyph-name="Hcircumflex.smcp" horiz-adv-x="1210" 
d="M636 1494l263 -368h-123l-174 256l-178 -256h-123l263 368h72zM914 0v462h-618v-462h-120v1000h120v-432h618v432h120v-1000h-120z" />
    <glyph glyph-name="I.alt" horiz-adv-x="1051" 
d="M940 1357v-111h-357v-1131h357v-115h-829v115h352v1131h-352v111h829z" />
    <glyph glyph-name="I.alt.smcp" horiz-adv-x="842" 
d="M741 1000v-106h-260v-788h260v-106h-640v106h260v788h-260v106h640z" />
    <glyph glyph-name="I.smcp" horiz-adv-x="472" 
d="M176 0v1000h120v-1000h-120z" />
    <glyph glyph-name="IJ.smcp" horiz-adv-x="1313" 
d="M176 0v1000h120v-1000h-120zM520 40l25 111q106 -54 238 -54q107 0 175.5 53.5t68.5 165.5v578h-402v106h522v-691q0 -155 -93.5 -242t-266.5 -87q-75 0 -148 17t-119 43z" />
    <glyph glyph-name="IJacute" horiz-adv-x="1659" 
d="M223 0v1358h120v-1358h-120zM526 1807l-173 -334h-107l142 334h138zM633 57l26 107q147 -71 310 -71q177 0 269 76t92 247v832h-555v110h675v-952q0 -202 -123 -314t-351 -112q-77 0 -177.5 23.5t-165.5 53.5zM1366 1807l-173 -334h-107l142 334h138z" />
    <glyph glyph-name="IJacute.smcp" horiz-adv-x="1307" 
d="M464 1489l-173 -334h-107l142 334h138zM176 0v1000h120v-1000h-120zM519 40l25 111q106 -54 238 -54q107 0 175.5 53.5t68.5 165.5v578h-402v106h522v-691q0 -155 -93.5 -242t-266.5 -87q-75 0 -148 17t-119 43zM1111 1489l-173 -334h-107l142 334h138z" />
    <glyph glyph-name="Iacute.alt" horiz-adv-x="1051" 
d="M940 1357v-111h-357v-1131h357v-115h-829v115h352v1131h-352v111h829zM775 1807l-173 -334h-107l142 334h138z" />
    <glyph glyph-name="Iacute.alt.smcp" horiz-adv-x="842" 
d="M649 1489l-173 -334h-107l142 334h138zM741 1000v-106h-260v-788h260v-106h-640v106h260v788h-260v106h640z" />
    <glyph glyph-name="Iacute.smcp" horiz-adv-x="472" 
d="M464 1489l-173 -334h-107l142 334h138zM176 0v1000h120v-1000h-120z" />
    <glyph glyph-name="Ibreve.alt" horiz-adv-x="1051" 
d="M940 1357v-111h-357v-1131h357v-115h-829v115h352v1131h-352v111h829zM264 1750h111q5 -70 48.5 -113.5t107.5 -43.5t107.5 43.5t48.5 113.5h111q-6 -115 -80 -186.5t-187 -71.5q-112 0 -186 71.5t-81 186.5z" />
    <glyph glyph-name="Ibreve.alt.smcp" horiz-adv-x="842" 
d="M741 1000v-106h-260v-788h260v-106h-640v106h260v788h-260v106h640zM158 1439h111q5 -70 48.5 -113.5t107.5 -43.5t107.5 43.5t48.5 113.5h111q-6 -115 -80 -186.5t-187 -71.5q-112 0 -186 71.5t-81 186.5z" />
    <glyph glyph-name="Ibreve.smcp" horiz-adv-x="472" 
d="M176 0v1000h120v-1000h-120zM-31 1440h111q5 -70 48.5 -113.5t107.5 -43.5t107.5 43.5t48.5 113.5h111q-6 -115 -80 -186.5t-187 -71.5q-112 0 -186 71.5t-81 186.5z" />
    <glyph glyph-name="Icircumflex.alt" horiz-adv-x="1051" 
d="M940 1357v-111h-357v-1131h357v-115h-829v115h352v1131h-352v111h829zM572 1839l263 -368h-123l-174 256l-178 -256h-123l263 368h72z" />
    <glyph glyph-name="Icircumflex.alt.smcp" horiz-adv-x="842" 
d="M458 1493l263 -368h-123l-174 256l-178 -256h-123l263 368h72zM741 1000v-106h-260v-788h260v-106h-640v106h260v788h-260v106h640z" />
    <glyph glyph-name="Icircumflex.smcp" horiz-adv-x="472" 
d="M272 1493l263 -368h-123l-174 256l-178 -256h-123l263 368h72zM176 0v1000h120v-1000h-120z" />
    <glyph glyph-name="Idieresis.alt" horiz-adv-x="1051" 
d="M940 1357v-111h-357v-1131h357v-115h-829v115h352v1131h-352v111h829zM354 1541q-33 0 -54 21t-21 54t21 54t54 21t54.5 -21t21.5 -54t-21.5 -54t-54.5 -21zM704 1541q-33 0 -54 21t-21 54t21 54t54 21t54.5 -21t21.5 -54t-21.5 -54t-54.5 -21z" />
    <glyph glyph-name="Idieresis.alt.smcp" horiz-adv-x="842" 
d="M244 1245q-33 0 -54 21t-21 54t21 54t54 21t54.5 -21t21.5 -54t-21.5 -54t-54.5 -21zM594 1245q-33 0 -54 21t-21 54t21 54t54 21t54.5 -21t21.5 -54t-21.5 -54t-54.5 -21zM741 1000v-106h-260v-788h260v-106h-640v106h260v788h-260v106h640z" />
    <glyph glyph-name="Idieresis.smcp" horiz-adv-x="472" 
d="M58 1245q-33 0 -54 21t-21 54t21 54t54 21t54.5 -21t21.5 -54t-21.5 -54t-54.5 -21zM408 1245q-33 0 -54 21t-21 54t21 54t54 21t54.5 -21t21.5 -54t-21.5 -54t-54.5 -21zM176 0v1000h120v-1000h-120z" />
    <glyph glyph-name="Idotaccent.alt" horiz-adv-x="1051" 
d="M940 1357v-111h-357v-1131h357v-115h-829v115h352v1131h-352v111h829zM523 1541q-33 0 -54 21t-21 54t21 54t54 21t54.5 -21t21.5 -54t-21.5 -54t-54.5 -21z" />
    <glyph glyph-name="Idotaccent.alt.smcp" horiz-adv-x="842" 
d="M424 1245q-33 0 -54 21t-21 54t21 54t54 21t54.5 -21t21.5 -54t-21.5 -54t-54.5 -21zM741 1000v-106h-260v-788h260v-106h-640v106h260v788h-260v106h640z" />
    <glyph glyph-name="Idotaccent.smcp" horiz-adv-x="472" 
d="M237 1245q-33 0 -54 21t-21 54t21 54t54 21t54.5 -21t21.5 -54t-21.5 -54t-54.5 -21zM176 0v1000h120v-1000h-120z" />
    <glyph glyph-name="Idotbelow.alt" horiz-adv-x="1051" 
d="M940 1357v-111h-357v-1131h357v-115h-829v115h352v1131h-352v111h829zM527 -357q-33 0 -54 21t-21 54t21 54t54 21t54.5 -21t21.5 -54t-21.5 -54t-54.5 -21z" />
    <glyph glyph-name="Idotbelow.alt.smcp" horiz-adv-x="842" 
d="M422 -357q-33 0 -54 21t-21 54t21 54t54 21t54.5 -21t21.5 -54t-21.5 -54t-54.5 -21zM741 1000v-106h-260v-788h260v-106h-640v106h260v788h-260v106h640z" />
    <glyph glyph-name="Idotbelow.smcp" horiz-adv-x="472" 
d="M234 -357q-33 0 -54 21t-21 54t21 54t54 21t54.5 -21t21.5 -54t-21.5 -54t-54.5 -21zM176 0v1000h120v-1000h-120z" />
    <glyph glyph-name="Igrave.alt" horiz-adv-x="1051" 
d="M940 1357v-111h-357v-1131h357v-115h-829v115h352v1131h-352v111h829zM262 1807h138l142 -334h-107z" />
    <glyph glyph-name="Igrave.alt.smcp" horiz-adv-x="842" 
d="M195 1489h138l142 -334h-107zM741 1000v-106h-260v-788h260v-106h-640v106h260v788h-260v106h640z" />
    <glyph glyph-name="Igrave.smcp" horiz-adv-x="472" 
d="M12 1489h138l142 -334h-107zM176 0v1000h120v-1000h-120z" />
    <glyph glyph-name="Imacron.alt" horiz-adv-x="1051" 
d="M940 1357v-111h-357v-1131h357v-115h-829v115h352v1131h-352v111h829zM825 1562h-592v106h592v-106z" />
    <glyph glyph-name="Imacron.alt.smcp" horiz-adv-x="842" 
d="M723 1257h-592v106h592v-106zM741 1000v-106h-260v-788h260v-106h-640v106h260v788h-260v106h640z" />
    <glyph glyph-name="Imacron.smcp" horiz-adv-x="472" 
d="M533 1258h-592v106h592v-106zM176 0v1000h120v-1000h-120z" />
    <glyph glyph-name="Iogonek.alt" horiz-adv-x="1051" 
d="M940 1357v-111h-357v-1131h357v-115h-342q-94 -57 -150 -120.5t-56 -113.5q0 -45 30 -71t85 -26t124 33l32 -94q-72 -45 -173 -45q-99 0 -154.5 50t-55.5 136q0 142 190 251h-359v115h352v1131h-352v111h829z" />
    <glyph glyph-name="Iogonek.alt.smcp" horiz-adv-x="842" 
d="M741 1000v-106h-260v-788h260v-106h-262q-94 -57 -150 -120.5t-56 -113.5q0 -45 30 -71t85 -26t124 33l32 -94q-72 -45 -173 -45q-99 0 -154.5 50t-55.5 136q0 142 190 251h-250v106h260v788h-260v106h640z" />
    <glyph glyph-name="Iogonek.smcp" horiz-adv-x="472" 
d="M-22 -251q0 75 53.5 140t144.5 115v996h120v-1000q-94 -57 -150 -120.5t-56 -113.5q0 -45 30 -71t85 -26t124 33l32 -94q-72 -45 -173 -45q-99 0 -154.5 50t-55.5 136z" />
    <glyph glyph-name="Itilde.alt" horiz-adv-x="1051" 
d="M940 1357v-111h-357v-1131h357v-115h-829v115h352v1131h-352v111h829zM402 1627q-39 0 -67 -19.5t-63 -59.5l-68 56q90 125 199 125q56 0 137 -40.5t121 -40.5q39 0 67 19.5t63 59.5l68 -56q-90 -125 -194 -125q-56 0 -139.5 40.5t-123.5 40.5z" />
    <glyph glyph-name="Itilde.alt.smcp" horiz-adv-x="846" 
d="M289 1310q-39 0 -67 -19.5t-63 -59.5l-68 56q90 125 199 125q56 0 137 -40.5t121 -40.5q39 0 67 19.5t63 59.5l68 -56q-90 -125 -194 -125q-56 0 -139.5 40.5t-123.5 40.5zM735 1000v-106h-260v-788h260v-106h-640v106h260v788h-260v106h640z" />
    <glyph glyph-name="Itilde.smcp" horiz-adv-x="472" 
d="M106 1311q-39 0 -67 -19.5t-63 -59.5l-68 56q90 125 199 125q56 0 137 -40.5t121 -40.5q39 0 67 19.5t63 59.5l68 -56q-90 -125 -194 -125q-56 0 -139.5 40.5t-123.5 40.5zM176 0v1000h120v-1000h-120z" />
    <glyph glyph-name="J.alt" horiz-adv-x="572" 
d="M354 301q0 -92 -9.5 -167.5t-34.5 -153.5t-67 -140.5t-109.5 -119t-158.5 -97.5l-54 99q172 87 242 213.5t70 361.5v1061h121v-1057z" />
    <glyph glyph-name="J.alt.smcp" horiz-adv-x="475" 
d="M299 1000v-949q0 -200 -65.5 -303t-233.5 -168l-50 93q130 58 179.5 141t49.5 237v949h120z" />
    <glyph glyph-name="J.smcp" horiz-adv-x="845" 
d="M52 40l25 111q106 -54 238 -54q107 0 175.5 53.5t68.5 165.5v578h-402v106h522v-691q0 -155 -93.5 -242t-266.5 -87q-75 0 -148 17t-119 43z" />
    <glyph glyph-name="Jcircumflex.alt" horiz-adv-x="572" 
d="M354 301q0 -92 -9.5 -167.5t-34.5 -153.5t-67 -140.5t-109.5 -119t-158.5 -97.5l-54 99q172 87 242 213.5t70 361.5v1061h121v-1057zM333 1839l263 -368h-123l-174 256l-178 -256h-123l263 368h72z" />
    <glyph glyph-name="Jcircumflex.alt.smcp" horiz-adv-x="479" 
d="M278 1493l263 -368h-123l-174 256l-178 -256h-123l263 368h72zM300 1000v-949q0 -200 -65.5 -303t-233.5 -168l-50 93q130 58 179.5 141t49.5 237v949h120z" />
    <glyph glyph-name="Jcircumflex.smcp" horiz-adv-x="821" 
d="M458 1493l263 -368h-123l-174 256l-178 -256h-123l263 368h72zM52 40l25 111q106 -54 238 -54q107 0 175.5 53.5t68.5 165.5v578h-402v106h522v-691q0 -155 -93.5 -242t-266.5 -87q-75 0 -148 17t-119 43z" />
    <glyph glyph-name="K.alt" horiz-adv-x="1401" 
d="M1228 1358l-420 -704q34 -41 86 -121.5t98 -149t101.5 -136.5t119 -108t127.5 -40q24 0 49 5v-114q-35 -9 -73 -9q-71 0 -141.5 37.5t-126 95t-112 131t-98 139.5t-84.5 127t-72 88h-339v-599h-120v1358h120v-648h354l389 648h142z" />
    <glyph glyph-name="K.alt.smcp" horiz-adv-x="1089" 
d="M940 1000l-314 -517q17 -25 47.5 -76t52.5 -87.5t57 -81.5t66.5 -73.5t73.5 -48.5t86 -20q27 0 49 4v-112q-26 -8 -71 -8q-61 0 -116.5 24t-95.5 59t-80 87.5t-65.5 96.5t-58 99t-52.5 84h-223v-430h-120v1000h120v-464h220l280 464h144z" />
    <glyph glyph-name="K.alt.swsh" horiz-adv-x="1374" 
d="M1231 1358l-424 -710q106 -241 236.5 -434.5t266.5 -325t284.5 -219.5t292 -127.5t288.5 -39.5q239 0 393 63v-121q-67 -28 -177.5 -45.5t-222.5 -17.5q-160 0 -319.5 45t-320.5 141t-307 237.5t-281.5 344t-241.5 450.5h-355v-599h-120v1358h120v-648h357l389 648h142z
" />
    <glyph glyph-name="K.smcp" horiz-adv-x="1024" 
d="M176 0v1000h120v-464h239l265 464h137l-296 -514l381 -486h-151l-328 430h-247v-430h-120z" />
    <glyph glyph-name="K.swsh" horiz-adv-x="1780" 
d="M1637 1358l-424 -710q106 -241 236.5 -434.5t266.5 -325t284.5 -219.5t292 -127.5t288.5 -39.5q239 0 393 63v-121q-67 -28 -177.5 -45.5t-222.5 -17.5q-160 0 -319.5 45t-320.5 141t-307 237.5t-281.5 344t-241.5 450.5h-351v-599h-120v1252h-95q-100 0 -175 -21.5
t-129.5 -69t-78.5 -129t-15 -195.5l-102 19q-22 241 107.5 371.5t390.5 130.5h217v-648h353l389 648h142z" />
    <glyph glyph-name="K.swsh.ss01" horiz-adv-x="1791" 
d="M1618 1358l-420 -704q34 -41 86 -121.5t98 -149t101.5 -136.5t119 -108t127.5 -40q24 0 49 5v-114q-35 -9 -73 -9q-71 0 -141.5 37.5t-126 95t-112 131t-98 139.5t-84.5 127t-72 88h-339v-599h-120v1252h-75q-100 0 -175 -21.5t-129.5 -69t-78.5 -129t-15 -195.5l-102 19
q-22 241 107.5 371.5t390.5 130.5h197v-648h354l389 648h142z" />
    <glyph glyph-name="Kcommaaccent.alt" horiz-adv-x="1401" 
d="M611 -508l14 380h136l-52 -380h-98zM1228 1358l-420 -704q34 -41 86 -121.5t98 -149t101.5 -136.5t119 -108t127.5 -40q24 0 49 5v-114q-35 -9 -73 -9q-71 0 -141.5 37.5t-126 95t-112 131t-98 139.5t-84.5 127t-72 88h-339v-599h-120v1358h120v-648h354l389 648h142z
" />
    <glyph glyph-name="Kcommaaccent.alt.smcp" horiz-adv-x="1089" 
d="M436 -508l14 380h136l-52 -380h-98zM940 1000l-314 -517q17 -25 47.5 -76t52.5 -87.5t57 -81.5t66.5 -73.5t73.5 -48.5t86 -20q27 0 49 4v-112q-26 -8 -71 -8q-61 0 -116.5 24t-95.5 59t-80 87.5t-65.5 96.5t-58 99t-52.5 84h-223v-430h-120v1000h120v-464h220l280 464
h144z" />
    <glyph glyph-name="Kcommaaccent.alt.swsh" horiz-adv-x="1647" 
d="M1231 1358l-424 -710q106 -241 236.5 -434.5t266.5 -325t284.5 -219.5t292 -127.5t288.5 -39.5q239 0 393 63v-121q-67 -28 -177.5 -45.5t-222.5 -17.5q-160 0 -319.5 45t-320.5 141t-307 237.5t-281.5 344t-241.5 450.5h-355v-599h-120v1358h120v-648h357l389 648h142z
M578 -508l14 380h136l-52 -380h-98z" />
    <glyph glyph-name="Kcommaaccent.smcp" horiz-adv-x="1024" 
d="M443 -508l14 380h136l-52 -380h-98zM176 0v1000h120v-464h239l265 464h137l-296 -514l381 -486h-151l-328 430h-247v-430h-120z" />
    <glyph glyph-name="Kcommaaccent.swsh" horiz-adv-x="2053" 
d="M1637 1358l-424 -710q106 -241 236.5 -434.5t266.5 -325t284.5 -219.5t292 -127.5t288.5 -39.5q239 0 393 63v-121q-67 -28 -177.5 -45.5t-222.5 -17.5q-160 0 -319.5 45t-320.5 141t-307 237.5t-281.5 344t-241.5 450.5h-351v-599h-120v1252h-95q-100 0 -175 -21.5
t-129.5 -69t-78.5 -129t-15 -195.5l-102 19q-22 241 107.5 371.5t390.5 130.5h217v-648h353l389 648h142zM996 -508l14 380h136l-52 -380h-98z" />
    <glyph glyph-name="Kcommaaccent.swsh.ss01" horiz-adv-x="1791" 
d="M975 -508l14 380h136l-52 -380h-98zM1618 1358l-420 -704q34 -41 86 -121.5t98 -149t101.5 -136.5t119 -108t127.5 -40q24 0 49 5v-114q-35 -9 -73 -9q-71 0 -141.5 37.5t-126 95t-112 131t-98 139.5t-84.5 127t-72 88h-341v-599h-120v1252h-73q-100 0 -175 -21.5
t-129.5 -69t-78.5 -129t-15 -195.5l-102 19q-22 241 107.5 371.5t390.5 130.5h195v-648h356l389 648h142z" />
    <glyph glyph-name="L.smcp" horiz-adv-x="941" 
d="M892 0h-716v1000h120v-894h596v-106z" />
    <glyph glyph-name="L.swsh" horiz-adv-x="1676" 
d="M1635 0h-942v1252h-155q-100 0 -175 -21.5t-129.5 -69t-78.5 -129t-15 -195.5l-102 19q-22 241 107.5 371.5t390.5 130.5h277v-1248h822v-110z" />
    <glyph glyph-name="Lacute.smcp" horiz-adv-x="941" 
d="M461 1489l-173 -334h-107l142 334h138zM892 0h-716v1000h120v-894h596v-106z" />
    <glyph glyph-name="Lacute.swsh" horiz-adv-x="1688" 
d="M1647 0h-942v1252h-167q-100 0 -175 -21.5t-129.5 -69t-78.5 -129t-15 -195.5l-102 19q-22 241 107.5 371.5t390.5 130.5h289v-1248h822v-110zM1008 1807l-173 -334h-107l142 334h138z" />
    <glyph glyph-name="Lcaron.smcp" horiz-adv-x="945" 
d="M576 601l14 380h136l-52 -380h-98zM892 0h-716v1000h120v-894h596v-106z" />
    <glyph glyph-name="Lcaron.swsh" horiz-adv-x="1693" 
d="M1647 0h-942v1252h-167q-100 0 -175 -21.5t-129.5 -69t-78.5 -129t-15 -195.5l-102 19q-22 241 107.5 371.5t390.5 130.5h289v-1248h822v-110zM1252 948l14 380h136l-52 -380h-98z" />
    <glyph glyph-name="Lcommaaccent.smcp" horiz-adv-x="941" 
d="M445 -508l14 380h136l-52 -380h-98zM892 0h-716v1000h120v-894h596v-106z" />
    <glyph glyph-name="Lcommaaccent.swsh" horiz-adv-x="1688" 
d="M1647 0h-942v1252h-167q-100 0 -175 -21.5t-129.5 -69t-78.5 -129t-15 -195.5l-102 19q-22 241 107.5 371.5t390.5 130.5h289v-1248h822v-110zM1117 -508l14 380h136l-52 -380h-98z" />
    <glyph glyph-name="Ldot.smcp" horiz-adv-x="944" 
d="M689 422q-33 0 -54 21t-21 54t21 54t54 21t54.5 -21t21.5 -54t-21.5 -54t-54.5 -21zM892 0h-716v1000h120v-894h596v-106z" />
    <glyph glyph-name="Ldot.swsh" horiz-adv-x="1691" 
d="M1647 0h-942v1252h-167q-100 0 -175 -21.5t-129.5 -69t-78.5 -129t-15 -195.5l-102 19q-22 241 107.5 371.5t390.5 130.5h289v-1248h822v-110zM1381 600q-33 0 -54 21t-21 54t21 54t54 21t54.5 -21t21.5 -54t-21.5 -54t-54.5 -21z" />
    <glyph glyph-name="Lslash.smcp" horiz-adv-x="979" 
d="M930 0h-716v524l-141 -15v109l141 14v368h120v-356l341 35v-106l-341 -36v-431h596v-106z" />
    <glyph glyph-name="Lslash.swsh" horiz-adv-x="1688" 
d="M1647 0h-942v727l-243 -13v114l243 13v411h-167q-100 0 -175 -21.5t-129.5 -69t-78.5 -129t-15 -195.5l-102 19q-22 241 107.5 371.5t390.5 130.5h289v-510l361 20v-114l-361 -20v-624h822v-110z" />
    <glyph glyph-name="M.smcp" horiz-adv-x="1420" 
d="M731 352h-42l-393 471v-823h-120v1000h126l408 -494l408 494h126v-1000h-120v823z" />
    <glyph glyph-name="M.swsh" horiz-adv-x="2321" 
d="M1404 486h-34l-582 705v-1191h-118v1252h-132q-100 0 -175 -21.5t-129.5 -69t-78.5 -129t-15 -195.5l-102 19q-22 241 107.5 371.5t390.5 130.5h268l582 -708l579 708h133v-1358h-118v1192z" />
    <glyph glyph-name="N.smcp" horiz-adv-x="1285" 
d="M1109 1000v-1000h-141l-672 834v-834h-120v1000h141l672 -834v834h120z" />
    <glyph glyph-name="N.swsh" horiz-adv-x="2151" 
d="M1928 1358v-1358h-135l-981 1193v-1193h-121v1252h-153q-100 0 -175 -21.5t-129.5 -69t-78.5 -129t-15 -195.5l-102 19q-22 241 107.5 371.5t390.5 130.5h291l980 -1190v1190h121z" />
    <glyph glyph-name="Nacute.smcp" horiz-adv-x="1285" 
d="M841 1489l-173 -334h-107l142 334h138zM1109 1000v-1000h-141l-672 834v-834h-120v1000h141l672 -834v834h120z" />
    <glyph glyph-name="Nacute.swsh" horiz-adv-x="2151" 
d="M1928 1358v-1358h-135l-981 1193v-1193h-121v1252h-153q-100 0 -175 -21.5t-129.5 -69t-78.5 -129t-15 -195.5l-102 19q-22 241 107.5 371.5t390.5 130.5h291l980 -1190v1190h121zM1466 1807l-173 -334h-107l142 334h138z" />
    <glyph glyph-name="Ncaron.smcp" horiz-adv-x="1285" 
d="M603 1125l-263 368h123l174 -256l178 256h123l-263 -368h-72zM1109 1000v-1000h-141l-672 834v-834h-120v1000h141l672 -834v834h120z" />
    <glyph glyph-name="Ncaron.swsh" horiz-adv-x="2151" 
d="M1928 1358v-1358h-135l-981 1193v-1193h-121v1252h-153q-100 0 -175 -21.5t-129.5 -69t-78.5 -129t-15 -195.5l-102 19q-22 241 107.5 371.5t390.5 130.5h291l980 -1190v1190h121zM1238 1467l-263 368h123l174 -256l178 256h123l-263 -368h-72z" />
    <glyph glyph-name="Ncommaaccent.smcp" horiz-adv-x="1285" 
d="M548 -508l14 380h136l-52 -380h-98zM1109 1000v-1000h-141l-672 834v-834h-120v1000h141l672 -834v834h120z" />
    <glyph glyph-name="Ncommaaccent.swsh" horiz-adv-x="2151" 
d="M1928 1358v-1358h-135l-981 1193v-1193h-121v1252h-153q-100 0 -175 -21.5t-129.5 -69t-78.5 -129t-15 -195.5l-102 19q-22 241 107.5 371.5t390.5 130.5h291l980 -1190v1190h121zM1192 -508l14 380h136l-52 -380h-98z" />
    <glyph glyph-name="Nhookleft.smcp" horiz-adv-x="1331" 
d="M1155 1000v-1000h-141l-672 834v-834h1v-133q0 -135 -69 -211t-193 -76q-83 0 -133 25l15 103q47 -20 111 -20q73 0 110.5 48.5t37.5 141.5v1122h141l672 -834v834h120z" />
    <glyph glyph-name="Ntilde.smcp" horiz-adv-x="1285" 
d="M505 1310q-39 0 -67 -19.5t-63 -59.5l-68 56q90 125 199 125q56 0 137 -40.5t121 -40.5q39 0 67 19.5t63 59.5l68 -56q-90 -125 -194 -125q-56 0 -139.5 40.5t-123.5 40.5zM1109 1000v-1000h-141l-672 834v-834h-120v1000h141l672 -834v834h120z" />
    <glyph glyph-name="Ntilde.swsh" horiz-adv-x="2151" 
d="M1928 1358v-1358h-135l-981 1193v-1193h-121v1252h-153q-100 0 -175 -21.5t-129.5 -69t-78.5 -129t-15 -195.5l-102 19q-22 241 107.5 371.5t390.5 130.5h291l980 -1190v1190h121zM1096 1627q-39 0 -67 -19.5t-63 -59.5l-68 56q90 125 199 125q56 0 137 -40.5t121 -40.5
q39 0 67 19.5t63 59.5l68 -56q-90 -125 -194 -125q-56 0 -139.5 40.5t-123.5 40.5z" />
    <glyph glyph-name="O.smcp" horiz-adv-x="1264" 
d="M96 500q0 225 152 372.5t384 147.5t384 -147.5t152 -372.5t-152 -372.5t-384 -147.5t-384 147.5t-152 372.5zM218 500q0 -177 117.5 -293.5t296.5 -116.5t296.5 116.5t117.5 293.5q0 178 -117.5 294t-296.5 116t-296.5 -116t-117.5 -294z" />
    <glyph glyph-name="OE.smcp" horiz-adv-x="1842" 
d="M1738 0h-746v142q-73 -75 -173.5 -118.5t-206.5 -43.5q-230 0 -373 144t-143 376t143 376t373 144q105 0 206 -43t174 -117v140h731v-106h-611v-326h534v-106h-534v-356h626v-106zM218 500q0 -182 109.5 -296t284.5 -114t284.5 114t109.5 296t-109.5 296t-284.5 114
t-284.5 -114t-109.5 -296z" />
    <glyph glyph-name="Oacute.smcp" horiz-adv-x="1264" 
d="M848 1489l-173 -334h-107l142 334h138zM96 500q0 225 152 372.5t384 147.5t384 -147.5t152 -372.5t-152 -372.5t-384 -147.5t-384 147.5t-152 372.5zM218 500q0 -177 117.5 -293.5t296.5 -116.5t296.5 116.5t117.5 293.5q0 178 -117.5 294t-296.5 116t-296.5 -116
t-117.5 -294z" />
    <glyph glyph-name="Obreve.smcp" horiz-adv-x="1264" 
d="M96 500q0 225 152 372.5t384 147.5t384 -147.5t152 -372.5t-152 -372.5t-384 -147.5t-384 147.5t-152 372.5zM218 500q0 -177 117.5 -293.5t296.5 -116.5t296.5 116.5t117.5 293.5q0 178 -117.5 294t-296.5 116t-296.5 -116t-117.5 -294zM365 1439h111q5 -70 48.5 -113.5
t107.5 -43.5t107.5 43.5t48.5 113.5h111q-6 -115 -80 -186.5t-187 -71.5q-112 0 -186 71.5t-81 186.5z" />
    <glyph glyph-name="Ocircumflex.smcp" horiz-adv-x="1264" 
d="M665 1493l263 -368h-123l-174 256l-178 -256h-123l263 368h72zM96 500q0 225 152 372.5t384 147.5t384 -147.5t152 -372.5t-152 -372.5t-384 -147.5t-384 147.5t-152 372.5zM218 500q0 -177 117.5 -293.5t296.5 -116.5t296.5 116.5t117.5 293.5q0 178 -117.5 294
t-296.5 116t-296.5 -116t-117.5 -294z" />
    <glyph glyph-name="Odieresis.smcp" horiz-adv-x="1264" 
d="M458 1243q-33 0 -54 21t-21 54t21 54t54 21t54.5 -21t21.5 -54t-21.5 -54t-54.5 -21zM808 1243q-33 0 -54 21t-21 54t21 54t54 21t54.5 -21t21.5 -54t-21.5 -54t-54.5 -21zM96 500q0 225 152 372.5t384 147.5t384 -147.5t152 -372.5t-152 -372.5t-384 -147.5t-384 147.5
t-152 372.5zM218 500q0 -177 117.5 -293.5t296.5 -116.5t296.5 116.5t117.5 293.5q0 178 -117.5 294t-296.5 116t-296.5 -116t-117.5 -294z" />
    <glyph glyph-name="Odotbelow.smcp" horiz-adv-x="1264" 
d="M631 -357q-33 0 -54 21t-21 54t21 54t54 21t54.5 -21t21.5 -54t-21.5 -54t-54.5 -21zM96 500q0 225 152 372.5t384 147.5t384 -147.5t152 -372.5t-152 -372.5t-384 -147.5t-384 147.5t-152 372.5zM218 500q0 -177 117.5 -293.5t296.5 -116.5t296.5 116.5t117.5 293.5
q0 178 -117.5 294t-296.5 116t-296.5 -116t-117.5 -294z" />
    <glyph glyph-name="Ograve.smcp" horiz-adv-x="1264" 
d="M414 1489h138l142 -334h-107zM96 500q0 225 152 372.5t384 147.5t384 -147.5t152 -372.5t-152 -372.5t-384 -147.5t-384 147.5t-152 372.5zM218 500q0 -177 117.5 -293.5t296.5 -116.5t296.5 116.5t117.5 293.5q0 178 -117.5 294t-296.5 116t-296.5 -116t-117.5 -294z
" />
    <glyph glyph-name="Ohungarumlaut.smcp" horiz-adv-x="1264" 
d="M699 1489l-203 -334h-96l152 334h147zM1026 1489l-203 -334h-96l152 334h147zM96 500q0 225 152 372.5t384 147.5t384 -147.5t152 -372.5t-152 -372.5t-384 -147.5t-384 147.5t-152 372.5zM218 500q0 -177 117.5 -293.5t296.5 -116.5t296.5 116.5t117.5 293.5
q0 178 -117.5 294t-296.5 116t-296.5 -116t-117.5 -294z" />
    <glyph glyph-name="Omacron.smcp" horiz-adv-x="1264" 
d="M931 1257h-592v106h592v-106zM96 500q0 225 152 372.5t384 147.5t384 -147.5t152 -372.5t-152 -372.5t-384 -147.5t-384 147.5t-152 372.5zM218 500q0 -177 117.5 -293.5t296.5 -116.5t296.5 116.5t117.5 293.5q0 178 -117.5 294t-296.5 116t-296.5 -116t-117.5 -294z
" />
    <glyph glyph-name="Oogonek.smcp" horiz-adv-x="1264" 
d="M96 500q0 225 152 372.5t384 147.5t384 -147.5t152 -372.5q0 -184 -105 -319.5t-277 -180.5q-94 -57 -149.5 -120.5t-55.5 -113.5q0 -45 30 -71t85 -26t124 33l32 -94q-72 -45 -173 -45q-99 0 -154.5 50t-55.5 136q0 127 157 231q-230 2 -380 149.5t-150 370.5zM218 500
q0 -177 117.5 -293.5t296.5 -116.5t296.5 116.5t117.5 293.5q0 178 -117.5 294t-296.5 116t-296.5 -116t-117.5 -294z" />
    <glyph glyph-name="Oslash.smcp" horiz-adv-x="1225" 
d="M77 500q0 225 152 372.5t384 147.5q160 0 292 -78l127 157l79 -64l-124 -153q77 -71 119.5 -169.5t42.5 -212.5q0 -225 -152 -372.5t-384 -147.5q-166 0 -295 79l-127 -157l-76 60l125 155q-163 149 -163 383zM1027 500q0 175 -115 290l-521 -641q98 -59 222 -59
q179 0 296.5 116.5t117.5 293.5zM199 500q0 -174 115 -291l519 643q-99 58 -220 58q-179 0 -296.5 -116t-117.5 -294z" />
    <glyph glyph-name="Oslashacute.smcp" horiz-adv-x="1225" 
d="M77 500q0 225 152 372.5t384 147.5q160 0 292 -78l127 157l79 -64l-124 -153q77 -71 119.5 -169.5t42.5 -212.5q0 -225 -152 -372.5t-384 -147.5q-166 0 -295 79l-127 -157l-76 60l125 155q-163 149 -163 383zM1027 500q0 175 -115 290l-521 -641q98 -59 222 -59
q179 0 296.5 116.5t117.5 293.5zM199 500q0 -174 115 -291l519 643q-99 58 -220 58q-179 0 -296.5 -116t-117.5 -294zM836 1489l-173 -334h-107l142 334h138z" />
    <glyph glyph-name="Otilde.smcp" horiz-adv-x="1264" 
d="M505 1310q-39 0 -67 -19.5t-63 -59.5l-68 56q90 125 199 125q56 0 137 -40.5t121 -40.5q39 0 67 19.5t63 59.5l68 -56q-90 -125 -194 -125q-56 0 -139.5 40.5t-123.5 40.5zM96 500q0 225 152 372.5t384 147.5t384 -147.5t152 -372.5t-152 -372.5t-384 -147.5t-384 147.5
t-152 372.5zM218 500q0 -177 117.5 -293.5t296.5 -116.5t296.5 116.5t117.5 293.5q0 178 -117.5 294t-296.5 116t-296.5 -116t-117.5 -294z" />
    <glyph glyph-name="P.smcp" horiz-adv-x="1046" 
d="M618 310h-322v-310h-120v1000h442q169 0 264.5 -91t95.5 -252q0 -158 -98 -252.5t-262 -94.5zM296 894v-478h322q106 0 170.5 66t64.5 175q0 111 -62.5 174t-172.5 63h-322z" />
    <glyph glyph-name="P.swsh" horiz-adv-x="1776" 
d="M1222 436h-465v-436h-120v1252h-99q-100 0 -175 -21.5t-129.5 -69t-78.5 -129t-15 -195.5l-102 19q-22 241 107.5 371.5t390.5 130.5h686q98 0 182 -28.5t150 -84t104 -145.5t38 -206q0 -105 -38 -192.5t-103.5 -145t-151 -89t-181.5 -31.5zM757 1248v-702h465
q148 0 251 95t103 253q0 88 -28.5 157t-77.5 111.5t-112 64t-136 21.5h-465z" />
    <glyph glyph-name="Q.alt" horiz-adv-x="1662" 
d="M115 672q0 202 93 363.5t255.5 252t363.5 90.5q204 0 368.5 -90.5t257.5 -252t93 -363.5q0 -201 -93 -358.5t-256 -245.5l282 -371l-107 -89l-290 411q-122 -40 -255 -40q-201 0 -363.5 87.5t-255.5 246.5t-93 359zM235 672q0 -168 77 -301.5t212.5 -207.5t302.5 -74
q259 0 429 164t170 419q0 259 -170 427.5t-429 168.5q-125 0 -235 -45t-188.5 -123t-123.5 -189t-45 -239z" />
    <glyph glyph-name="Q.alt.smcp" horiz-adv-x="1264" 
d="M96 500q0 225 152 372.5t384 147.5t384 -147.5t152 -372.5q0 -148 -69.5 -266.5t-190.5 -185.5l219 -277l-102 -72l-219 306q-84 -25 -174 -25q-232 0 -384 147.5t-152 372.5zM218 500q0 -177 117.5 -293.5t296.5 -116.5t296.5 116.5t117.5 293.5q0 178 -117.5 294
t-296.5 116t-296.5 -116t-117.5 -294z" />
    <glyph glyph-name="Q.smcp" horiz-adv-x="1179" 
d="M96 500q0 225 152 372.5t384 147.5t384 -147.5t152 -372.5q0 -199 -121 -339.5t-315 -172.5q155 -138 364 -138q68 0 125 16l7 -104q-65 -20 -155 -20q-142 0 -276 67.5t-222 173.5q-211 19 -345 163t-134 354zM218 500q0 -177 117.5 -293.5t296.5 -116.5t296.5 116.5
t117.5 293.5q0 178 -117.5 294t-296.5 116t-296.5 -116t-117.5 -294z" />
    <glyph glyph-name="Q.swsh" horiz-adv-x="1640" 
d="M115 672q0 202 93 363.5t255.5 252t363.5 90.5q204 0 368.5 -90.5t257.5 -252t93 -363.5q0 -235 -126 -409t-338 -244q231 -256 538.5 -389.5t678.5 -133.5q162 0 322 30t262 78v-127q-73 -37 -250 -69.5t-335 -32.5q-379 0 -734.5 154t-628.5 457q-61 -7 -108 -7
q-201 0 -363.5 87.5t-255.5 246.5t-93 359zM235 672q0 -168 77 -301.5t212.5 -207.5t302.5 -74q259 0 429 164t170 419q0 259 -170 427.5t-429 168.5q-125 0 -235 -45t-188.5 -123t-123.5 -189t-45 -239z" />
    <glyph glyph-name="R.alt" horiz-adv-x="1453" 
d="M1365 98l-1 -111q-36 -7 -72 -7q-69 0 -133.5 32.5t-119.5 90t-97 112t-90 123t-74 98.5h-435v-436h-120v1358h585q98 0 182 -28.5t150 -84t104 -145.5t38 -206q0 -175 -100 -293t-258 -153q38 -56 53.5 -78t51 -70t55.5 -69.5t53 -54t58.5 -47t58 -26t64.5 -11.5
q23 0 47 6zM343 1248v-702h465q148 0 251 95t103 253q0 88 -28.5 157t-77.5 111.5t-112 64t-136 21.5h-465z" />
    <glyph glyph-name="R.alt.smcp" horiz-adv-x="1127" 
d="M978 653q0 -131 -76 -218.5t-194 -114.5q63 -106 129.5 -166.5t150.5 -60.5q25 0 49 4v-109q-26 -8 -71 -8q-54 0 -104.5 21t-88.5 51t-77.5 78.5t-64.5 86.5t-57 93h-278v-310h-120v1000h442q169 0 264.5 -92t95.5 -255zM296 894v-478h322q105 0 170 64t65 173
q0 113 -62.5 177t-172.5 64h-322z" />
    <glyph glyph-name="R.alt.swsh" horiz-adv-x="1405" 
d="M343 436v-436h-120v1358h585q98 0 182 -28.5t150 -84t104 -145.5t38 -206q0 -167 -90.5 -282t-236.5 -156q264 -485 597.5 -720t722.5 -235q211 0 403 75v-122q-67 -34 -181 -54t-229 -20q-197 0 -385 59.5t-372 183t-358.5 329.5t-324.5 484h-485zM343 1248v-702h465
q148 0 251 95t103 253q0 88 -28.5 157t-77.5 111.5t-112 64t-136 21.5h-465z" />
    <glyph glyph-name="R.smcp" horiz-adv-x="1096" 
d="M628 310h-332v-310h-120v1000h442q169 0 264.5 -92t95.5 -255q0 -112 -59.5 -197.5t-164.5 -123.5l285 -332h-158zM296 894v-478h322q105 0 170 64t65 173q0 113 -62.5 177t-172.5 64h-322z" />
    <glyph glyph-name="R.swsh" horiz-adv-x="1792" 
d="M1215 436h-485v-436h-120v1252h-72q-100 0 -175 -21.5t-129.5 -69t-78.5 -129t-15 -195.5l-102 19q-22 241 107.5 371.5t390.5 130.5h659q98 0 182 -28.5t150 -84t104 -145.5t38 -206q0 -167 -90.5 -282t-236.5 -156q264 -485 597.5 -720t722.5 -235q211 0 403 75v-122
q-67 -34 -181 -54t-229 -20q-197 0 -385 59.5t-372 183t-358.5 329.5t-324.5 484zM730 1248v-702h465q148 0 251 95t103 253q0 88 -28.5 157t-77.5 111.5t-112 64t-136 21.5h-465z" />
    <glyph glyph-name="R.swsh.ss01" horiz-adv-x="1991" 
d="M1903 98l-1 -111q-36 -7 -72 -7q-69 0 -133.5 32.5t-119.5 90t-97 112t-90 123t-74 98.5h-435v-436h-120v1252h-223q-100 0 -175 -21.5t-129.5 -69t-78.5 -129t-15 -195.5l-102 19q-22 241 107.5 371.5t390.5 130.5h810q98 0 182 -28.5t150 -84t104 -145.5t38 -206
q0 -175 -100 -293t-258 -153q38 -56 53.5 -78t51 -70t55.5 -69.5t53 -54t58.5 -47t58 -26t64.5 -11.5q23 0 47 6zM881 1248v-702h465q148 0 251 95t103 253q0 88 -28.5 157t-77.5 111.5t-112 64t-136 21.5h-465z" />
    <glyph glyph-name="Racute.alt" horiz-adv-x="1453" 
d="M1365 98l-1 -111q-36 -7 -72 -7q-69 0 -133.5 32.5t-119.5 90t-97 112t-90 123t-74 98.5h-435v-436h-120v1358h585q98 0 182 -28.5t150 -84t104 -145.5t38 -206q0 -175 -100 -293t-258 -153q38 -56 53.5 -78t51 -70t55.5 -69.5t53 -54t58.5 -47t58 -26t64.5 -11.5
q23 0 47 6zM343 1248v-702h465q148 0 251 95t103 253q0 88 -28.5 157t-77.5 111.5t-112 64t-136 21.5h-465zM924 1807l-173 -334h-107l142 334h138z" />
    <glyph glyph-name="Racute.alt.smcp" horiz-adv-x="1127" 
d="M978 653q0 -131 -76 -218.5t-194 -114.5q63 -106 129.5 -166.5t150.5 -60.5q25 0 49 4v-109q-26 -8 -71 -8q-54 0 -104.5 21t-88.5 51t-77.5 78.5t-64.5 86.5t-57 93h-278v-310h-120v1000h442q169 0 264.5 -92t95.5 -255zM296 894v-478h322q105 0 170 64t65 173
q0 113 -62.5 177t-172.5 64h-322zM752 1489l-173 -334h-107l142 334h138z" />
    <glyph glyph-name="Racute.alt.swsh" horiz-adv-x="1405" 
d="M343 436v-436h-120v1358h585q98 0 182 -28.5t150 -84t104 -145.5t38 -206q0 -167 -90.5 -282t-236.5 -156q264 -485 597.5 -720t722.5 -235q211 0 403 75v-122q-67 -34 -181 -54t-229 -20q-197 0 -385 59.5t-372 183t-358.5 329.5t-324.5 484h-485zM343 1248v-702h465
q148 0 251 95t103 253q0 88 -28.5 157t-77.5 111.5t-112 64t-136 21.5h-465zM923 1807l-173 -334h-107l142 334h138z" />
    <glyph glyph-name="Racute.smcp" horiz-adv-x="1096" 
d="M721 1489l-173 -334h-107l142 334h138zM628 310h-332v-310h-120v1000h442q169 0 264.5 -92t95.5 -255q0 -112 -59.5 -197.5t-164.5 -123.5l285 -332h-158zM296 894v-478h322q105 0 170 64t65 173q0 113 -62.5 177t-172.5 64h-322z" />
    <glyph glyph-name="Racute.swsh" horiz-adv-x="1792" 
d="M730 436v-436h-120v1252h-72q-100 0 -175 -21.5t-129.5 -69t-78.5 -129t-15 -195.5l-102 19q-22 241 107.5 371.5t390.5 130.5h659q98 0 182 -28.5t150 -84t104 -145.5t38 -206q0 -167 -90.5 -282t-236.5 -156q264 -485 597.5 -720t722.5 -235q211 0 403 75v-122
q-67 -34 -181 -54t-229 -20q-197 0 -385 59.5t-372 183t-358.5 329.5t-324.5 484h-485zM730 1248v-702h465q148 0 251 95t103 253q0 88 -28.5 157t-77.5 111.5t-112 64t-136 21.5h-465zM1303 1807l-173 -334h-107l142 334h138z" />
    <glyph glyph-name="Racute.swsh.ss01" horiz-adv-x="1865" 
d="M1777 98l-1 -111q-36 -7 -72 -7q-69 0 -133.5 32.5t-119.5 90t-97 112t-90 123t-74 98.5h-435v-436h-120v1252h-97q-100 0 -175 -21.5t-129.5 -69t-78.5 -129t-15 -195.5l-102 19q-22 241 107.5 371.5t390.5 130.5h684q98 0 182 -28.5t150 -84t104 -145.5t38 -206
q0 -175 -100 -293t-258 -153q38 -56 53.5 -78t51 -70t55.5 -69.5t53 -54t58.5 -47t58 -26t64.5 -11.5q23 0 47 6zM755 1248v-702h465q148 0 251 95t103 253q0 88 -28.5 157t-77.5 111.5t-112 64t-136 21.5h-465zM1283 1807l-173 -334h-107l142 334h138z" />
    <glyph glyph-name="Rcaron.alt" horiz-adv-x="1453" 
d="M1365 98l-1 -111q-36 -7 -72 -7q-69 0 -133.5 32.5t-119.5 90t-97 112t-90 123t-74 98.5h-435v-436h-120v1358h585q98 0 182 -28.5t150 -84t104 -145.5t38 -206q0 -175 -100 -293t-258 -153q38 -56 53.5 -78t51 -70t55.5 -69.5t53 -54t58.5 -47t58 -26t64.5 -11.5
q23 0 47 6zM343 1248v-702h465q148 0 251 95t103 253q0 88 -28.5 157t-77.5 111.5t-112 64t-136 21.5h-465zM676 1467l-263 368h123l174 -256l178 256h123l-263 -368h-72z" />
    <glyph glyph-name="Rcaron.alt.smcp" horiz-adv-x="1127" 
d="M978 653q0 -131 -76 -218.5t-194 -114.5q63 -106 129.5 -166.5t150.5 -60.5q25 0 49 4v-109q-26 -8 -71 -8q-54 0 -104.5 21t-88.5 51t-77.5 78.5t-64.5 86.5t-57 93h-278v-310h-120v1000h442q169 0 264.5 -92t95.5 -255zM296 894v-478h322q105 0 170 64t65 173
q0 113 -62.5 177t-172.5 64h-322zM481 1127l-263 368h123l174 -256l178 256h123l-263 -368h-72z" />
    <glyph glyph-name="Rcaron.alt.swsh" horiz-adv-x="1405" 
d="M343 436v-436h-120v1358h585q98 0 182 -28.5t150 -84t104 -145.5t38 -206q0 -167 -90.5 -282t-236.5 -156q264 -485 597.5 -720t722.5 -235q211 0 403 75v-122q-67 -34 -181 -54t-229 -20q-197 0 -385 59.5t-372 183t-358.5 329.5t-324.5 484h-485zM343 1248v-702h465
q148 0 251 95t103 253q0 88 -28.5 157t-77.5 111.5t-112 64t-136 21.5h-465zM646 1467l-263 368h123l174 -256l178 256h123l-263 -368h-72z" />
    <glyph glyph-name="Rcaron.smcp" horiz-adv-x="1096" 
d="M487 1125l-263 368h123l174 -256l178 256h123l-263 -368h-72zM628 310h-332v-310h-120v1000h442q169 0 264.5 -92t95.5 -255q0 -112 -59.5 -197.5t-164.5 -123.5l285 -332h-158zM296 894v-478h322q105 0 170 64t65 173q0 113 -62.5 177t-172.5 64h-322z" />
    <glyph glyph-name="Rcaron.swsh" horiz-adv-x="1792" 
d="M730 436v-436h-120v1252h-72q-100 0 -175 -21.5t-129.5 -69t-78.5 -129t-15 -195.5l-102 19q-22 241 107.5 371.5t390.5 130.5h659q98 0 182 -28.5t150 -84t104 -145.5t38 -206q0 -167 -90.5 -282t-236.5 -156q264 -485 597.5 -720t722.5 -235q211 0 403 75v-122
q-67 -34 -181 -54t-229 -20q-197 0 -385 59.5t-372 183t-358.5 329.5t-324.5 484h-485zM730 1248v-702h465q148 0 251 95t103 253q0 88 -28.5 157t-77.5 111.5t-112 64t-136 21.5h-465zM994 1467l-263 368h123l174 -256l178 256h123l-263 -368h-72z" />
    <glyph glyph-name="Rcaron.swsh.ss01" horiz-adv-x="1868" 
d="M1780 98l-1 -111q-36 -7 -72 -7q-69 0 -133.5 32.5t-119.5 90t-97 112t-90 123t-74 98.5h-435v-436h-120v1252h-100q-100 0 -175 -21.5t-129.5 -69t-78.5 -129t-15 -195.5l-102 19q-22 241 107.5 371.5t390.5 130.5h687q98 0 182 -28.5t150 -84t104 -145.5t38 -206
q0 -175 -100 -293t-258 -153q38 -56 53.5 -78t51 -70t55.5 -69.5t53 -54t58.5 -47t58 -26t64.5 -11.5q23 0 47 6zM758 1248v-702h465q148 0 251 95t103 253q0 88 -28.5 157t-77.5 111.5t-112 64t-136 21.5h-465zM1076 1467l-263 368h123l174 -256l178 256h123l-263 -368h-72
z" />
    <glyph glyph-name="Rcommaaccent.alt" horiz-adv-x="1453" 
d="M1365 98l-1 -111q-36 -7 -72 -7q-69 0 -133.5 32.5t-119.5 90t-97 112t-90 123t-74 98.5h-435v-436h-120v1358h585q98 0 182 -28.5t150 -84t104 -145.5t38 -206q0 -175 -100 -293t-258 -153q38 -56 53.5 -78t51 -70t55.5 -69.5t53 -54t58.5 -47t58 -26t64.5 -11.5
q23 0 47 6zM343 1248v-702h465q148 0 251 95t103 253q0 88 -28.5 157t-77.5 111.5t-112 64t-136 21.5h-465zM644 -508l14 380h136l-52 -380h-98z" />
    <glyph glyph-name="Rcommaaccent.alt.smcp" horiz-adv-x="1127" 
d="M978 653q0 -131 -76 -218.5t-194 -114.5q63 -106 129.5 -166.5t150.5 -60.5q25 0 49 4v-109q-26 -8 -71 -8q-54 0 -104.5 21t-88.5 51t-77.5 78.5t-64.5 86.5t-57 93h-278v-310h-120v1000h442q169 0 264.5 -92t95.5 -255zM296 894v-478h322q105 0 170 64t65 173
q0 113 -62.5 177t-172.5 64h-322zM438 -508l14 380h136l-52 -380h-98z" />
    <glyph glyph-name="Rcommaaccent.alt.swsh" horiz-adv-x="1405" 
d="M343 436v-436h-120v1358h585q98 0 182 -28.5t150 -84t104 -145.5t38 -206q0 -167 -90.5 -282t-236.5 -156q264 -485 597.5 -720t722.5 -235q211 0 403 75v-122q-67 -34 -181 -54t-229 -20q-197 0 -385 59.5t-372 183t-358.5 329.5t-324.5 484h-485zM343 1248v-702h465
q148 0 251 95t103 253q0 88 -28.5 157t-77.5 111.5t-112 64t-136 21.5h-465zM615 -508l14 380h136l-52 -380h-98z" />
    <glyph glyph-name="Rcommaaccent.smcp" horiz-adv-x="1096" 
d="M459 -508l14 380h136l-52 -380h-98zM628 310h-332v-310h-120v1000h442q169 0 264.5 -92t95.5 -255q0 -112 -59.5 -197.5t-164.5 -123.5l285 -332h-158zM296 894v-478h322q105 0 170 64t65 173q0 113 -62.5 177t-172.5 64h-322z" />
    <glyph glyph-name="Rcommaaccent.swsh" horiz-adv-x="1792" 
d="M730 436v-436h-120v1252h-72q-100 0 -175 -21.5t-129.5 -69t-78.5 -129t-15 -195.5l-102 19q-22 241 107.5 371.5t390.5 130.5h659q98 0 182 -28.5t150 -84t104 -145.5t38 -206q0 -167 -90.5 -282t-236.5 -156q264 -485 597.5 -720t722.5 -235q211 0 403 75v-122
q-67 -34 -181 -54t-229 -20q-197 0 -385 59.5t-372 183t-358.5 329.5t-324.5 484h-485zM730 1248v-702h465q148 0 251 95t103 253q0 88 -28.5 157t-77.5 111.5t-112 64t-136 21.5h-465zM974 -508l14 380h136l-52 -380h-98z" />
    <glyph glyph-name="Rcommaaccent.swsh.ss01" horiz-adv-x="1868" 
d="M1780 98l-1 -111q-36 -7 -72 -7q-69 0 -133.5 32.5t-119.5 90t-97 112t-90 123t-74 98.5h-435v-436h-120v1252h-100q-100 0 -175 -21.5t-129.5 -69t-78.5 -129t-15 -195.5l-102 19q-22 241 107.5 371.5t390.5 130.5h687q98 0 182 -28.5t150 -84t104 -145.5t38 -206
q0 -175 -100 -293t-258 -153q38 -56 53.5 -78t51 -70t55.5 -69.5t53 -54t58.5 -47t58 -26t64.5 -11.5q23 0 47 6zM758 1248v-702h465q148 0 251 95t103 253q0 88 -28.5 157t-77.5 111.5t-112 64t-136 21.5h-465zM1072 -508l14 380h136l-52 -380h-98z" />
    <glyph glyph-name="S.smcp" horiz-adv-x="901" 
d="M524 426l-177 57q-124 40 -182.5 101.5t-58.5 165.5q0 127 96 198.5t265 71.5q153 0 295 -55l-14 -113q-132 54 -279 54q-113 0 -177 -41.5t-64 -114.5q0 -35 12 -60t39.5 -43.5t49.5 -28t66 -25.5l167 -55q140 -48 196.5 -111t56.5 -165q0 -132 -97.5 -207t-271.5 -75
q-195 0 -340 68l14 119q155 -72 322 -72q118 0 184.5 44.5t66.5 122.5q0 58 -39 96.5t-130 67.5z" />
    <glyph glyph-name="Sacute.smcp" horiz-adv-x="901" 
d="M675 1489l-173 -334h-107l142 334h138zM524 426l-177 57q-124 40 -182.5 101.5t-58.5 165.5q0 127 96 198.5t265 71.5q153 0 295 -55l-14 -113q-132 54 -279 54q-113 0 -177 -41.5t-64 -114.5q0 -35 12 -60t39.5 -43.5t49.5 -28t66 -25.5l167 -55q140 -48 196.5 -111
t56.5 -165q0 -132 -97.5 -207t-271.5 -75q-195 0 -340 68l14 119q155 -72 322 -72q118 0 184.5 44.5t66.5 122.5q0 58 -39 96.5t-130 67.5z" />
    <glyph glyph-name="Scaron.smcp" horiz-adv-x="901" 
d="M429 1126l-263 368h123l174 -256l178 256h123l-263 -368h-72zM524 426l-177 57q-124 40 -182.5 101.5t-58.5 165.5q0 127 96 198.5t265 71.5q153 0 295 -55l-14 -113q-132 54 -279 54q-113 0 -177 -41.5t-64 -114.5q0 -35 12 -60t39.5 -43.5t49.5 -28t66 -25.5l167 -55
q140 -48 196.5 -111t56.5 -165q0 -132 -97.5 -207t-271.5 -75q-195 0 -340 68l14 119q155 -72 322 -72q118 0 184.5 44.5t66.5 122.5q0 58 -39 96.5t-130 67.5z" />
    <glyph glyph-name="Scedilla.smcp" horiz-adv-x="901" 
d="M524 426l-177 57q-124 40 -182.5 101.5t-58.5 165.5q0 127 96 198.5t265 71.5q153 0 295 -55l-14 -113q-132 54 -279 54q-113 0 -177 -41.5t-64 -114.5q0 -35 12 -60t39.5 -43.5t49.5 -28t66 -25.5l167 -55q140 -48 196.5 -111t56.5 -165q0 -125 -86.5 -198.5
t-243.5 -81.5l-28 -84q91 -7 146.5 -50t55.5 -112q0 -81 -64 -127t-177 -46q-75 0 -129 18v99q57 -19 119 -19q139 0 139 75q0 81 -161 81h-49l60 164q-169 10 -291 67l14 119q155 -72 322 -72q118 0 184.5 44.5t66.5 122.5q0 58 -39 96.5t-130 67.5z" />
    <glyph glyph-name="Schwa.smcp" horiz-adv-x="1193" 
d="M181 815l-27 106q68 41 168 70t213 29q260 0 409.5 -143t149.5 -377q0 -224 -142 -372t-362 -148q-105 0 -193 31t-147 84.5t-99.5 126t-50 154.5t2.5 170h862q-15 174 -126 267t-294 93q-202 0 -364 -91zM965 440h-753q5 -158 104 -252t270 -94q161 0 264.5 94.5
t114.5 251.5z" />
    <glyph glyph-name="Scircumflex.smcp" horiz-adv-x="901" 
d="M498 1494l263 -368h-123l-174 256l-178 -256h-123l263 368h72zM524 426l-177 57q-124 40 -182.5 101.5t-58.5 165.5q0 127 96 198.5t265 71.5q153 0 295 -55l-14 -113q-132 54 -279 54q-113 0 -177 -41.5t-64 -114.5q0 -35 12 -60t39.5 -43.5t49.5 -28t66 -25.5l167 -55
q140 -48 196.5 -111t56.5 -165q0 -132 -97.5 -207t-271.5 -75q-195 0 -340 68l14 119q155 -72 322 -72q118 0 184.5 44.5t66.5 122.5q0 58 -39 96.5t-130 67.5z" />
    <glyph glyph-name="Scommaaccent.smcp" horiz-adv-x="901" 
d="M381 -508l14 380h136l-52 -380h-98zM524 426l-177 57q-124 40 -182.5 101.5t-58.5 165.5q0 127 96 198.5t265 71.5q153 0 295 -55l-14 -113q-132 54 -279 54q-113 0 -177 -41.5t-64 -114.5q0 -35 12 -60t39.5 -43.5t49.5 -28t66 -25.5l167 -55q140 -48 196.5 -111
t56.5 -165q0 -132 -97.5 -207t-271.5 -75q-195 0 -340 68l14 119q155 -72 322 -72q118 0 184.5 44.5t66.5 122.5q0 58 -39 96.5t-130 67.5z" />
    <glyph glyph-name="T.smcp" horiz-adv-x="859" 
d="M813 894h-324v-894h-120v894h-323v106h767v-106z" />
    <glyph glyph-name="Tbar.smcp" horiz-adv-x="913" 
d="M840 894h-324v-324h284v-106h-284v-464h-120v464h-284v106h284v324h-323v106h767v-106z" />
    <glyph glyph-name="Tcaron.smcp" horiz-adv-x="859" 
d="M394 1126l-263 368h123l174 -256l178 256h123l-263 -368h-72zM813 894h-324v-894h-120v894h-323v106h767v-106z" />
    <glyph glyph-name="Tcommaaccent.smcp" horiz-adv-x="859" 
d="M349 -508l14 380h136l-52 -380h-98zM813 894h-324v-894h-120v894h-323v106h767v-106z" />
    <glyph glyph-name="Thorn.smcp" horiz-adv-x="1068" 
d="M618 155h-322v-155h-120v1000h120v-155h322q169 0 264.5 -91t95.5 -252q0 -158 -98 -252.5t-262 -94.5zM296 739v-478h322q106 0 170.5 66t64.5 175q0 111 -62.5 174t-172.5 63h-322z" />
    <glyph glyph-name="U.smcp" horiz-adv-x="1211" 
d="M928 409v591h120v-610q0 -188 -118 -299t-324 -111t-324.5 110.5t-118.5 293.5v616h120v-591q0 -155 87 -237t236 -82t235.5 82t86.5 237z" />
    <glyph glyph-name="Uacute.smcp" horiz-adv-x="1211" 
d="M827 1489l-173 -334h-107l142 334h138zM928 409v591h120v-610q0 -188 -118 -299t-324 -111t-324.5 110.5t-118.5 293.5v616h120v-591q0 -155 87 -237t236 -82t235.5 82t86.5 237z" />
    <glyph glyph-name="Ubreve.smcp" horiz-adv-x="1211" 
d="M928 409v591h120v-610q0 -188 -118 -299t-324 -111t-324.5 110.5t-118.5 293.5v616h120v-591q0 -155 87 -237t236 -82t235.5 82t86.5 237zM339 1439h111q5 -70 48.5 -113.5t107.5 -43.5t107.5 43.5t48.5 113.5h111q-6 -115 -80 -186.5t-187 -71.5q-112 0 -186 71.5
t-81 186.5z" />
    <glyph glyph-name="Ucircumflex.smcp" horiz-adv-x="1211" 
d="M638 1493l263 -368h-123l-174 256l-178 -256h-123l263 368h72zM928 409v591h120v-610q0 -188 -118 -299t-324 -111t-324.5 110.5t-118.5 293.5v616h120v-591q0 -155 87 -237t236 -82t235.5 82t86.5 237z" />
    <glyph glyph-name="Udieresis.smcp" horiz-adv-x="1211" 
d="M432 1245q-33 0 -54 21t-21 54t21 54t54 21t54.5 -21t21.5 -54t-21.5 -54t-54.5 -21zM782 1245q-33 0 -54 21t-21 54t21 54t54 21t54.5 -21t21.5 -54t-21.5 -54t-54.5 -21zM928 409v591h120v-610q0 -188 -118 -299t-324 -111t-324.5 110.5t-118.5 293.5v616h120v-591
q0 -155 87 -237t236 -82t235.5 82t86.5 237z" />
    <glyph glyph-name="Udotbelow.smcp" horiz-adv-x="1211" 
d="M606 -357q-33 0 -54 21t-21 54t21 54t54 21t54.5 -21t21.5 -54t-21.5 -54t-54.5 -21zM928 409v591h120v-610q0 -188 -118 -299t-324 -111t-324.5 110.5t-118.5 293.5v616h120v-591q0 -155 87 -237t236 -82t235.5 82t86.5 237z" />
    <glyph glyph-name="Ugrave.smcp" horiz-adv-x="1211" 
d="M383 1489h138l142 -334h-107zM928 409v591h120v-610q0 -188 -118 -299t-324 -111t-324.5 110.5t-118.5 293.5v616h120v-591q0 -155 87 -237t236 -82t235.5 82t86.5 237z" />
    <glyph glyph-name="Uhungarumlaut.smcp" horiz-adv-x="1211" 
d="M688 1489l-203 -334h-96l152 334h147zM1015 1489l-203 -334h-96l152 334h147zM928 409v591h120v-610q0 -188 -118 -299t-324 -111t-324.5 110.5t-118.5 293.5v616h120v-591q0 -155 87 -237t236 -82t235.5 82t86.5 237z" />
    <glyph glyph-name="Umacron.smcp" horiz-adv-x="1211" 
d="M897 1257h-592v106h592v-106zM928 409v591h120v-610q0 -188 -118 -299t-324 -111t-324.5 110.5t-118.5 293.5v616h120v-591q0 -155 87 -237t236 -82t235.5 82t86.5 237z" />
    <glyph glyph-name="Uogonek.smcp" horiz-adv-x="1211" 
d="M928 409v591h120v-610q0 -148 -75 -250.5t-211 -139.5h1q-94 -57 -150 -120.5t-56 -113.5q0 -45 30 -71t85 -26t124 33l32 -94q-72 -45 -173 -45q-99 0 -154.5 50t-55.5 136q0 127 157 231q-204 1 -321.5 111t-117.5 293v616h120v-591q0 -155 87 -237t236 -82t235.5 82
t86.5 237z" />
    <glyph glyph-name="Uring.smcp" horiz-adv-x="1211" 
d="M387 1335q0 88 63 148t155 60t155 -60t63 -148q0 -87 -63 -146.5t-155 -59.5t-155 59.5t-63 146.5zM486 1335q0 -51 33 -85t86 -34t86 34t33 85q0 52 -33 86.5t-86 34.5t-86 -34.5t-33 -86.5zM928 409v591h120v-610q0 -188 -118 -299t-324 -111t-324.5 110.5
t-118.5 293.5v616h120v-591q0 -155 87 -237t236 -82t235.5 82t86.5 237z" />
    </font>
</defs>
</svg>
