<svg width="28" height="28" viewBox="0 0 28 28" fill="none" xmlns="http://www.w3.org/2000/svg">
<path d="M25.1868 10.0499H21.2165V3.28792C21.2165 2.41942 21.7128 1.61295 22.4572 1.30276C23.5119 0.868511 24.6285 1.3648 25.0627 2.29534C25.1868 2.54348 25.4969 2.72959 25.745 2.60552C26.1173 2.48145 26.2414 2.10923 26.1173 1.79905C25.4349 0.372214 23.76 -0.372216 22.1471 0.186111C20.8443 0.682401 20.0998 1.92313 20.0998 3.28792V6.63788C20.0998 6.76195 20.0998 6.76195 20.0998 6.76195H13.7101V3.28792C13.7101 2.41942 14.2064 1.61295 14.9508 1.30276C16.0054 0.868511 17.122 1.3648 17.5563 2.29534C17.6804 2.54348 17.9906 2.72959 18.2387 2.60552C18.611 2.48145 18.7349 2.10923 18.6109 1.79905C18.1146 0.682395 16.936 0 15.7573 0C14.0203 0 12.5934 1.42684 12.5934 3.16385C12.5934 3.16385 12.5934 6.57584 12.5934 10.0499H2.29546C1.05474 10.0499 0 11.0424 0 12.3452V26.0552C0 26.7997 0.620483 27.42 1.36492 27.42H26.0552C26.7997 27.42 27.4201 26.7997 27.4201 26.0552V12.2832C27.4822 11.0425 26.4275 10.0499 25.1868 10.0499ZM25.1868 11.1665C25.8071 11.1665 26.3035 11.6628 26.3035 12.2832V16.3155C25.7451 16.5016 25.3729 16.6877 25.0006 16.9359C24.3182 17.3081 23.7599 17.6183 22.5192 17.6183C21.9609 17.6183 21.5266 17.5563 21.1544 17.4322V11.1665H25.1868ZM13.7101 7.8786H20.0998V11.973H13.7101V7.8786ZM13.7101 13.1517H20.0998V16.8118C19.4174 16.4396 18.611 16.0054 17.1842 16.0054C15.6953 16.0054 14.8888 16.4396 14.2064 16.8118C14.0823 16.8739 13.9583 16.9359 13.7722 17.06V13.1517H13.7101ZM14.6406 17.8664C15.323 17.4942 15.8813 17.184 17.1221 17.184C18.3628 17.184 18.9211 17.4942 19.6035 17.8664C20.2859 18.2387 21.0924 18.6729 22.5813 18.6729C24.0702 18.6729 24.8767 18.2387 25.559 17.8664C25.8072 17.7424 26.0553 17.6183 26.3035 17.4942V23.2015C25.7451 23.3877 25.3729 23.5738 25.0006 23.8219C24.3182 24.1941 23.7599 24.5043 22.5192 24.5043C21.2785 24.5043 20.7201 24.1941 20.0377 23.8219C19.3553 23.4497 18.5488 23.0154 17.06 23.0154C15.5711 23.0154 14.7647 23.4497 14.0823 23.8219C13.3999 24.1941 12.8416 24.5043 11.6009 24.5043C10.3602 24.5043 9.80185 24.1941 9.11945 23.8219C8.43705 23.4497 7.63055 23.0154 6.14168 23.0154C4.65281 23.0154 3.84631 23.4497 3.16391 23.8219C2.54355 24.1321 2.04732 24.4423 1.05474 24.5043V18.7349C2.3575 18.6729 3.03978 18.3007 3.72217 17.9285C4.40457 17.5563 4.9629 17.2461 6.20362 17.2461C7.44435 17.2461 8.00267 17.5563 8.68507 17.9285C9.36747 18.3007 10.174 18.7349 11.6628 18.7349C13.1517 18.7349 13.9582 18.3007 14.6406 17.8664ZM2.23337 11.1665H12.5314C12.5314 14.3304 12.5314 17.2461 12.5314 17.4942C12.2833 17.5563 11.973 17.5563 11.6628 17.5563C10.4221 17.5563 9.86379 17.2461 9.18139 16.8739C8.49899 16.5016 7.69249 16.0674 6.20362 16.0674C4.71475 16.0674 3.9084 16.5016 3.22601 16.8739C2.60564 17.184 2.10926 17.4942 1.11668 17.5563V12.2832C1.11668 11.6628 1.613 11.1665 2.23337 11.1665ZM26.0552 26.3034H1.36492C1.24085 26.3034 1.11668 26.1793 1.11668 26.0552V25.621C2.41944 25.5589 3.10187 25.1867 3.78427 24.8145C4.46667 24.4423 5.025 24.1321 6.26572 24.1321C7.50644 24.1321 8.06477 24.4423 8.74717 24.8145C9.42957 25.1867 10.2361 25.621 11.7249 25.621C13.2138 25.621 14.0203 25.1867 14.7027 24.8145C15.3851 24.4423 15.9434 24.1321 17.1842 24.1321C18.4249 24.1321 18.9832 24.4423 19.6656 24.8145C20.348 25.1867 21.1544 25.621 22.6432 25.621C24.1321 25.621 24.9386 25.1867 25.621 24.8145C25.8691 24.6904 26.1173 24.5663 26.3654 24.4423V26.0552C26.3034 26.1793 26.2413 26.3034 26.0552 26.3034Z" fill="#8B8B8B"/>
</svg>
