<svg width="29" height="29" viewBox="0 0 29 29" fill="none" xmlns="http://www.w3.org/2000/svg">
<path d="M28.4594 22.9546H8.5663C7.32298 22.9546 6.29592 21.9462 6.29592 20.7254V6.87194C6.29592 5.12036 5.48508 3.47494 4.02554 2.41337L0.944293 0.131007C0.674007 -0.0813057 0.349663 -0.0282291 0.133433 0.237162C-0.0827962 0.502553 -0.0287653 0.821023 0.241521 1.03334L3.10659 3.15646C4.40396 4.11187 5.10668 5.59806 5.10668 7.13733V21.3092C5.10668 22.8485 6.40409 24.1224 7.97175 24.1224H9.21509C8.40423 24.7062 7.91772 25.7147 8.13395 26.8294C8.35018 27.8909 9.21509 28.7402 10.2962 28.9525C12.0801 29.271 13.5937 27.944 13.5937 26.2986C13.5937 25.3962 13.1613 24.6001 12.4585 24.1224H22.405C21.5942 24.7062 21.1077 25.7147 21.3239 26.8294C21.5401 27.8909 22.405 28.7402 23.4862 28.9525C25.2701 29.271 26.7837 27.944 26.7837 26.2986C26.7837 25.3962 26.3512 24.6001 25.6485 24.1224H28.4055C28.7298 24.1224 29 23.857 29 23.5385C29 23.22 28.7838 22.9546 28.4594 22.9546ZM10.8368 27.8909C9.91784 27.8909 9.21509 27.2009 9.21509 26.2986C9.21509 25.3962 9.91784 24.7062 10.8368 24.7062C11.7558 24.7062 12.4585 25.3962 12.4585 26.2986C12.4585 27.1478 11.7558 27.8909 10.8368 27.8909ZM24.0268 27.8909C23.1078 27.8909 22.405 27.2009 22.405 26.2986C22.405 25.3962 23.1078 24.7062 24.0268 24.7062C24.9457 24.7062 25.6485 25.3962 25.6485 26.2986C25.6485 27.1478 24.9457 27.8909 24.0268 27.8909Z" fill="#8B8B8B"/>
<path d="M8.99884 13.0824H24.189C24.7296 13.0824 25.108 12.6578 25.108 12.1801V11.1185C25.108 10.9062 25.2701 10.7469 25.4863 10.7469H26.2972C26.6215 10.7469 26.8919 10.4815 26.8919 10.1631C26.8919 9.84461 26.6215 9.57922 26.2972 9.57922H25.4863C25.2701 9.57922 25.108 9.41998 25.108 9.20767V8.1461C25.108 7.61532 24.6755 7.24377 24.189 7.24377H8.99884C8.45827 7.24377 8.0799 7.6684 8.0799 8.1461V12.127C8.0799 12.6578 8.51233 13.0824 8.99884 13.0824ZM9.21515 8.72997C9.21515 8.51765 9.3773 8.35842 9.59353 8.35842H23.5943C23.8106 8.35842 23.9727 8.51765 23.9727 8.72997V11.5962C23.9727 11.8085 23.8106 11.9677 23.5943 11.9677H9.59353C9.3773 11.9677 9.21515 11.8085 9.21515 11.5962V8.72997Z" fill="#8B8B8B"/>
<path d="M8.99884 20.6722H24.189C24.7296 20.6722 25.108 20.2476 25.108 19.7699V18.7083C25.108 18.496 25.2701 18.3368 25.4863 18.3368H26.2972C26.6215 18.3368 26.8919 18.0714 26.8919 17.7529C26.8919 17.4345 26.6215 17.1691 26.2972 17.1691H25.4863C25.2701 17.1691 25.108 17.0098 25.108 16.7975V15.7359C25.108 15.2052 24.6755 14.8336 24.189 14.8336H8.99884C8.45827 14.8336 8.0799 15.2582 8.0799 15.7359V19.7168C8.0799 20.3007 8.51233 20.6722 8.99884 20.6722ZM9.21515 16.3198C9.21515 16.1075 9.3773 15.9483 9.59353 15.9483H23.5943C23.8106 15.9483 23.9727 16.1075 23.9727 16.3198V19.186C23.9727 19.3983 23.8106 19.5576 23.5943 19.5576H9.59353C9.3773 19.5576 9.21515 19.3983 9.21515 19.186V16.3198Z" fill="#8B8B8B"/>
</svg>
