<svg width="36" height="36" viewBox="0 0 36 36" fill="none" xmlns="http://www.w3.org/2000/svg">
<path d="M10.5828 23.0337C8.84357 23.0337 7.42645 21.6166 7.42645 19.8773C7.42645 18.1381 8.84357 16.7209 10.5828 16.7209C12.3221 16.7209 13.7393 18.1381 13.7393 19.8773C13.7393 21.681 12.3221 23.0337 10.5828 23.0337ZM10.5828 18.0736C9.55216 18.0736 8.7148 18.9111 8.7148 19.9417C8.7148 20.9724 9.55216 21.8099 10.5828 21.8099C11.6135 21.8099 12.4509 20.9724 12.4509 19.9417C12.4509 18.9111 11.6135 18.0736 10.5828 18.0736Z" fill="#1F70D1"/>
<path d="M18.313 25.997C17.2824 25.997 16.445 26.8344 16.445 27.865C16.445 28.8957 17.2824 29.7332 18.313 29.7332C19.3437 29.7332 20.1812 28.8957 20.1812 27.865C20.1812 26.8344 19.3437 25.997 18.313 25.997Z" fill="#1F70D1"/>
<path d="M10.5829 25.997C9.5522 25.997 8.71484 26.8344 8.71484 27.865C8.71484 28.8957 9.5522 29.7332 10.5829 29.7332C11.6136 29.7332 12.451 28.8957 12.451 27.865C12.451 26.8344 11.6136 25.997 10.5829 25.997Z" fill="#1F70D1"/>
<path d="M18.313 17.9449C17.2824 17.9449 16.445 18.7822 16.445 19.8129C16.445 20.8436 17.2824 21.681 18.313 21.681C19.3437 21.681 20.1812 20.8436 20.1812 19.8129C20.1812 18.7822 19.3437 17.9449 18.313 17.9449Z" fill="#1F70D1"/>
<path d="M26.2362 17.9449C25.2055 17.9449 24.3681 18.7822 24.3681 19.8129C24.3681 20.8436 25.2055 21.681 26.2362 21.681C27.2669 21.681 28.1043 20.8436 28.1043 19.8129C28.1043 18.7822 27.2669 17.9449 26.2362 17.9449Z" fill="#1F70D1"/>
<path d="M26.2362 30.9571C24.497 30.9571 23.0798 29.5399 23.0798 27.8007C23.0798 26.0614 24.497 24.6442 26.2362 24.6442C27.9755 24.6442 29.3927 26.0614 29.3927 27.8007C29.3927 29.5399 27.9755 30.9571 26.2362 30.9571ZM26.2362 25.997C25.2056 25.997 24.3681 26.8344 24.3681 27.8651C24.3681 28.8958 25.2056 29.7332 26.2362 29.7332C27.2669 29.7332 28.1043 28.8958 28.1043 27.8651C28.1043 26.8344 27.2669 25.997 26.2362 25.997Z" fill="#1F70D1"/>
<path d="M30.8098 6.09205H27.2025V3.96626C27.2025 3.45092 26.7515 3 26.2362 3C25.7209 3 25.2699 3.45092 25.2699 3.96626V6.09205H10.7117V3.96626C10.7117 3.45092 10.2608 3 9.74543 3C9.23009 3 8.77917 3.45092 8.77917 3.96626V6.09205H5.17182C3.17489 6.09205 1.5 7.70245 1.5 9.7638V30.8283C1.5 32.8252 3.11048 34.5 5.17182 34.5H30.7454C32.7423 34.5 34.4171 32.8252 34.4171 30.8283V9.7638C34.4816 7.70245 32.8067 6.09205 30.8098 6.09205ZM5.23623 8.02457H8.84357V9.50612C8.84357 10.0215 9.29449 10.4724 9.80983 10.4724C10.3252 10.4724 10.7761 10.0215 10.7761 9.50612V8.02457H25.3343V9.50612C25.3343 10.0215 25.7853 10.4724 26.3006 10.4724C26.8159 10.4724 27.2669 10.0215 27.2669 9.50612V8.02457H30.8742C31.8405 8.02457 32.6135 8.79754 32.6135 9.7638V13.3711H3.5614V9.7638C3.49698 8.79754 4.26997 8.02457 5.23623 8.02457ZM30.8098 32.5675H5.23623C4.26997 32.5675 3.49692 31.7945 3.49692 30.8283V15.3037H32.5491V30.8283C32.5491 31.7945 31.7761 32.5675 30.8098 32.5675Z" fill="#1F70D1"/>
</svg>
