<svg width="19" height="20" viewBox="0 0 19 20" fill="none" xmlns="http://www.w3.org/2000/svg">
<path d="M11.037 10.3302C10.0417 10.3302 9.18213 9.48106 9.18213 8.39615C9.18213 7.31124 9.99648 6.46225 11.037 6.46225C12.0776 6.46225 12.892 7.31124 12.892 8.39615C12.892 9.48106 12.0324 10.3302 11.037 10.3302ZM11.037 7.40565C10.5394 7.40565 10.087 7.83011 10.087 8.39615C10.087 8.91502 10.4941 9.38676 11.037 9.38676C11.58 9.38676 11.9871 8.96219 11.9871 8.39615C11.9419 7.87728 11.5347 7.40565 11.037 7.40565Z" fill="white"/>
<path d="M10.2226 0C9.9059 0 9.67969 0.235827 9.67969 0.566016C9.67969 0.896205 9.9059 1.13203 10.2226 1.13203C14.4753 1.13203 17.9137 4.71695 17.9137 9.15092C17.9137 9.48111 18.1399 9.71693 18.4566 9.71693C18.7733 9.71693 18.9995 9.48111 18.9995 9.15092C19.0448 4.10374 15.1087 0 10.2226 0Z" fill="white"/>
<path d="M14.973 9.24524C14.973 9.57542 15.1992 9.81125 15.5159 9.81125C15.8326 9.81125 16.0588 9.57542 16.0588 9.24524C16.0588 5.80183 13.3895 3.01883 10.0869 3.01883C9.77016 3.01883 9.54395 3.25466 9.54395 3.58485C9.54395 3.91503 9.77016 4.15086 10.0869 4.15086C12.8014 4.19803 14.973 6.46221 14.973 9.24524Z" fill="white"/>
<path d="M16.3303 12.4528C15.7422 11.8868 14.9731 11.6037 14.1587 11.6037C13.2539 11.6037 12.3943 12.0283 11.7609 12.6887L11.218 13.349C11.037 13.5377 10.9013 13.7736 10.7656 14.0094C8.7749 13.066 7.10094 11.5094 6.06038 9.52829C6.42231 9.33961 6.69377 9.10372 6.96522 8.77353L7.50812 8.1132C8.09627 7.45282 8.36772 6.60371 8.32248 5.70748C8.27724 4.81126 7.9153 3.96224 7.28191 3.3962L6.33183 2.49991C5.74369 1.93387 4.97457 1.65094 4.16021 1.65094C3.25537 1.65094 2.39577 2.07538 1.76239 2.73576L1.21948 3.3962C1.129 3.49054 1.08376 3.58481 0.993273 3.67915C0.359885 4.24519 -0.228261 5.56604 0.0884327 7.31133C1.35521 14.151 6.87473 19.3868 13.5253 20C13.661 20 13.842 20 13.9777 20C14.7921 20 15.516 19.8113 16.1493 19.3868C16.466 19.1981 16.6923 19.0094 16.9185 18.7264L17.4614 18.066C18.6377 16.6981 18.5472 14.5755 17.2352 13.3019L16.3303 12.4528ZM5.1103 8.44336L4.92933 8.49058C4.74836 8.53775 4.61264 8.67917 4.52215 8.86785C4.43167 9.05652 4.43167 9.2453 4.52215 9.43398L4.61263 9.62261C5.87941 12.2641 8.05103 14.3396 10.7203 15.4716L10.856 15.5188C11.037 15.566 11.218 15.566 11.3537 15.5188C11.5347 15.4245 11.6251 15.283 11.6704 15.1415L11.7156 14.9999C11.8061 14.7169 11.9418 14.4811 12.1228 14.2924L12.6657 13.6321C13.0276 13.2075 13.5706 12.9717 14.1135 12.9717C14.6111 12.9717 15.0635 13.1603 15.4255 13.4905L16.3756 14.3868C17.1899 15.1415 17.2352 16.4151 16.5113 17.2641L15.9684 17.9246C15.8327 18.0661 15.6517 18.2075 15.4707 18.349C14.9731 18.6792 14.3397 18.8208 13.661 18.7264C7.55336 18.1604 2.5315 13.3962 1.35521 7.12258C1.129 5.89616 1.53617 5 1.85287 4.71698C1.85287 4.71698 1.89812 4.66972 1.94336 4.62255L1.9886 4.57545C2.03384 4.48111 2.07908 4.43387 2.12432 4.3867L2.66723 3.72637C3.02916 3.30184 3.57207 3.06604 4.11497 3.06604C4.61263 3.06604 5.06506 3.25465 5.42699 3.58484L6.37707 4.48113C6.73901 4.85849 6.96522 5.33019 7.01046 5.89623C7.0557 6.4151 6.87473 6.9339 6.5128 7.35843L5.96989 8.01888C5.74368 8.16039 5.47224 8.34902 5.1103 8.44336Z" fill="white"/>
</svg>
