<svg width="22" height="20" viewBox="0 0 22 20" fill="none" xmlns="http://www.w3.org/2000/svg">
<path d="M20.2018 5.55871H18.3498V2.12031C18.3498 0.974183 17.396 0 16.2737 0H2.07613C0.953809 0 0 0.974183 0 2.12031V11.5759C0 12.6647 0.785461 13.5244 1.79555 13.6963V16.0458C1.79555 16.447 2.02002 16.7335 2.35671 16.9054C2.46894 16.9627 2.58123 16.9627 2.69346 16.9627C2.91793 16.9627 3.14245 16.8481 3.3108 16.6762L6.28484 13.639H6.34101V15.3582C6.34101 16.3897 7.18264 17.2493 8.19273 17.2493H16.5542L19.0233 19.7708C19.1917 19.9427 19.4162 20 19.6406 20C19.7529 20 19.8649 20 19.9771 19.9427C20.3138 19.8281 20.4824 19.4842 20.4824 19.1404V17.192C21.3241 17.02 21.9973 16.2751 21.9973 15.3582V7.44985C22.0535 6.41833 21.2119 5.55871 20.2018 5.55871ZM5.83602 12.4929L2.97404 15.4155V12.4929H2.07613C1.57109 12.4929 1.17822 12.0917 1.17822 11.5759V2.12031C1.17822 1.60456 1.57109 1.20342 2.07613 1.20342H16.2737C16.7787 1.20342 17.1713 1.60456 17.1713 2.12031V5.78795V6.99137V11.5759C17.1713 12.0917 16.7787 12.4929 16.2737 12.4929H7.74391H6.56542H5.83602ZM20.875 15.4155C20.875 15.8166 20.5385 16.1031 20.2018 16.1031H19.3601V18.4527L17.0592 16.1031H8.19273C7.79992 16.1031 7.5195 15.7593 7.5195 15.4155V13.6963H7.80008H16.2737C17.396 13.6963 18.3498 12.722 18.3498 11.5759V6.99137V6.7622H20.2018C20.5946 6.7622 20.875 7.10601 20.875 7.44985V15.4155Z" fill="white"/>
<path d="M3.98401 5.10029H14.7022C15.0389 5.10029 15.2634 4.81376 15.2634 4.52723C15.2634 4.18339 14.9828 3.95416 14.7022 3.95416H3.98401C3.64732 3.95416 3.42285 4.2407 3.42285 4.52723C3.42285 4.87107 3.64732 5.10029 3.98401 5.10029Z" fill="white"/>
<path d="M15.2634 8.30945C15.2634 7.96562 14.9828 7.73639 14.7022 7.73639H3.98401C3.64732 7.73639 3.42285 8.02292 3.42285 8.30945C3.42285 8.65329 3.70343 8.88252 3.98401 8.88252H14.7022C14.9828 8.88252 15.2634 8.65329 15.2634 8.30945Z" fill="white"/>
</svg>
