<svg width="24" height="24" viewBox="0 0 24 24" fill="none" xmlns="http://www.w3.org/2000/svg">
<path d="M7.05518 15.3558C5.89567 15.3558 4.95093 14.4111 4.95093 13.2516C4.95093 12.0921 5.89567 11.1473 7.05518 11.1473C8.21469 11.1473 9.15948 12.0921 9.15948 13.2516C9.15948 14.454 8.21469 15.3558 7.05518 15.3558ZM7.05518 12.0491C6.36806 12.0491 5.80982 12.6074 5.80982 13.2945C5.80982 13.9816 6.36806 14.5399 7.05518 14.5399C7.7423 14.5399 8.30059 13.9816 8.30059 13.2945C8.30059 12.6074 7.7423 12.0491 7.05518 12.0491Z" fill="white"/>
<path d="M12.2087 17.3314C11.5216 17.3314 10.9634 17.8896 10.9634 18.5767C10.9634 19.2638 11.5216 19.8221 12.2087 19.8221C12.8959 19.8221 13.4541 19.2638 13.4541 18.5767C13.4541 17.8896 12.8959 17.3314 12.2087 17.3314Z" fill="white"/>
<path d="M7.05517 17.3314C6.36805 17.3314 5.80981 17.8896 5.80981 18.5767C5.80981 19.2638 6.36805 19.8221 7.05517 19.8221C7.74229 19.8221 8.30058 19.2638 8.30058 18.5767C8.30058 17.8896 7.74229 17.3314 7.05517 17.3314Z" fill="white"/>
<path d="M12.2087 11.9633C11.5216 11.9633 10.9634 12.5215 10.9634 13.2086C10.9634 13.8957 11.5216 14.454 12.2087 14.454C12.8959 14.454 13.4541 13.8957 13.4541 13.2086C13.4541 12.5215 12.8959 11.9633 12.2087 11.9633Z" fill="white"/>
<path d="M17.4908 11.9633C16.8037 11.9633 16.2454 12.5215 16.2454 13.2086C16.2454 13.8957 16.8037 14.454 17.4908 14.454C18.1779 14.454 18.7362 13.8957 18.7362 13.2086C18.7362 12.5215 18.1779 11.9633 17.4908 11.9633Z" fill="white"/>
<path d="M17.4908 20.6381C16.3313 20.6381 15.3865 19.6933 15.3865 18.5338C15.3865 17.3743 16.3313 16.4295 17.4908 16.4295C18.6503 16.4295 19.5951 17.3743 19.5951 18.5338C19.5951 19.6933 18.6503 20.6381 17.4908 20.6381ZM17.4908 17.3314C16.8037 17.3314 16.2454 17.8896 16.2454 18.5767C16.2454 19.2638 16.8037 19.8221 17.4908 19.8221C18.1779 19.8221 18.7362 19.2638 18.7362 18.5767C18.7362 17.8896 18.1779 17.3314 17.4908 17.3314Z" fill="white"/>
<path d="M20.5399 4.06137H18.135V2.64417C18.135 2.30061 17.8344 2 17.4908 2C17.1472 2 16.8466 2.30061 16.8466 2.64417V4.06137H7.14112V2.64417C7.14112 2.30061 6.84051 2 6.49695 2C6.15339 2 5.85278 2.30061 5.85278 2.64417V4.06137H3.44788C2.1166 4.06137 1 5.13497 1 6.5092V20.5522C1 21.8835 2.07365 23 3.44788 23H20.4969C21.8282 23 22.9448 21.8835 22.9448 20.5522V6.5092C22.9877 5.13497 21.8712 4.06137 20.5399 4.06137ZM3.49082 5.34971H5.89571V6.33741C5.89571 6.68097 6.19633 6.98158 6.53989 6.98158C6.88344 6.98158 7.18406 6.68097 7.18406 6.33741V5.34971H16.8896V6.33741C16.8896 6.68097 17.1902 6.98158 17.5337 6.98158C17.8773 6.98158 18.1779 6.68097 18.1779 6.33741V5.34971H20.5828C21.227 5.34971 21.7423 5.86503 21.7423 6.5092V8.9141H2.37426V6.5092C2.33132 5.86503 2.84665 5.34971 3.49082 5.34971ZM20.5399 21.7117H3.49082C2.84665 21.7117 2.33128 21.1963 2.33128 20.5522V10.2024H21.6994V20.5522C21.6994 21.1963 21.184 21.7117 20.5399 21.7117Z" fill="white"/>
</svg>
