<svg width="26" height="23" viewBox="0 0 26 23" fill="none" xmlns="http://www.w3.org/2000/svg">
<path d="M5 13L11.5858 6.41421C12.3668 5.63317 13.6332 5.63317 14.4142 6.41421L20.5 12.5M5 13L3.85355 14.1464C3.65829 14.3417 3.34171 14.3417 3.14645 14.1464L1.70711 12.7071C1.31658 12.3166 1.31658 11.6834 1.70711 11.2929L11.5858 1.41421C12.3668 0.633165 13.6332 0.633165 14.4142 1.41421L24.2929 11.2929C24.6834 11.6834 24.6834 12.3166 24.2929 12.7071L22.8536 14.1464C22.6583 14.3417 22.3417 14.3417 22.1464 14.1464L20.5 12.5M5 13V20C5 21.1046 5.89543 22 7 22H18.5C19.6046 22 20.5 21.1046 20.5 20V12.5" stroke="#8B8B8B" stroke-width="1.3"/>
<circle cx="13" cy="18" r="1.35" stroke="#8B8B8B" stroke-width="1.3"/>
</svg>
