<svg width="27" height="22" viewBox="0 0 27 22" fill="none" xmlns="http://www.w3.org/2000/svg">
<path d="M24.1996 0H7.40567C6.34206 0 5.50228 0.8397 5.50228 1.90331V7.50128H1.97568C1.30392 7.50128 0.800049 8.00509 0.800049 8.67684V19.6489C0.800049 20.9364 1.86363 22 3.15117 22H3.71096H4.21486H5.44639H7.23771H22.0723C24.2555 22 26.1028 20.2087 26.1028 17.9695V1.79136C26.1028 0.839701 25.2632 0 24.1996 0ZM3.767 21.0483H3.2072C2.47947 21.0483 1.86361 20.4326 1.86361 19.7048V8.73283C1.86361 8.62087 1.91961 8.56489 2.03157 8.56489H5.55832V19.8168C5.55832 20.4886 4.99855 21.0483 4.32679 21.0483H3.767ZM25.0952 18.0254C25.0952 19.6489 23.7518 20.9924 22.1283 20.9924H7.29374H6.50994V19.7608V7.50128V1.90331C6.50994 1.3995 6.90186 1.00764 7.40567 1.00764H24.1996C24.7034 1.00764 25.0952 1.3995 25.0952 1.90331V18.0254Z" fill="#8B8B8B"/>
<path d="M10.1485 10.5241H13.9552C14.6829 10.5241 15.2986 9.90832 15.2986 9.18058V5.37396C15.2986 4.64623 14.6829 4.03046 13.9552 4.03046H10.1485C9.42078 4.03046 8.80505 4.64623 8.80505 5.37396V9.18058C8.80505 9.90832 9.42078 10.5241 10.1485 10.5241ZM9.86861 5.37396C9.86861 5.20603 9.98057 5.09407 10.1485 5.09407H13.9552C14.1231 5.09407 14.2351 5.20603 14.2351 5.37396V9.18058C14.2351 9.34852 14.1231 9.46048 13.9552 9.46048H10.1485C9.98057 9.46048 9.86861 9.34852 9.86861 9.18058V5.37396Z" fill="#8B8B8B"/>
<path d="M22.576 5.03815H17.5938C17.314 5.03815 17.0901 5.26207 17.0901 5.54197C17.0901 5.82187 17.314 6.04578 17.5938 6.04578H22.576C22.8559 6.04578 23.0799 5.82187 23.0799 5.54197C23.0799 5.26207 22.8559 5.03815 22.576 5.03815Z" fill="#8B8B8B"/>
<path d="M22.576 8.00513H17.5938C17.314 8.00513 17.0901 8.22905 17.0901 8.50895C17.0901 8.78885 17.314 9.01276 17.5938 9.01276H22.576C22.8559 9.01276 23.0799 8.78885 23.0799 8.50895C23.0799 8.22905 22.8559 8.00513 22.576 8.00513Z" fill="#8B8B8B"/>
<path d="M22.3521 12.2595H9.42072C9.14083 12.2595 8.91696 12.4834 8.91696 12.7633C8.91696 13.0432 9.14083 13.2672 9.42072 13.2672H22.3521C22.632 13.2672 22.8558 13.0432 22.8558 12.7633C22.8558 12.4834 22.632 12.2595 22.3521 12.2595Z" fill="#8B8B8B"/>
<path d="M22.3521 15.0585H9.42072C9.14083 15.0585 8.91696 15.2824 8.91696 15.5623C8.91696 15.8422 9.14083 16.0662 9.42072 16.0662H22.3521C22.632 16.0662 22.8558 15.8422 22.8558 15.5623C22.8558 15.2824 22.632 15.0585 22.3521 15.0585Z" fill="#8B8B8B"/>
<path d="M22.3521 17.8015H9.42072C9.14083 17.8015 8.91696 18.0254 8.91696 18.3053C8.91696 18.5852 9.14083 18.8091 9.42072 18.8091H22.3521C22.632 18.8091 22.8558 18.5852 22.8558 18.3053C22.8558 18.0254 22.632 17.8015 22.3521 17.8015Z" fill="#8B8B8B"/>
</svg>
