<svg width="23" height="32" viewBox="0 0 23 32" fill="none" xmlns="http://www.w3.org/2000/svg">
<path d="M22.9005 21.4692C22.5903 20.4766 21.5356 20.2284 20.7911 20.9108C20.605 21.0969 20.3569 21.283 20.1708 21.5312C20.1087 21.4691 20.1088 21.4691 20.0467 21.4071C19.2403 20.4766 18.4958 19.484 17.6893 18.5534C17.069 17.871 16.3246 17.6229 15.4561 17.871C14.8978 18.0572 14.3395 18.1812 13.7812 18.3673C13.6571 18.4294 13.533 18.3673 13.4089 18.2433C12.9746 17.6849 12.4784 17.1886 12.0441 16.6303C11.9821 16.5062 11.858 16.4442 11.7339 16.3201C11.796 16.3201 11.858 16.3201 11.858 16.3201C13.0367 16.1961 13.8432 15.3276 14.0913 14.335C14.1534 14.0868 14.1533 13.8387 14.1533 13.5905C14.2153 12.722 14.2774 11.8535 14.3394 10.985C14.4015 10.2406 13.7811 9.55819 13.0987 9.49615C12.2922 9.43412 11.6098 9.93041 11.4857 10.7369C11.4237 11.4193 11.3617 12.0396 11.3617 12.722C11.3617 12.9081 11.3617 13.0942 11.2997 13.2804C11.1756 13.2804 11.0515 13.2183 10.9274 13.2183C10.9895 12.9081 10.9894 12.5359 11.0515 12.2257C11.2376 10.8609 11.4238 9.49616 11.6099 8.13136C11.796 6.58045 12.0441 5.09158 12.2303 3.54067C12.4164 2.17587 12.6024 0.811076 12.7885 -0.491685C12.8506 -0.73983 12.6644 -0.987977 12.4162 -0.987977C12.1681 -1.05001 11.9201 -0.8639 11.9201 -0.615755C11.858 -0.429647 11.858 -0.181502 11.858 0.00460696C11.7339 1.05922 11.5478 2.0518 11.4238 3.10642C11.2997 4.22307 11.1136 5.27769 10.9895 6.39434C10.8655 7.38692 10.6792 8.44153 10.5552 9.43411C10.4311 10.4267 10.307 11.3572 10.1209 12.3498C10.0589 12.598 10.0589 12.7841 9.99689 13.0322C9.93485 13.0322 9.87285 13.0322 9.87285 13.0322C9.56267 12.9702 9.19039 12.9081 8.88021 12.8461C8.75614 12.8461 8.63206 12.7841 8.57003 12.66C8.19781 12.2257 7.70149 11.9776 7.14316 11.9156C6.95705 11.9156 6.77095 11.9156 6.5228 11.9156C6.58484 11.1711 6.27469 10.6128 5.7784 10.1165C5.59229 9.93041 5.40624 9.68226 5.22013 9.43411C5.46828 9.0619 5.46821 8.87579 5.15803 8.56561C4.10342 7.6971 2.49054 7.82118 1.49796 8.87579C0.567413 9.93041 0.567413 11.4813 1.49796 12.4119C1.7461 12.722 1.99428 12.722 2.30446 12.4119C2.30446 12.4119 2.3664 12.4119 2.3664 12.3498C2.55251 12.598 2.73862 12.7841 2.98677 13.0322C3.29695 13.3424 3.6071 13.5905 4.04135 13.6526C4.16542 13.6526 4.22746 13.7146 4.35153 13.7146C4.35153 13.7767 4.35162 13.8387 4.28959 13.9007C3.97941 14.9553 3.60713 16.01 3.29695 17.1266C3.23491 17.4368 3.17297 17.747 3.235 18.0572C3.42111 19.1738 4.35156 19.7942 5.46821 19.6701C5.65432 19.6701 5.84043 19.6081 6.08858 19.6081C6.08858 19.6701 6.08867 19.7321 6.02663 19.7321C5.65441 20.7868 5.28208 21.9034 4.97189 22.958C4.78579 23.5784 4.53764 24.2608 4.35153 24.8811C4.2895 25.0673 4.28962 25.2534 4.47573 25.3774C4.5998 25.5015 4.78588 25.5635 4.90995 25.5015C5.09606 25.4395 5.15809 25.2534 5.22013 25.1293C5.77846 23.3923 6.39885 21.6553 6.95718 19.8562C6.95718 19.7942 7.01912 19.7321 7.01912 19.6701C7.08116 19.7321 7.14316 19.7942 7.14316 19.7942C7.76353 20.5386 8.38389 21.221 9.00425 21.9654C9.81072 22.896 10.6173 23.8265 11.4238 24.7571C11.4858 24.8191 11.4857 24.8811 11.4857 25.0052C11.3616 25.2534 11.2996 25.4395 11.1755 25.6876C10.4931 27.1144 9.81081 28.5413 9.25249 29.9681C9.12841 30.2783 9.19039 30.4644 9.50057 30.5885C10.4931 31.0227 11.4858 31.3949 12.4783 31.7672C12.6644 31.8292 12.8505 31.8292 13.0366 31.8292C13.4088 31.8292 13.657 31.6431 13.9671 31.395C14.6495 30.7746 14.4635 29.6579 13.595 29.3478C13.3469 29.2237 13.0987 29.1616 12.7885 29.0376C12.7265 29.0376 12.7265 28.9755 12.6645 28.9755C12.6645 28.9135 12.7264 28.9135 12.7264 28.8515C13.2847 27.7348 13.7811 26.6802 14.3394 25.5635C14.7116 24.7571 14.5876 23.8886 14.0292 23.2062C13.7811 22.958 13.5949 22.7099 13.3468 22.4617C13.1607 22.2756 12.9747 22.0895 12.8506 21.8414C12.6645 21.5932 12.7264 21.3451 13.0366 21.283C13.1607 21.221 13.3469 21.221 13.471 21.159C14.2775 20.9729 15.0218 20.7247 15.8282 20.5386C15.8903 20.5386 15.9523 20.5386 16.0144 20.6006C16.3866 21.0349 16.8209 21.4691 17.1932 21.9654C17.6274 22.4617 18.0616 23.02 18.4958 23.5163C18.868 23.9506 19.3023 24.3848 19.7365 24.8191C19.9847 25.0672 20.1708 25.0672 20.481 24.8191C21.1634 24.1367 21.9079 23.4543 22.5903 22.8339C22.9625 22.5858 23.0866 22.0895 22.9005 21.4692ZM10.6793 14.9553C10.7414 14.7072 10.7414 14.397 10.8034 14.1489C11.1136 14.2109 11.3617 14.2109 11.6099 14.2729C11.858 14.335 12.044 14.1489 12.1061 13.9007C12.1681 13.2804 12.2303 12.598 12.2303 11.9776C12.2303 11.6674 12.2922 11.3572 12.2922 10.985C12.3542 10.6128 12.6024 10.3647 12.9747 10.3647C13.2848 10.3647 13.5329 10.6748 13.5329 11.0471C13.4709 12.0396 13.4088 13.0322 13.3468 14.0248C13.2227 15.0794 12.2301 15.7618 11.1755 15.5137C11.0514 15.5137 10.9274 15.4516 10.8653 15.3896C10.6792 15.2655 10.6173 15.1415 10.6793 14.9553ZM9.56267 13.9007C9.68674 13.9007 9.74878 13.9628 9.87285 13.9628C9.87285 14.0868 9.87279 14.1489 9.81075 14.2729C9.74872 14.1489 9.6247 14.0248 9.56267 13.9007ZM7.20526 12.8461C7.4534 12.9081 7.70161 13.0322 7.88772 13.2183C8.44604 13.9007 9.00425 14.5211 9.62461 15.2035C9.68665 15.2655 9.74874 15.3896 9.68671 15.4516C9.62467 15.7618 9.6247 16.072 9.56267 16.3822C9.56267 16.4442 9.50066 16.5063 9.43862 16.5063C8.50808 16.5683 7.51544 16.6924 6.5849 16.7544C6.52286 16.7544 6.52289 16.7544 6.46086 16.7544C6.58493 16.4442 6.64696 16.134 6.77104 15.8238C6.89511 15.4516 7.01909 15.0794 7.14316 14.7692C7.39131 14.0868 7.08122 13.4044 6.46086 13.0322C6.46086 13.0322 6.39876 13.0322 6.39876 12.9702C6.52283 12.8461 6.89508 12.7841 7.20526 12.8461ZM1.93218 11.6674C1.55996 11.1091 1.68403 10.1785 2.24236 9.62022C2.80069 9.0619 3.73126 8.87578 4.28959 9.248C3.48312 10.0545 2.67661 10.861 1.93218 11.6674ZM3.60713 12.7841C3.35898 12.5359 3.11087 12.2257 2.86272 11.9776C3.42105 11.3572 4.04144 10.7989 4.59977 10.1785L4.66171 10.2406C4.90986 10.5508 5.15812 10.7989 5.40627 11.1091C5.71645 11.5433 5.77846 11.9776 5.53031 12.4119C5.28217 12.8461 4.90992 13.0943 4.41363 13.0943C4.10345 13.0943 3.85527 12.9702 3.60713 12.7841ZM5.65435 18.9877C5.40621 18.9877 5.15809 19.0497 4.90995 18.9877C4.35162 18.9257 4.04144 18.4294 3.97941 17.871C3.97941 17.747 4.04135 17.6229 4.04135 17.4988C4.35153 16.3822 4.72387 15.2655 5.09609 14.1489C5.22016 13.8387 5.46821 13.6526 5.7784 13.6526C6.08858 13.6526 6.27478 13.9007 6.33681 14.2109C6.33681 14.2729 6.33681 14.397 6.33681 14.4591C6.08867 15.3276 5.77846 16.134 5.53031 17.0025C5.40624 17.3748 5.59238 17.6849 6.02663 17.6229C6.8331 17.5609 7.63957 17.4988 8.50808 17.3748C8.75623 17.3748 9.06629 17.3127 9.31443 17.3127C9.68665 17.2507 9.99695 17.4368 10.059 17.747C10.121 18.1192 9.93488 18.4294 9.56267 18.4914C9.12841 18.5534 8.63215 18.6155 8.1979 18.6155C7.39143 18.8016 6.52286 18.8636 5.65435 18.9877ZM7.88772 19.546C8.07383 19.546 8.25988 19.484 8.44598 19.484C8.8182 19.4219 9.19036 19.4219 9.62461 19.3599C10.245 19.2979 10.6173 18.9257 10.8034 18.3673C10.9895 17.809 10.8654 17.3127 10.4311 16.8785C10.3691 16.8164 10.3071 16.7544 10.3692 16.6303C10.4312 16.5062 10.4311 16.3822 10.4311 16.1961C11.1135 17.0025 11.7959 17.747 12.4162 18.4914C11.3616 19.422 10.307 20.2905 9.31443 21.221C8.88018 20.7247 8.38401 20.1664 7.88772 19.546ZM13.1608 30.2783C13.533 30.4644 13.595 30.7746 13.2848 31.0227C13.0987 31.2088 12.8505 31.2709 12.6024 31.1468C11.8579 30.8366 11.1136 30.5264 10.3692 30.2163C10.3071 30.2163 10.2451 30.1542 10.183 30.1542C10.3071 29.844 10.4311 29.5339 10.5552 29.2237C10.6792 29.2857 10.7413 29.2857 10.8653 29.3478C11.6098 29.6579 12.3543 29.9681 13.1608 30.2783ZM18.6199 22.6478C17.8754 21.7793 17.1311 20.9729 16.3867 20.1043C16.2626 19.9182 16.0764 19.8562 15.8282 19.9182C14.8977 20.1664 14.0292 20.4145 13.0987 20.6627C12.9746 20.6627 12.9126 20.7247 12.7885 20.7247C11.92 20.9108 11.5478 21.9654 12.1682 22.6478C12.5404 23.0821 12.9746 23.5784 13.3468 24.0126C13.719 24.4469 13.7811 24.9432 13.5329 25.4395C12.9746 26.5561 12.4784 27.6107 11.9201 28.7274C11.9201 28.7894 11.858 28.8515 11.858 28.9135C11.5478 28.7894 11.2376 28.6653 10.9274 28.5413C10.9274 28.4792 10.9895 28.4172 10.9895 28.4172C11.4858 27.4246 11.92 26.37 12.4162 25.3774C12.5403 25.1293 12.4784 24.9432 12.3543 24.7571C11.6099 23.8886 10.8654 23.0821 10.1209 22.2136C10.0589 22.1515 9.99689 22.0895 9.99689 22.0275C10.3691 21.7173 10.7413 21.4071 11.0515 21.0969C11.7339 20.5386 12.4162 19.9182 13.0366 19.3599C13.0986 19.2979 13.1608 19.2979 13.2848 19.2979C13.533 19.3599 13.781 19.3599 13.9671 19.2979C14.5255 19.1118 15.0838 18.9257 15.7042 18.8016C16.2625 18.6155 16.6967 18.8016 17.069 19.2358C17.8754 20.1664 18.682 21.159 19.4885 22.0895C19.4885 22.0895 19.5504 22.1515 19.5504 22.2136C19.3023 22.4617 19.0541 22.6478 18.806 22.896C18.6819 22.7099 18.6819 22.6478 18.6199 22.6478ZM21.9699 22.3997C21.3496 22.958 20.7292 23.5784 20.1088 24.1367L20.0467 24.1987C19.7986 23.9506 19.6126 23.7024 19.3644 23.5163C19.5505 23.3302 19.7366 23.1441 19.9227 22.958C20.419 22.4617 20.9153 22.0275 21.3496 21.5932C21.6597 21.3451 21.9699 21.4071 22.094 21.7793C22.218 21.9654 22.156 22.2136 21.9699 22.3997Z" fill="#8B8B8B"/>
<path d="M4.35154 26.308C4.1034 26.2459 3.85532 26.37 3.79328 26.6182C3.73124 26.7422 3.73127 26.8663 3.66924 26.9904C3.42109 27.6728 3.17289 28.4172 2.98678 29.0996C2.86271 29.4718 3.04887 29.72 3.35906 29.72C3.54516 29.72 3.73124 29.5959 3.79328 29.4098C4.10346 28.5413 4.35154 27.6728 4.66173 26.8663C4.72376 26.6182 4.59969 26.37 4.35154 26.308Z" fill="#8B8B8B"/>
</svg>
