<svg width="40" height="40" viewBox="0 0 40 40" fill="none" xmlns="http://www.w3.org/2000/svg">
<path d="M33.1672 22.2983C31.3611 22.2983 29.8013 20.8207 29.8013 18.9325C29.8013 17.0442 31.279 15.5664 33.1672 15.5664C35.0555 15.5664 36.5332 17.0442 36.5332 18.9325C36.5332 20.8207 34.9734 22.2983 33.1672 22.2983ZM33.1672 17.2905C32.2642 17.2905 31.4432 18.0293 31.4432 19.0144C31.4432 19.9175 32.1821 20.7385 33.1672 20.7385C34.1524 20.7385 34.8913 19.9996 34.8913 19.0144C34.8913 18.0293 34.0703 17.2905 33.1672 17.2905Z" fill="white"/>
<path d="M38.4213 5.63428C37.5182 4.9775 36.2867 4.81331 35.2195 5.22379L27.3382 8.015C26.9277 8.17919 26.5172 8.42552 26.1889 8.67181C25.8605 8.42552 25.45 8.17919 25.0395 8.015L17.1582 5.22379C16.091 4.81331 14.8595 4.9775 13.9564 5.63428C13.8743 5.71637 13.7922 5.79831 13.7101 5.88041C13.628 5.79831 13.546 5.71637 13.4639 5.63428C12.5608 4.9775 11.3293 4.81331 10.2621 5.22379L2.38081 8.015C0.985168 8.50758 0 9.82121 0 11.381V33.1367C0 34.286 0.574679 35.3533 1.47774 36.0101C2.05242 36.4205 2.79129 36.6667 3.53016 36.6667C3.94064 36.6667 4.35112 36.5847 4.67951 36.4205L12.5608 33.6291C12.9713 33.4649 13.3818 33.2186 13.7101 32.9723C14.0385 33.2186 14.449 33.4649 14.8595 33.6291L22.7408 36.4205C23.1513 36.5847 23.5618 36.6667 23.8901 36.6667C24.629 36.6667 25.3679 36.4205 25.9426 36.0101C26.0247 35.928 26.1068 35.8458 26.1889 35.7637C26.271 35.8458 26.353 35.928 26.4351 36.0101C27.0098 36.4205 27.7487 36.6667 28.4876 36.6667C28.898 36.6667 29.3085 36.5847 29.6369 36.4205L37.5182 33.6291C38.9138 33.1365 39.899 31.8231 39.899 30.2633V8.42548C39.899 7.35823 39.4064 6.29105 38.4213 5.63428ZM37.4361 30.3453C37.4361 30.8378 37.1077 31.2483 36.6972 31.3304L28.8159 34.2038C28.4876 34.2859 28.1592 34.2859 27.8308 34.0396C27.5024 33.7933 27.3382 33.5472 27.3382 33.1367V28.0465C27.0098 28.1286 26.5993 28.2107 26.1889 28.2928C25.9426 28.2928 25.6963 28.375 25.45 28.375C25.2037 28.375 25.0395 28.375 24.8753 28.375V33.3008C24.8753 33.6292 24.7111 33.9575 24.3827 34.2038C24.0543 34.4501 23.7259 34.4502 23.3976 34.3681L15.5163 31.5767C15.1058 31.4125 14.7774 31.0021 14.7774 30.5916V18.6876C13.3818 17.6203 12.5608 17.7025 12.3145 17.7025V30.5916C12.3145 31.0842 11.9861 31.4946 11.5756 31.5767L3.69435 34.4501C3.36596 34.5322 3.03758 34.5322 2.70919 34.2859C2.38081 34.0397 2.21661 33.7933 2.21661 33.3828V11.381C2.21661 10.8885 2.545 10.4778 2.95549 10.3957L10.8368 7.60452C10.9189 7.52242 11.0831 7.52234 11.1652 7.52234C11.4114 7.52234 11.5756 7.6046 11.8219 7.68669C12.1503 7.93298 12.3145 8.17915 12.3145 8.58964V15.4037C13.4639 15.4858 14.6132 15.9784 14.7774 16.0605V8.58964C14.7774 8.26125 14.9416 7.93298 15.27 7.68669C15.4342 7.5225 15.6805 7.52234 15.9268 7.52234C16.0089 7.52234 16.1731 7.52242 16.2551 7.60452L24.1364 10.3957C24.5469 10.5599 24.8753 10.9706 24.8753 11.381V26.2404H24.9574C25.0395 26.2404 25.0395 26.2404 25.1216 26.2404C25.2037 26.2404 25.3679 26.2404 25.5321 26.2404C26.0247 26.2404 26.5172 26.1583 27.174 25.9941C27.2561 25.9941 27.3382 25.9942 27.4203 25.9121V11.381C27.4203 10.8885 27.7487 10.4778 28.1592 10.3957L36.0405 7.60452C36.1226 7.52242 36.2867 7.52234 36.3688 7.52234C36.6151 7.52234 36.7793 7.6046 37.0256 7.68669C37.354 7.93298 37.5182 8.17915 37.5182 8.58964L37.4361 30.3453Z" fill="white"/>
<path d="M25.5319 28.045C25.2856 28.045 25.1215 28.045 24.9573 28.045C24.5468 27.9629 24.3005 27.6345 24.3005 27.224C24.3826 26.8956 24.6289 26.5674 25.0393 26.5674H25.1215C25.2856 26.5674 25.3677 26.5674 25.5319 26.5674C26.0245 26.5674 26.5992 26.4853 27.256 26.3211C27.3381 26.3211 27.4202 26.3211 27.5023 26.3211C27.8306 26.3211 28.0769 26.5672 28.159 26.8135C28.2411 27.224 28.0769 27.5525 27.6664 27.7167C27.256 27.8809 26.7634 27.9629 26.2708 28.045C26.0245 27.9629 25.7782 28.045 25.5319 28.045ZM22.7406 27.0599C22.5764 27.0599 22.4123 26.9778 22.3302 26.8957C21.6734 26.4852 21.0987 25.8285 20.4419 25.0896C20.1957 24.7612 20.1956 24.3508 20.524 24.1045C20.6882 24.0224 20.8524 23.9401 21.0166 23.9401C21.2629 23.9401 21.4271 24.0223 21.5913 24.1865C22.166 24.8432 22.7406 25.418 23.2332 25.7464C23.5616 25.9927 23.6437 26.4032 23.3974 26.7315C23.3153 26.8957 23.069 26.9778 22.9048 27.0599H22.7406ZM29.6368 26.5674C29.3905 26.5674 29.2263 26.4852 29.0621 26.2389C28.8158 25.9105 28.8979 25.5001 29.2263 25.2538C29.801 24.8433 30.2935 24.2686 30.704 23.6118C30.8682 23.3655 31.0324 23.2835 31.2787 23.2835C31.4429 23.2835 31.525 23.2834 31.6892 23.3655C31.8534 23.4476 31.9355 23.6119 32.0176 23.8582C32.0997 24.1045 32.0176 24.2686 31.9355 24.4328C31.4429 25.2538 30.7861 25.9105 30.1293 26.403C30.0472 26.4851 29.8831 26.5674 29.801 26.5674H29.6368ZM5.17195 26.1569C4.76146 26.0748 4.51518 25.7464 4.59727 25.3359C4.59727 25.2538 4.76147 24.1865 5.25405 22.7909C5.33615 22.4625 5.58243 22.2982 5.91081 22.2982C5.99291 22.2982 6.07501 22.2982 6.15711 22.2982C6.3213 22.3803 6.48549 22.4625 6.56759 22.6267C6.64969 22.7909 6.64969 23.0372 6.56759 23.2013C6.15711 24.5149 5.99291 25.5001 5.99291 25.5001C5.91082 25.8285 5.66453 26.0747 5.33614 26.0747H5.25405L5.17195 26.1569ZM19.4568 23.4477C19.2105 23.4477 18.9642 23.3655 18.8821 23.1192C18.6358 22.7908 18.3895 22.3805 18.1432 22.0521L17.4865 21.0668C17.2402 20.7384 17.3223 20.3279 17.6506 20.0816C17.7327 19.9995 17.8969 19.9175 18.0611 19.9175C18.3074 19.9175 18.5537 19.9995 18.6358 20.2458C18.8821 20.5742 19.3747 21.3131 19.3747 21.3131C19.621 21.6415 19.7852 21.9699 20.0315 22.2162C20.1136 22.3804 20.1956 22.5445 20.1135 22.7087C20.0314 22.8729 19.9494 23.0372 19.7852 23.2013C19.7031 23.2834 19.5389 23.2835 19.4568 23.4477ZM6.89598 21.4772C6.81389 21.4772 6.64969 21.4774 6.56759 21.3953C6.2392 21.2311 6.07501 20.7385 6.23921 20.4101C6.64969 19.5892 7.14227 18.8501 7.71695 18.1934C7.88114 18.0292 8.04533 17.9472 8.29162 17.9472C8.45582 17.9472 8.62 18.0293 8.7842 18.1114C8.94839 18.1935 9.03049 18.4397 9.03049 18.6039C9.03049 18.768 8.9484 19.0144 8.8663 19.0965C8.37372 19.6712 7.96324 20.2459 7.63485 20.9848C7.55275 21.2311 7.30646 21.3132 7.06017 21.3953L6.89598 21.4772ZM16.5834 19.4248C16.3371 19.4248 16.1729 19.3429 16.0087 19.1787C15.434 18.5219 14.8594 18.0293 14.3668 17.7009C14.0384 17.4546 13.9563 17.0442 14.1205 16.7158C14.2847 16.4695 14.4489 16.3873 14.6952 16.3873C14.8594 16.3873 14.9415 16.4695 15.1057 16.4695C15.7624 16.8799 16.4192 17.4546 17.076 18.2755C17.1581 18.4397 17.2402 18.604 17.2402 18.7682C17.2402 18.9324 17.1581 19.0965 16.9939 19.2607C16.9118 19.3428 16.7476 19.4248 16.5834 19.4248ZM10.0977 17.8651C9.85146 17.8651 9.60517 17.7009 9.44097 17.5368C9.27678 17.2084 9.35888 16.7977 9.68727 16.5514C10.5082 16.0589 11.4113 15.8126 12.3144 15.7305C12.7248 15.7305 13.0532 16.0589 13.0532 16.3873C13.0532 16.7978 12.8069 17.1263 12.3965 17.1263C11.7397 17.1263 11.0008 17.3724 10.344 17.7829C10.2619 17.865 10.1798 17.8651 10.0977 17.8651Z" fill="white"/>
</svg>
