<svg width="28" height="23" viewBox="0 0 28 23" fill="none" xmlns="http://www.w3.org/2000/svg">
<path d="M26.5033 11.6628H26.0069V2.10923C26.0069 0.992576 25.0765 0 23.8978 0H4.04617C2.92952 0 1.93684 0.93054 1.93684 2.10923V11.6628H1.44068C0.758277 11.6628 0.199951 12.2211 0.199951 12.9035V17.184C0.199951 17.8664 0.758277 18.4248 1.44068 18.4248H1.93684V21.4025C1.93684 22.1469 2.55727 22.7053 3.23967 22.7053H7.02394C7.76837 22.7053 8.32661 22.0849 8.32661 21.4025V18.4248H19.4931V21.4025C19.4931 22.1469 20.1136 22.7053 20.7959 22.7053H24.5801C25.3245 22.7053 25.8829 22.0849 25.8829 21.4025V18.4248H26.3792C27.0616 18.4248 27.6199 17.8664 27.6199 17.184V12.9035C27.744 12.2211 27.1857 11.6628 26.5033 11.6628ZM3.17757 2.10923C3.17757 1.61294 3.61182 1.17868 4.10811 1.17868H23.9597C24.456 1.17868 24.8903 1.61294 24.8903 2.10923V11.6628H23.2774V10.3601C23.2774 8.62304 21.8506 7.25824 20.1756 7.25824H16.6396C15.5229 7.25824 14.5303 7.81656 13.972 8.7471C13.4136 7.8786 12.421 7.25824 11.3044 7.25824H7.76834C6.03133 7.25824 4.66653 8.68507 4.66653 10.3601V11.6628H3.05353V2.10923H3.17757ZM22.2228 10.298V11.6008H14.7164V10.298C14.7164 9.18136 15.5848 8.31285 16.7015 8.31285H20.2375C21.2922 8.31285 22.2228 9.24339 22.2228 10.298ZM13.4135 10.298V11.6008H5.90725V10.298C5.90725 9.18136 6.77573 8.31285 7.89238 8.31285H11.4284C12.5451 8.31285 13.4135 9.24339 13.4135 10.298ZM7.33412 21.3405C7.33412 21.4645 7.27205 21.5266 7.14798 21.5266H3.36371C3.23964 21.5266 3.17757 21.4645 3.17757 21.3405V18.3627H7.33412V21.3405ZM24.9523 21.3405C24.9523 21.4645 24.8903 21.5266 24.7662 21.5266H20.9821C20.858 21.5266 20.7959 21.4645 20.7959 21.3405V18.3627H24.9523V21.3405ZM26.6273 17.122C26.6273 17.184 26.5653 17.2461 26.5033 17.2461H26.0069H19.6172H8.45065H2.06104H1.56472C1.50268 17.2461 1.44068 17.184 1.44068 17.122V12.8415C1.44068 12.7795 1.50268 12.7174 1.56472 12.7174H2.06104H4.79057H13.5997H14.5923H23.4014H26.131H26.6273C26.6893 12.7174 26.7513 12.7795 26.7513 12.8415V17.122H26.6273Z" fill="#8B8B8B"/>
</svg>
