<svg width="32" height="32" viewBox="0 0 32 32" fill="none" xmlns="http://www.w3.org/2000/svg">
<g clip-path="url(#clip0)">
<path d="M22.101 15.3561C23.9847 14.1002 25.3034 11.9653 25.3034 9.51643C25.3034 5.68616 22.2266 2.60938 18.3964 2.60938C16.387 2.60938 14.6289 3.48846 13.373 4.80708C13.4986 4.80708 13.6242 4.80708 13.7498 4.80708C14.5033 4.80708 15.2568 4.93266 16.0103 5.12103C16.7638 4.68149 17.5801 4.49312 18.4591 4.49312C21.222 4.49312 23.4825 6.75361 23.4825 9.51643C23.4825 11.2746 22.5405 12.8444 21.1591 13.7863C20.9707 14.9165 20.4684 15.9211 19.8405 16.8001C24.9894 17.4909 29.0081 21.8863 29.0081 27.2236C29.0081 27.7259 29.4476 28.1655 29.9499 28.1655C30.4523 28.1655 30.8918 27.7259 30.8918 27.2236C30.7662 21.6351 27.1243 16.9259 22.101 15.3561Z" fill="#212121"/>
<path d="M17.0141 18.6237C18.8978 17.3051 20.1537 15.1074 20.1537 12.6585C20.1537 8.63986 16.8885 5.4375 12.9327 5.4375C8.9768 5.4375 5.71164 8.70265 5.71164 12.6585C5.71164 15.1074 6.96747 17.3051 8.85122 18.6237C4.01627 20.3191 0.5 24.9028 0.5 30.3657C0.5 30.868 0.93954 31.3075 1.44187 31.3075C1.9442 31.3075 2.38374 30.868 2.38374 30.3657C2.38374 24.84 6.6535 20.3191 12.0536 19.8795C12.3675 19.9423 12.6187 19.9422 12.9327 19.9422C13.2466 19.9422 13.4978 19.9423 13.8118 19.8795C19.2118 20.3191 23.4817 24.84 23.4817 30.3657C23.4817 30.868 23.9212 31.3075 24.4235 31.3075C24.9259 31.3075 25.3654 30.868 25.3654 30.3657C25.3654 24.9656 21.849 20.3191 17.0141 18.6237ZM12.9327 7.94916C15.5071 7.94916 17.642 10.0841 17.642 12.6585C17.642 15.233 15.5071 17.3679 12.9327 17.3679C10.3582 17.3679 8.2233 15.233 8.2233 12.6585C8.2233 10.0841 10.3582 7.94916 12.9327 7.94916Z" fill="#212121"/>
</g>
<defs>
<clipPath id="clip0">
<rect width="31.3043" height="31.3043" fill="white" transform="translate(0.5)"/>
</clipPath>
</defs>
</svg>
