<svg width="33" height="21" viewBox="0 0 33 21" fill="none" xmlns="http://www.w3.org/2000/svg">
<path d="M20.0166 3.64107C19.5781 3.64107 19.174 3.64138 18.7699 3.64096C18.5292 3.64069 18.2884 3.63533 18.0478 3.64012C17.9437 3.64217 17.9002 3.60366 17.8912 3.50071C17.8791 3.36217 17.8601 3.22366 17.8346 3.08691C17.7633 2.70361 17.5952 2.38539 17.1962 2.26206C16.7547 2.12561 16.3303 2.14682 15.9662 2.47447C15.6607 2.74934 15.4746 3.10204 15.3503 3.48558C15.2476 3.80246 15.1692 4.12725 15.0801 4.44855C15.0955 4.45973 15.1109 4.47087 15.1263 4.48205C15.2004 4.44494 15.2745 4.40791 15.3486 4.37073C17.0816 3.50151 19.1506 4.25701 19.8377 6.07286C20.4155 7.59988 20.197 9.04288 19.1077 10.3007C17.8684 11.7315 15.1804 11.6859 13.9715 10.0684C13.4361 9.3519 13.1472 8.54449 13.0301 7.67299C12.8179 6.09255 12.8646 4.52265 13.3492 2.99133C13.6229 2.12622 14.0707 1.35269 14.8885 0.895325C16.1151 0.209316 17.3745 0.195059 18.5974 0.90426C19.4453 1.39603 19.8086 2.21708 19.9527 3.15189C19.9757 3.30088 19.992 3.45086 20.0166 3.64107ZM18.0618 7.63999C18.0038 7.35002 17.9753 7.05013 17.8819 6.77202C17.6382 6.04579 17.0779 5.70366 16.3593 5.81388C15.8278 5.89543 15.4141 6.19368 15.0424 6.55836C15.001 6.59889 14.9833 6.6845 14.9877 6.74689C15.006 7.00572 15.0252 7.26551 15.0659 7.52149C15.151 8.05725 15.2931 8.57434 15.6301 9.01657C16.1986 9.76269 17.2308 9.7049 17.7125 8.90312C17.9457 8.51507 18.0255 8.0923 18.0618 7.63999Z" fill="white"/>
<path d="M27.7623 5.8812C27.7628 6.89953 27.6871 7.90854 27.3639 8.88228C27.0426 9.85 26.5121 10.6552 25.533 11.069C23.763 11.8169 21.8956 11.058 21.1458 9.2952C20.8245 8.53973 20.6853 7.74194 20.6329 6.92941C20.5568 5.75007 20.5709 4.57358 20.8355 3.41329C20.9847 2.75903 21.2206 2.1413 21.628 1.59904C22.1349 0.924358 22.8129 0.540332 23.645 0.438632C24.6559 0.315071 25.5951 0.484026 26.3698 1.20094C26.8958 1.68774 27.2039 2.31117 27.4077 2.98767C27.6919 3.93107 27.7585 4.90275 27.7623 5.8812ZM25.6979 6.06433C25.6519 5.33422 25.6352 4.78922 25.5786 4.24845C25.5218 3.70664 25.4347 3.16567 25.1159 2.69907C24.6406 2.00337 23.6854 1.99398 23.2452 2.71245C23.0551 3.02272 22.9236 3.39253 22.8596 3.75207C22.6314 5.03228 22.6417 6.32305 22.7942 7.61234C22.8487 8.07259 22.935 8.52676 23.1741 8.93573C23.6469 9.74416 24.7075 9.7548 25.1701 8.94044C25.3114 8.69173 25.4264 8.40712 25.4673 8.12639C25.5757 7.38282 25.6371 6.63244 25.6979 6.06433Z" fill="white"/>
<path d="M5.28613 7.76685C5.46224 7.76685 5.6069 7.76685 5.75156 7.76685C6.23934 7.76681 6.72719 7.77133 7.2149 7.76392C7.35853 7.76171 7.42001 7.7946 7.41297 7.95234C7.4051 8.12818 7.40328 8.31127 7.44286 8.48091C7.56486 9.00394 7.87612 9.35831 8.41458 9.48575C9.19251 9.66987 9.87183 9.42427 10.2057 8.79996C10.4938 8.26116 10.4986 7.68875 10.2604 7.12996C10.1063 6.7687 9.79762 6.55625 9.4215 6.47691C9.13883 6.41726 8.84548 6.40163 8.55582 6.38411C8.31694 6.36966 8.07651 6.38114 7.82122 6.38114C7.82122 5.78695 7.82122 5.2083 7.82122 4.6016C8.03275 4.6016 8.23965 4.61164 8.44511 4.59894C8.67793 4.58457 8.91456 4.57157 9.14058 4.51925C9.56677 4.42059 9.81218 4.13378 9.88807 3.70474C9.94624 3.37584 9.95224 3.04937 9.81762 2.73374C9.7315 2.5319 9.58966 2.37713 9.38732 2.29923C8.94022 2.12712 8.49225 2.13791 8.06321 2.35854C7.81103 2.48822 7.6769 2.72222 7.60983 2.98805C7.55893 3.18989 7.5403 3.39975 7.49437 3.60308C7.48266 3.6549 7.42217 3.73508 7.38336 3.73553C6.73746 3.74272 6.09148 3.73934 5.44551 3.73744C5.43444 3.7374 5.42342 3.7263 5.39939 3.71337C5.45889 2.68401 5.7297 1.74834 6.59991 1.08362C7.78244 0.180217 9.7179 0.164173 10.9158 1.04651C12.2439 2.02473 12.4026 4.04086 11.2445 5.21807C11.2187 5.24423 11.1963 5.27366 11.1658 5.30913C11.2069 5.34095 11.2398 5.36897 11.2752 5.39345C12.0356 5.92009 12.4231 6.66153 12.501 7.56805C12.7 9.88213 10.8953 11.2887 9.04322 11.3217C8.13841 11.3377 7.2912 11.1685 6.55379 10.6111C5.81414 10.0521 5.41756 9.30033 5.32366 8.38427C5.3037 8.1898 5.29944 7.99378 5.28613 7.76685Z" fill="white"/>
<path d="M6.00533 5.68112C5.55945 5.91551 5.10608 6.13678 4.66932 6.38713C3.8223 6.87263 3.04801 7.45116 2.45811 8.24377C1.46868 9.57321 1.51902 11.048 2.58411 12.3254C3.16047 13.0167 3.86595 13.5463 4.63609 13.9974C5.98131 14.7852 7.43495 15.3005 8.93623 15.691C10.9555 16.2163 13.0127 16.4815 15.0947 16.5709C15.1691 16.5741 15.2437 16.5713 15.3402 16.5713C15.3402 15.8173 15.3402 15.0787 15.3402 14.3401C15.3559 14.3312 15.3716 14.3222 15.3872 14.3133C16.4865 15.3351 17.5857 16.3569 18.7032 17.3957C17.5921 18.4295 16.495 19.4503 15.3556 20.5104C15.3556 19.7568 15.3556 19.0494 15.3556 18.331C14.9125 18.3032 14.503 18.2786 14.0937 18.2515C11.7775 18.0986 9.50248 17.716 7.28717 17.0122C5.89337 16.5695 4.55405 16.0022 3.3268 15.1959C2.46735 14.6313 1.69432 13.9732 1.13643 13.0929C0.275538 11.7345 0.333517 10.193 1.28676 8.89416C1.99892 7.9238 2.92784 7.20685 3.96784 6.63288C4.56522 6.30318 5.19626 6.03439 5.81292 5.73975C5.87348 5.71081 5.9393 5.69276 6.00267 5.66968C6.00351 5.67348 6.00442 5.67728 6.00533 5.68112Z" fill="white"/>
<path d="M28.1306 6.15015C28.1806 6.16817 28.2328 6.1817 28.2804 6.20489C29.328 6.7167 30.3103 7.32599 31.1361 8.16027C31.7987 8.82982 32.3107 9.58829 32.4723 10.5404C32.6346 11.4968 32.3919 12.3617 31.8681 13.1595C31.2822 14.0518 30.4783 14.7126 29.5901 15.2797C28.2053 16.1639 26.691 16.7514 25.1211 17.2063C23.4614 17.6873 21.7666 17.9856 20.0493 18.1631C20.0184 18.1663 19.9868 18.1635 19.9392 18.1635C19.9392 17.5922 19.9392 17.0262 19.9392 16.4354C20.2269 16.3985 20.5196 16.3619 20.812 16.3235C22.9058 16.0484 24.9507 15.5814 26.901 14.7528C28.0984 14.2441 29.2217 13.6139 30.146 12.6779C30.6056 12.2125 30.9772 11.6844 31.1668 11.0515C31.4962 9.95243 31.1865 8.98965 30.4975 8.12206C29.8967 7.36572 29.1271 6.81312 28.2985 6.33484C28.2309 6.29583 28.1677 6.2493 28.1025 6.20626C28.1119 6.18752 28.1212 6.16885 28.1306 6.15015Z" fill="white"/>
<path d="M30.0569 3.60575C29.1721 3.61191 28.4574 2.89861 28.4493 2.0014C28.4414 1.13302 29.1579 0.410625 30.0403 0.397394C30.9198 0.384202 31.655 1.1085 31.6595 1.99273C31.6641 2.8761 30.9452 3.59959 30.0569 3.60575ZM30.0485 2.75083C30.4615 2.75425 30.7949 2.42554 30.8027 2.00737C30.8102 1.60551 30.4617 1.25175 30.0583 1.25152C29.6444 1.25129 29.3028 1.58844 29.3043 1.99566C29.3059 2.41109 29.6373 2.74744 30.0485 2.75083Z" fill="white"/>
</svg>
