<svg width="115" height="139" viewBox="0 0 115 139" fill="none" xmlns="http://www.w3.org/2000/svg">
<path d="M0.268626 0C38.4228 0 76.8458 0 115 0C115 0.267509 115 0.802511 115 1.07002C115 30.7635 115 60.4571 115 89.8831C115 95.2333 112.85 99.7809 110.164 104.061C108.283 107.004 105.864 109.144 102.909 111.016C91.3551 119.309 79.8014 127.602 67.979 135.895C65.5607 137.767 62.6051 138.57 59.3808 138.837C55.3504 139.372 51.8575 138.57 48.3645 136.697C46.215 135.36 44.0654 133.755 41.9158 132.15C33.049 125.729 23.9135 119.309 15.0467 112.889C12.0911 110.749 8.86673 108.876 6.4485 105.666C2.41813 100.583 0 94.9658 0 88.2781C0 59.1195 0 29.961 0 1.07002C0.268692 0.802511 0.268626 0.535019 0.268626 0ZM56.4252 66.0748C42.9907 70.0874 30.8994 59.6545 30.6308 47.8841C41.3784 44.4065 49.9766 47.0816 56.4252 56.4444C56.4252 50.8267 56.4252 44.9415 56.4252 39.3239C55.8879 39.3239 55.6191 39.5913 55.3504 39.5913C52.3948 40.1264 49.7079 40.3939 46.7523 39.8589C37.8854 37.9863 31.9742 31.2986 30.6308 22.4708C30.6308 21.6682 30.8996 21.4007 31.437 21.4007C40.5725 17.9231 50.7827 21.1332 55.8878 29.426C55.8878 29.6935 56.1566 29.961 56.4252 30.2285C56.4252 27.0184 56.4252 24.0758 56.4252 20.8657C56.4252 20.0632 56.4252 19.2607 56.4252 18.7256C56.4252 18.1906 56.9625 17.6556 57.4999 17.6556C58.0373 17.6556 58.306 18.1906 58.8434 18.4581C59.1121 18.7256 58.8434 18.9931 58.8434 19.5281C58.8434 26.7509 58.8434 33.7061 58.8434 40.9289C58.8434 41.1964 58.8434 41.7314 58.8434 42.2664C59.1121 41.7314 59.3809 41.4639 59.6496 41.1964C64.7547 33.1711 74.965 29.961 83.8318 33.4387C84.6379 33.7062 84.6379 33.9737 84.6379 34.7762C83.8318 44.4065 74.9649 52.4318 65.292 52.4318C63.1425 52.4318 60.993 52.1643 59.1122 51.8968C59.1122 56.9795 59.1122 62.5971 59.1122 67.9473C59.3809 67.4123 59.6496 67.1448 59.6496 66.8773C64.7547 59.1195 74.6963 55.6419 83.2944 58.852C84.6379 59.3871 84.6379 59.387 84.6379 60.9921C82.757 71.6924 73.6214 78.9152 62.8737 77.8452C61.5303 77.8452 60.4555 77.5777 58.8434 77.3102C58.8434 78.3802 58.8434 79.1827 58.8434 80.2528C58.8434 81.3228 58.8434 82.3928 58.8434 83.4629C74.9649 83.7304 89.4743 88.813 102.103 98.4434C103.984 95.5008 105.327 92.5582 105.327 89.0805C105.327 62.8646 105.327 36.6488 105.327 10.4328C105.327 10.1653 105.327 9.63033 105.327 9.36282C73.3529 9.36282 41.6471 9.36282 9.67283 9.36282C9.67283 9.63033 9.67283 9.89781 9.67283 10.1653C9.67283 36.6487 9.67283 62.8647 9.67283 89.3481C9.67283 92.8257 11.0163 95.7683 12.8972 98.4434C25.7944 88.813 40.035 83.7304 56.1565 83.4629C56.4252 77.5777 56.4252 71.96 56.4252 66.0748ZM112.582 2.40757C75.771 2.40757 39.229 2.40757 2.68692 2.40757C2.68692 2.94259 2.68692 3.21009 2.68692 3.74511C2.68692 31.8336 2.68692 59.9221 2.68692 88.0105C2.68692 93.6282 4.2991 98.4434 7.25471 102.724C7.25471 102.991 7.52327 102.991 7.79196 103.259C9.13542 102.189 10.2103 101.118 11.2851 100.048C11.0164 99.7809 11.0164 99.5134 10.7477 99.2459C8.86683 96.0358 7.52333 92.8257 7.52333 89.0805C7.52333 62.0621 7.52333 35.0437 7.52333 8.02528C7.52333 7.75777 7.52333 7.22272 7.52333 6.95522C41.1098 6.95522 74.4276 6.95522 108.014 6.95522C108.014 7.49023 108.014 7.75774 108.014 8.29276C108.014 35.0437 108.014 62.0621 108.014 88.8131C108.014 90.6856 107.745 92.5582 107.208 94.1632C106.67 96.0358 105.596 97.9084 104.521 100.048C105.596 100.851 106.671 101.921 108.014 102.991C110.701 98.7109 112.85 94.4307 112.85 89.3481C112.85 60.4571 112.85 31.8336 112.85 3.2101C112.582 3.2101 112.582 2.67508 112.582 2.40757ZM106.133 105.131C78.9953 79.1827 36.0046 79.7177 9.13542 105.399C11.285 107.004 13.4345 108.876 15.8527 110.481C27.9438 99.7809 41.9159 94.1632 57.7687 94.1632C73.6215 94.1632 87.5934 99.7809 99.6845 110.481C101.565 109.144 103.178 107.806 105.058 106.469C105.327 105.934 105.865 105.666 106.133 105.131ZM90.5491 116.902C92.9673 115.296 95.1168 113.691 97.535 111.819C84.9065 100.851 70.3972 95.7683 53.7383 96.8383C40.0351 97.6409 28.2126 102.724 17.7336 111.819C20.1518 113.424 22.3014 115.029 24.7197 116.634C44.3342 100.316 72.2781 101.654 90.5491 116.902ZM33.8551 123.322C34.1238 123.054 34.3924 123.054 34.6611 122.787C48.0957 113.691 65.8295 113.156 79.264 121.984C80.0701 122.519 80.6075 123.322 81.4135 123.322C82.2196 123.322 82.757 122.519 83.563 121.984C85.1752 120.914 86.7873 119.577 88.3995 118.507C70.1284 103.526 43.7967 104.329 26.8692 118.507C29.2874 119.844 31.7055 121.717 33.8551 123.322ZM79.5327 124.659C71.7406 119.309 63.1425 117.169 53.7383 117.972C47.2897 118.507 41.3784 120.914 36.0046 124.659C38.4228 126.264 40.5723 127.869 42.7219 129.474C43.2593 129.742 43.528 129.742 44.0653 129.474C44.8714 129.207 45.6775 128.672 46.4836 128.404C55.0818 125.194 63.4112 125.462 71.4719 129.474C71.7406 129.742 72.2781 129.742 72.5467 129.474C74.6963 128.137 77.1144 126.532 79.5327 124.659ZM69.8598 131.615C62.3365 127.602 51.8575 128.137 45.6776 131.615C52.9323 138.035 62.0678 138.302 69.8598 131.615ZM59.6496 73.2975C66.6356 69.0174 73.3527 65.0047 80.3387 60.7246C72.278 58.5845 62.0678 63.3997 59.6496 73.2975ZM55.8878 35.3112C54.007 26.4834 44.0655 20.5982 35.4673 22.7383C42.1846 27.0184 48.9018 31.2986 55.8878 35.3112ZM80.0701 34.7762C71.2033 32.6361 61.2617 38.5213 59.6496 47.3491C66.6356 43.3365 73.3528 39.0564 80.0701 34.7762ZM55.6192 62.0621C55.6192 54.5719 41.9158 46.2791 35.1985 49.4892C42.1845 53.5019 48.9019 57.782 55.6192 62.0621ZM49.4392 60.9921C49.1705 60.7246 48.9018 60.7246 48.6331 60.4571C46.7523 58.852 44.8714 58.5845 42.7219 59.6545C41.9158 60.1895 40.8412 60.1896 39.4977 60.7246C40.8412 61.5271 41.9158 62.0621 42.7219 62.5971C42.9906 62.5971 43.2593 62.8647 43.2593 62.5971C45.4088 62.3296 47.2896 61.5271 49.4392 60.9921ZM76.0397 46.2791C73.8902 45.4765 72.0094 44.9415 69.8598 44.4065C69.5911 44.4065 69.5911 44.4065 69.3224 44.4065C68.2477 44.9415 67.1729 45.7441 65.8295 46.5466C67.979 47.0816 69.8599 47.8841 71.7407 48.4191C72.0094 48.4191 72.278 48.4191 72.278 48.4191C73.6214 47.6166 74.6963 47.0816 76.0397 46.2791ZM39.4977 34.2411C40.5725 35.0437 41.6472 35.5787 42.4533 36.1137C42.7219 36.3813 42.9906 36.3812 43.2593 36.3812C45.1401 35.8462 47.2896 35.3112 49.4392 34.5087C48.0957 33.7062 47.2898 33.1711 46.215 32.3686C45.9463 32.3686 45.9463 32.1011 45.6776 32.3686C43.7967 32.9036 41.6472 33.4386 39.4977 34.2411ZM65.8295 72.2275C67.979 72.7625 69.8599 73.565 71.7407 74.1001C72.0094 74.1001 72.278 74.1001 72.278 74.1001C73.3527 73.565 74.4276 72.7625 75.7711 71.96C73.6215 71.1574 71.7407 70.6224 69.8598 70.0874C69.5911 70.0874 69.3225 70.0874 69.0538 70.0874C68.2477 70.8899 67.1729 71.425 65.8295 72.2275ZM72.278 68.2149C72.8153 68.4824 72.8155 68.4823 73.0842 68.4823C74.4276 69.0174 76.0397 69.5524 77.3832 69.8199C77.6519 69.8199 77.9206 69.8199 77.9206 69.5524C78.458 68.7499 78.9954 67.9473 79.8015 67.1448C78.458 66.6098 77.3831 66.3423 76.3083 66.0748C76.0396 66.0748 75.771 66.0748 75.5023 66.0748C74.6962 66.8773 73.6214 67.6798 72.278 68.2149ZM79.8015 41.4639C78.458 41.1964 77.3831 40.6614 76.3083 40.3939C76.0396 40.3939 75.7711 40.3939 75.7711 40.3939C74.6963 40.9289 73.6214 41.7314 72.278 42.534C73.3527 42.8015 74.4275 43.3365 75.5023 43.604C78.1892 44.4065 78.1892 44.4065 79.5327 41.9989C79.8014 41.9989 79.8015 41.7314 79.8015 41.4639ZM35.4673 56.1769C36.0047 56.9795 36.8107 57.782 37.348 58.5845C37.348 58.852 37.8855 58.852 37.8855 58.852C39.4976 58.317 41.1098 57.782 42.9907 57.247C41.6472 56.4444 40.8411 55.9094 39.7663 55.1069C39.4976 55.1069 39.2289 55.1069 39.2289 55.1069C38.1541 55.3744 36.8108 55.6419 35.4673 56.1769ZM35.4673 29.426C36.0047 30.2285 36.542 31.031 37.348 31.5661C37.6167 31.8336 37.8856 31.8336 38.1542 31.8336C39.7664 31.2986 41.3784 30.7635 43.2593 30.2285C41.9158 29.426 41.1097 28.891 40.035 28.0885C39.7663 28.0885 39.4977 27.821 39.4977 28.0885C37.8856 28.6235 36.8108 29.1585 35.4673 29.426ZM67.7103 75.4376C66.6356 75.1701 65.5607 74.9026 64.7546 74.3675C63.1425 73.565 62.0678 74.3676 60.993 75.4376C63.4113 75.9726 65.5608 75.9726 67.7103 75.4376ZM60.993 49.4892C63.4113 50.0242 65.5608 50.0242 67.7103 49.4892C66.3669 48.9542 65.0234 48.4192 63.68 48.1517C63.4113 48.1517 63.1424 48.1516 62.8737 48.4191C62.3364 48.6867 61.7991 48.9542 60.993 49.4892ZM47.5585 64.2022C49.708 64.7372 52.1262 64.7372 54.2757 64.2022C53.4697 63.6672 52.6635 62.8646 51.8575 63.1322C50.514 62.8646 49.1706 63.6672 47.5585 64.2022ZM47.5585 37.4513C49.708 37.9863 52.1262 37.9863 54.2757 37.4513C53.4697 36.9163 52.6635 36.1137 51.8575 36.3812C50.514 36.3812 49.1706 36.9163 47.5585 37.4513ZM81.951 62.3296C80.6075 63.1321 79.8014 63.6672 78.7266 64.4697C79.5327 64.7372 80.3388 65.0047 81.1449 65.2722C81.4136 64.2022 81.6823 63.3997 81.951 62.3296ZM36.8108 53.2343C35.736 52.4318 34.6612 51.8968 33.8551 51.3618C33.8551 51.3618 33.8551 51.6293 33.5865 51.6293C33.8551 52.4318 34.1238 53.2343 34.3925 54.0369C35.1986 53.7694 36.0047 53.5018 36.8108 53.2343ZM33.8551 24.8783C33.5864 24.8783 33.5864 24.8783 33.8551 24.8783C33.8551 25.9484 34.1238 26.7509 34.3925 27.5534C35.1986 27.2859 36.0047 27.0184 36.8108 26.7509C35.736 25.9484 34.6612 25.4133 33.8551 24.8783ZM81.951 36.6488C80.6075 37.4513 79.8014 37.9863 78.7266 38.7888C79.5327 39.0564 80.3388 39.3238 81.1449 39.5913C81.4136 38.5213 81.6823 37.7188 81.951 36.6488Z" fill="white"/>
</svg>
